G04 PROTEUS GERBER X2 FILE*
%TF.GenerationSoftware,Labcenter,Proteus,8.6-SP2-Build23525*%
%TF.CreationDate,2019-02-04T04:32:53+00:00*%
%TF.FileFunction,Plated,1,2,PTH*%
%TF.FilePolarity,Positive*%
%TF.Part,Single*%
%FSLAX45Y45*%
%MOMM*%
G01*
%TA.AperFunction,ViaDrill*%
%ADD38C,0.381000*%
%TA.AperFunction,ComponentDrill*%
%ADD39C,0.762000*%
%TA.AperFunction,OtherDrill,Unknown*%
%ADD40C,3.000000*%
%TA.AperFunction,ComponentDrill*%
%ADD41C,1.016000*%
%TD.AperFunction*%
D38*
X+1403291Y-241143D03*
X+3181676Y-128551D03*
X+1657526Y-1498512D03*
X+1285267Y+206823D03*
X+133327Y-338072D03*
X+441640Y+237283D03*
X+952500Y-127000D03*
X+896247Y-1564725D03*
X+2088274Y+249835D03*
X+2032000Y-508000D03*
X+497707Y-1281263D03*
X+127487Y-813928D03*
X+460058Y-510529D03*
X+571500Y+444500D03*
X+444500Y+444500D03*
X+2905713Y-80354D03*
X+1905000Y+1524000D03*
X+2159704Y+1528604D03*
X+2032000Y+2540000D03*
X+2032000Y+2794000D03*
X+1270000Y+2794000D03*
X+1270000Y+2540000D03*
X+2794000Y+2794000D03*
X+2794000Y+2540000D03*
X+508000Y+2794000D03*
X+508000Y+2540000D03*
X+3258861Y-1468972D03*
X+889000Y+508000D03*
X+1326774Y+777627D03*
X+1206500Y+1778000D03*
X+2095500Y+1778000D03*
X+3596716Y+121971D03*
D39*
X+254000Y+2540000D03*
X+0Y+2540000D03*
X+254000Y+1778000D03*
X+0Y+1778000D03*
X+254000Y+1016000D03*
X+0Y+1016000D03*
X+254000Y+254000D03*
X+0Y+254000D03*
X+254000Y-508000D03*
X+0Y-508000D03*
X+254000Y-1270000D03*
X+0Y-1270000D03*
X+1016000Y+2540000D03*
X+762000Y+2540000D03*
X+1016000Y+1778000D03*
X+762000Y+1778000D03*
X+1016000Y+1016000D03*
X+762000Y+1016000D03*
X+1016000Y+254000D03*
X+762000Y+254000D03*
X+1016000Y-508000D03*
X+762000Y-508000D03*
X+1016000Y-1270000D03*
X+762000Y-1270000D03*
X+1778000Y+2540000D03*
X+1524000Y+2540000D03*
X+1778000Y+1778000D03*
X+1524000Y+1778000D03*
X+1778000Y+1016000D03*
X+1524000Y+1016000D03*
X+1778000Y+254000D03*
X+1524000Y+254000D03*
X+1778000Y-508000D03*
X+1524000Y-508000D03*
X+1778000Y-1270000D03*
X+1524000Y-1270000D03*
X+2540000Y+2540000D03*
X+2286000Y+2540000D03*
X+2540000Y+1778000D03*
X+2286000Y+1778000D03*
X+2540000Y+1016000D03*
X+2286000Y+1016000D03*
X+2540000Y+254000D03*
X+2286000Y+254000D03*
X+2540000Y-508000D03*
X+2286000Y-508000D03*
X+2540000Y-1270000D03*
X+2286000Y-1270000D03*
X+3302000Y+2540000D03*
X+3048000Y+2540000D03*
X+3302000Y+1778000D03*
X+3048000Y+1778000D03*
X+3302000Y+1016000D03*
X+3048000Y+1016000D03*
X+3302000Y+254000D03*
X+3048000Y+254000D03*
X+3302000Y-508000D03*
X+3048000Y-508000D03*
X+3302000Y-1270000D03*
X+3048000Y-1270000D03*
D40*
X+2794000Y-889000D03*
X+508000Y-889000D03*
X+508000Y+2159000D03*
X+2794000Y+2159000D03*
D39*
X+3048000Y+635000D03*
X+2794000Y+635000D03*
X+2540000Y+635000D03*
X+2286000Y+635000D03*
X+2032000Y+635000D03*
X+1778000Y+635000D03*
X+1524000Y+635000D03*
X+1270000Y+635000D03*
X+1016000Y+635000D03*
X+762000Y+635000D03*
X+508000Y+635000D03*
X+254000Y+635000D03*
X+254000Y+1397000D03*
X+508000Y+1397000D03*
X+762000Y+1397000D03*
X+1016000Y+1397000D03*
X+1270000Y+1397000D03*
X+1524000Y+1397000D03*
X+1778000Y+1397000D03*
X+2032000Y+1397000D03*
X+2286000Y+1397000D03*
X+2540000Y+1397000D03*
X+2794000Y+1397000D03*
X+3048000Y+1397000D03*
X+1270000Y-127000D03*
X+1524000Y-127000D03*
X+1778000Y-127000D03*
X+2032000Y-127000D03*
X+2032000Y-889000D03*
X+1778000Y-889000D03*
X+1524000Y-889000D03*
X+1270000Y-889000D03*
D41*
X+3556000Y-444500D03*
X+3556000Y-698500D03*
X+3556000Y-952500D03*
X+3556000Y-1206500D03*
X+3556000Y-1460500D03*
X-254000Y-444500D03*
X-254000Y-698500D03*
X-254000Y-952500D03*
X-254000Y-1206500D03*
X-254000Y-1460500D03*
D39*
X+2032000Y+1968500D03*
X+1016000Y+1968500D03*
X+3429000Y+2286000D03*
X+3429000Y+2032000D03*
X+3492500Y+571500D03*
X+3492500Y+825500D03*
M02*
