G04 PROTEUS GERBER X2 FILE*
%TF.GenerationSoftware,Labcenter,Proteus,8.6-SP2-Build23525*%
%TF.CreationDate,2019-02-04T04:32:53+00:00*%
%TF.FileFunction,Legend,Top*%
%TF.FilePolarity,Positive*%
%TF.Part,Single*%
%FSLAX45Y45*%
%MOMM*%
G01*
%TA.AperFunction,Material*%
%ADD21C,0.203200*%
%TA.AperFunction,Profile*%
%ADD71C,0.203200*%
%TD.AperFunction*%
D21*
X+381000Y+2540000D02*
X+380173Y+2560483D01*
X+373455Y+2601450D01*
X+359437Y+2642417D01*
X+336659Y+2683384D01*
X+301859Y+2724229D01*
X+260892Y+2755845D01*
X+219925Y+2776392D01*
X+178958Y+2788629D01*
X+137991Y+2793762D01*
X+127000Y+2794000D01*
X-127000Y+2540000D02*
X-126173Y+2560483D01*
X-119455Y+2601450D01*
X-105437Y+2642417D01*
X-82659Y+2683384D01*
X-47859Y+2724229D01*
X-6892Y+2755845D01*
X+34075Y+2776392D01*
X+75042Y+2788629D01*
X+116009Y+2793762D01*
X+127000Y+2794000D01*
X-127000Y+2540000D02*
X-126173Y+2519517D01*
X-119455Y+2478550D01*
X-105437Y+2437583D01*
X-82659Y+2396616D01*
X-47859Y+2355771D01*
X-6892Y+2324155D01*
X+34075Y+2303608D01*
X+75042Y+2291371D01*
X+116009Y+2286238D01*
X+127000Y+2286000D01*
X+381000Y+2540000D02*
X+380173Y+2519517D01*
X+373455Y+2478550D01*
X+359437Y+2437583D01*
X+336659Y+2396616D01*
X+301859Y+2355771D01*
X+260892Y+2324155D01*
X+219925Y+2303608D01*
X+178958Y+2291371D01*
X+137991Y+2286238D01*
X+127000Y+2286000D01*
X-88900Y+2717800D02*
X-88900Y+2362200D01*
X+410980Y+2540000D02*
X+410062Y+2562814D01*
X+402609Y+2608443D01*
X+387062Y+2654072D01*
X+361820Y+2699701D01*
X+323278Y+2745231D01*
X+277649Y+2780727D01*
X+232020Y+2803847D01*
X+186391Y+2817700D01*
X+140762Y+2823646D01*
X+127000Y+2823980D01*
X-156980Y+2540000D02*
X-156062Y+2562814D01*
X-148609Y+2608443D01*
X-133062Y+2654072D01*
X-107820Y+2699701D01*
X-69278Y+2745231D01*
X-23649Y+2780727D01*
X+21980Y+2803847D01*
X+67609Y+2817700D01*
X+113238Y+2823646D01*
X+127000Y+2823980D01*
X-156980Y+2540000D02*
X-156062Y+2517186D01*
X-148609Y+2471557D01*
X-133062Y+2425928D01*
X-107820Y+2380299D01*
X-69278Y+2334769D01*
X-23649Y+2299273D01*
X+21980Y+2276153D01*
X+67609Y+2262300D01*
X+113238Y+2256354D01*
X+127000Y+2256020D01*
X+410980Y+2540000D02*
X+410062Y+2517186D01*
X+402609Y+2471557D01*
X+387062Y+2425928D01*
X+361820Y+2380299D01*
X+323278Y+2334769D01*
X+277649Y+2299273D01*
X+232020Y+2276153D01*
X+186391Y+2262300D01*
X+140762Y+2256354D01*
X+127000Y+2256020D01*
X-12700Y+2362200D02*
X-12700Y+2438400D01*
X-12700Y+2387600D02*
X+25400Y+2438400D01*
X+0Y+2400300D02*
X+25400Y+2362200D01*
X+381000Y+1778000D02*
X+380173Y+1798483D01*
X+373455Y+1839450D01*
X+359437Y+1880417D01*
X+336659Y+1921384D01*
X+301859Y+1962229D01*
X+260892Y+1993845D01*
X+219925Y+2014392D01*
X+178958Y+2026629D01*
X+137991Y+2031762D01*
X+127000Y+2032000D01*
X-127000Y+1778000D02*
X-126173Y+1798483D01*
X-119455Y+1839450D01*
X-105437Y+1880417D01*
X-82659Y+1921384D01*
X-47859Y+1962229D01*
X-6892Y+1993845D01*
X+34075Y+2014392D01*
X+75042Y+2026629D01*
X+116009Y+2031762D01*
X+127000Y+2032000D01*
X-127000Y+1778000D02*
X-126173Y+1757517D01*
X-119455Y+1716550D01*
X-105437Y+1675583D01*
X-82659Y+1634616D01*
X-47859Y+1593771D01*
X-6892Y+1562155D01*
X+34075Y+1541608D01*
X+75042Y+1529371D01*
X+116009Y+1524238D01*
X+127000Y+1524000D01*
X+381000Y+1778000D02*
X+380173Y+1757517D01*
X+373455Y+1716550D01*
X+359437Y+1675583D01*
X+336659Y+1634616D01*
X+301859Y+1593771D01*
X+260892Y+1562155D01*
X+219925Y+1541608D01*
X+178958Y+1529371D01*
X+137991Y+1524238D01*
X+127000Y+1524000D01*
X-88900Y+1955800D02*
X-88900Y+1600200D01*
X+410980Y+1778000D02*
X+410062Y+1800814D01*
X+402609Y+1846443D01*
X+387062Y+1892072D01*
X+361820Y+1937701D01*
X+323278Y+1983231D01*
X+277649Y+2018727D01*
X+232020Y+2041847D01*
X+186391Y+2055700D01*
X+140762Y+2061646D01*
X+127000Y+2061980D01*
X-156980Y+1778000D02*
X-156062Y+1800814D01*
X-148609Y+1846443D01*
X-133062Y+1892072D01*
X-107820Y+1937701D01*
X-69278Y+1983231D01*
X-23649Y+2018727D01*
X+21980Y+2041847D01*
X+67609Y+2055700D01*
X+113238Y+2061646D01*
X+127000Y+2061980D01*
X-156980Y+1778000D02*
X-156062Y+1755186D01*
X-148609Y+1709557D01*
X-133062Y+1663928D01*
X-107820Y+1618299D01*
X-69278Y+1572769D01*
X-23649Y+1537273D01*
X+21980Y+1514153D01*
X+67609Y+1500300D01*
X+113238Y+1494354D01*
X+127000Y+1494020D01*
X+410980Y+1778000D02*
X+410062Y+1755186D01*
X+402609Y+1709557D01*
X+387062Y+1663928D01*
X+361820Y+1618299D01*
X+323278Y+1572769D01*
X+277649Y+1537273D01*
X+232020Y+1514153D01*
X+186391Y+1500300D01*
X+140762Y+1494354D01*
X+127000Y+1494020D01*
X-12700Y+1600200D02*
X-12700Y+1676400D01*
X-12700Y+1625600D02*
X+25400Y+1676400D01*
X+0Y+1638300D02*
X+25400Y+1600200D01*
X+381000Y+1016000D02*
X+380173Y+1036483D01*
X+373455Y+1077450D01*
X+359437Y+1118417D01*
X+336659Y+1159384D01*
X+301859Y+1200229D01*
X+260892Y+1231845D01*
X+219925Y+1252392D01*
X+178958Y+1264629D01*
X+137991Y+1269762D01*
X+127000Y+1270000D01*
X-127000Y+1016000D02*
X-126173Y+1036483D01*
X-119455Y+1077450D01*
X-105437Y+1118417D01*
X-82659Y+1159384D01*
X-47859Y+1200229D01*
X-6892Y+1231845D01*
X+34075Y+1252392D01*
X+75042Y+1264629D01*
X+116009Y+1269762D01*
X+127000Y+1270000D01*
X-127000Y+1016000D02*
X-126173Y+995517D01*
X-119455Y+954550D01*
X-105437Y+913583D01*
X-82659Y+872616D01*
X-47859Y+831771D01*
X-6892Y+800155D01*
X+34075Y+779608D01*
X+75042Y+767371D01*
X+116009Y+762238D01*
X+127000Y+762000D01*
X+381000Y+1016000D02*
X+380173Y+995517D01*
X+373455Y+954550D01*
X+359437Y+913583D01*
X+336659Y+872616D01*
X+301859Y+831771D01*
X+260892Y+800155D01*
X+219925Y+779608D01*
X+178958Y+767371D01*
X+137991Y+762238D01*
X+127000Y+762000D01*
X-88900Y+1193800D02*
X-88900Y+838200D01*
X+410980Y+1016000D02*
X+410062Y+1038814D01*
X+402609Y+1084443D01*
X+387062Y+1130072D01*
X+361820Y+1175701D01*
X+323278Y+1221231D01*
X+277649Y+1256727D01*
X+232020Y+1279847D01*
X+186391Y+1293700D01*
X+140762Y+1299646D01*
X+127000Y+1299980D01*
X-156980Y+1016000D02*
X-156062Y+1038814D01*
X-148609Y+1084443D01*
X-133062Y+1130072D01*
X-107820Y+1175701D01*
X-69278Y+1221231D01*
X-23649Y+1256727D01*
X+21980Y+1279847D01*
X+67609Y+1293700D01*
X+113238Y+1299646D01*
X+127000Y+1299980D01*
X-156980Y+1016000D02*
X-156062Y+993186D01*
X-148609Y+947557D01*
X-133062Y+901928D01*
X-107820Y+856299D01*
X-69278Y+810769D01*
X-23649Y+775273D01*
X+21980Y+752153D01*
X+67609Y+738300D01*
X+113238Y+732354D01*
X+127000Y+732020D01*
X+410980Y+1016000D02*
X+410062Y+993186D01*
X+402609Y+947557D01*
X+387062Y+901928D01*
X+361820Y+856299D01*
X+323278Y+810769D01*
X+277649Y+775273D01*
X+232020Y+752153D01*
X+186391Y+738300D01*
X+140762Y+732354D01*
X+127000Y+732020D01*
X-12700Y+838200D02*
X-12700Y+914400D01*
X-12700Y+863600D02*
X+25400Y+914400D01*
X+0Y+876300D02*
X+25400Y+838200D01*
X+381000Y+254000D02*
X+380173Y+274483D01*
X+373455Y+315450D01*
X+359437Y+356417D01*
X+336659Y+397384D01*
X+301859Y+438229D01*
X+260892Y+469845D01*
X+219925Y+490392D01*
X+178958Y+502629D01*
X+137991Y+507762D01*
X+127000Y+508000D01*
X-127000Y+254000D02*
X-126173Y+274483D01*
X-119455Y+315450D01*
X-105437Y+356417D01*
X-82659Y+397384D01*
X-47859Y+438229D01*
X-6892Y+469845D01*
X+34075Y+490392D01*
X+75042Y+502629D01*
X+116009Y+507762D01*
X+127000Y+508000D01*
X-127000Y+254000D02*
X-126173Y+233517D01*
X-119455Y+192550D01*
X-105437Y+151583D01*
X-82659Y+110616D01*
X-47859Y+69771D01*
X-6892Y+38155D01*
X+34075Y+17608D01*
X+75042Y+5371D01*
X+116009Y+238D01*
X+127000Y+0D01*
X+381000Y+254000D02*
X+380173Y+233517D01*
X+373455Y+192550D01*
X+359437Y+151583D01*
X+336659Y+110616D01*
X+301859Y+69771D01*
X+260892Y+38155D01*
X+219925Y+17608D01*
X+178958Y+5371D01*
X+137991Y+238D01*
X+127000Y+0D01*
X-88900Y+431800D02*
X-88900Y+76200D01*
X+410980Y+254000D02*
X+410062Y+276814D01*
X+402609Y+322443D01*
X+387062Y+368072D01*
X+361820Y+413701D01*
X+323278Y+459231D01*
X+277649Y+494727D01*
X+232020Y+517847D01*
X+186391Y+531700D01*
X+140762Y+537646D01*
X+127000Y+537980D01*
X-156980Y+254000D02*
X-156062Y+276814D01*
X-148609Y+322443D01*
X-133062Y+368072D01*
X-107820Y+413701D01*
X-69278Y+459231D01*
X-23649Y+494727D01*
X+21980Y+517847D01*
X+67609Y+531700D01*
X+113238Y+537646D01*
X+127000Y+537980D01*
X-156980Y+254000D02*
X-156062Y+231186D01*
X-148609Y+185557D01*
X-133062Y+139928D01*
X-107820Y+94299D01*
X-69278Y+48769D01*
X-23649Y+13273D01*
X+21980Y-9847D01*
X+67609Y-23700D01*
X+113238Y-29646D01*
X+127000Y-29980D01*
X+410980Y+254000D02*
X+410062Y+231186D01*
X+402609Y+185557D01*
X+387062Y+139928D01*
X+361820Y+94299D01*
X+323278Y+48769D01*
X+277649Y+13273D01*
X+232020Y-9847D01*
X+186391Y-23700D01*
X+140762Y-29646D01*
X+127000Y-29980D01*
X-12700Y+76200D02*
X-12700Y+152400D01*
X-12700Y+101600D02*
X+25400Y+152400D01*
X+0Y+114300D02*
X+25400Y+76200D01*
X+381000Y-508000D02*
X+380173Y-487517D01*
X+373455Y-446550D01*
X+359437Y-405583D01*
X+336659Y-364616D01*
X+301859Y-323771D01*
X+260892Y-292155D01*
X+219925Y-271608D01*
X+178958Y-259371D01*
X+137991Y-254238D01*
X+127000Y-254000D01*
X-127000Y-508000D02*
X-126173Y-487517D01*
X-119455Y-446550D01*
X-105437Y-405583D01*
X-82659Y-364616D01*
X-47859Y-323771D01*
X-6892Y-292155D01*
X+34075Y-271608D01*
X+75042Y-259371D01*
X+116009Y-254238D01*
X+127000Y-254000D01*
X-127000Y-508000D02*
X-126173Y-528483D01*
X-119455Y-569450D01*
X-105437Y-610417D01*
X-82659Y-651384D01*
X-47859Y-692229D01*
X-6892Y-723845D01*
X+34075Y-744392D01*
X+75042Y-756629D01*
X+116009Y-761762D01*
X+127000Y-762000D01*
X+381000Y-508000D02*
X+380173Y-528483D01*
X+373455Y-569450D01*
X+359437Y-610417D01*
X+336659Y-651384D01*
X+301859Y-692229D01*
X+260892Y-723845D01*
X+219925Y-744392D01*
X+178958Y-756629D01*
X+137991Y-761762D01*
X+127000Y-762000D01*
X-88900Y-330200D02*
X-88900Y-685800D01*
X+410980Y-508000D02*
X+410062Y-485186D01*
X+402609Y-439557D01*
X+387062Y-393928D01*
X+361820Y-348299D01*
X+323278Y-302769D01*
X+277649Y-267273D01*
X+232020Y-244153D01*
X+186391Y-230300D01*
X+140762Y-224354D01*
X+127000Y-224020D01*
X-156980Y-508000D02*
X-156062Y-485186D01*
X-148609Y-439557D01*
X-133062Y-393928D01*
X-107820Y-348299D01*
X-69278Y-302769D01*
X-23649Y-267273D01*
X+21980Y-244153D01*
X+67609Y-230300D01*
X+113238Y-224354D01*
X+127000Y-224020D01*
X-156980Y-508000D02*
X-156062Y-530814D01*
X-148609Y-576443D01*
X-133062Y-622072D01*
X-107820Y-667701D01*
X-69278Y-713231D01*
X-23649Y-748727D01*
X+21980Y-771847D01*
X+67609Y-785700D01*
X+113238Y-791646D01*
X+127000Y-791980D01*
X+410980Y-508000D02*
X+410062Y-530814D01*
X+402609Y-576443D01*
X+387062Y-622072D01*
X+361820Y-667701D01*
X+323278Y-713231D01*
X+277649Y-748727D01*
X+232020Y-771847D01*
X+186391Y-785700D01*
X+140762Y-791646D01*
X+127000Y-791980D01*
X-12700Y-685800D02*
X-12700Y-609600D01*
X-12700Y-660400D02*
X+25400Y-609600D01*
X+0Y-647700D02*
X+25400Y-685800D01*
X+381000Y-1270000D02*
X+380173Y-1249517D01*
X+373455Y-1208550D01*
X+359437Y-1167583D01*
X+336659Y-1126616D01*
X+301859Y-1085771D01*
X+260892Y-1054155D01*
X+219925Y-1033608D01*
X+178958Y-1021371D01*
X+137991Y-1016238D01*
X+127000Y-1016000D01*
X-127000Y-1270000D02*
X-126173Y-1249517D01*
X-119455Y-1208550D01*
X-105437Y-1167583D01*
X-82659Y-1126616D01*
X-47859Y-1085771D01*
X-6892Y-1054155D01*
X+34075Y-1033608D01*
X+75042Y-1021371D01*
X+116009Y-1016238D01*
X+127000Y-1016000D01*
X-127000Y-1270000D02*
X-126173Y-1290483D01*
X-119455Y-1331450D01*
X-105437Y-1372417D01*
X-82659Y-1413384D01*
X-47859Y-1454229D01*
X-6892Y-1485845D01*
X+34075Y-1506392D01*
X+75042Y-1518629D01*
X+116009Y-1523762D01*
X+127000Y-1524000D01*
X+381000Y-1270000D02*
X+380173Y-1290483D01*
X+373455Y-1331450D01*
X+359437Y-1372417D01*
X+336659Y-1413384D01*
X+301859Y-1454229D01*
X+260892Y-1485845D01*
X+219925Y-1506392D01*
X+178958Y-1518629D01*
X+137991Y-1523762D01*
X+127000Y-1524000D01*
X-88900Y-1092200D02*
X-88900Y-1447800D01*
X+410980Y-1270000D02*
X+410062Y-1247186D01*
X+402609Y-1201557D01*
X+387062Y-1155928D01*
X+361820Y-1110299D01*
X+323278Y-1064769D01*
X+277649Y-1029273D01*
X+232020Y-1006153D01*
X+186391Y-992300D01*
X+140762Y-986354D01*
X+127000Y-986020D01*
X-156980Y-1270000D02*
X-156062Y-1247186D01*
X-148609Y-1201557D01*
X-133062Y-1155928D01*
X-107820Y-1110299D01*
X-69278Y-1064769D01*
X-23649Y-1029273D01*
X+21980Y-1006153D01*
X+67609Y-992300D01*
X+113238Y-986354D01*
X+127000Y-986020D01*
X-156980Y-1270000D02*
X-156062Y-1292814D01*
X-148609Y-1338443D01*
X-133062Y-1384072D01*
X-107820Y-1429701D01*
X-69278Y-1475231D01*
X-23649Y-1510727D01*
X+21980Y-1533847D01*
X+67609Y-1547700D01*
X+113238Y-1553646D01*
X+127000Y-1553980D01*
X+410980Y-1270000D02*
X+410062Y-1292814D01*
X+402609Y-1338443D01*
X+387062Y-1384072D01*
X+361820Y-1429701D01*
X+323278Y-1475231D01*
X+277649Y-1510727D01*
X+232020Y-1533847D01*
X+186391Y-1547700D01*
X+140762Y-1553646D01*
X+127000Y-1553980D01*
X-12700Y-1447800D02*
X-12700Y-1371600D01*
X-12700Y-1422400D02*
X+25400Y-1371600D01*
X+0Y-1409700D02*
X+25400Y-1447800D01*
X+1143000Y+2540000D02*
X+1142173Y+2560483D01*
X+1135455Y+2601450D01*
X+1121437Y+2642417D01*
X+1098659Y+2683384D01*
X+1063859Y+2724229D01*
X+1022892Y+2755845D01*
X+981925Y+2776392D01*
X+940958Y+2788629D01*
X+899991Y+2793762D01*
X+889000Y+2794000D01*
X+635000Y+2540000D02*
X+635827Y+2560483D01*
X+642545Y+2601450D01*
X+656563Y+2642417D01*
X+679341Y+2683384D01*
X+714141Y+2724229D01*
X+755108Y+2755845D01*
X+796075Y+2776392D01*
X+837042Y+2788629D01*
X+878009Y+2793762D01*
X+889000Y+2794000D01*
X+635000Y+2540000D02*
X+635827Y+2519517D01*
X+642545Y+2478550D01*
X+656563Y+2437583D01*
X+679341Y+2396616D01*
X+714141Y+2355771D01*
X+755108Y+2324155D01*
X+796075Y+2303608D01*
X+837042Y+2291371D01*
X+878009Y+2286238D01*
X+889000Y+2286000D01*
X+1143000Y+2540000D02*
X+1142173Y+2519517D01*
X+1135455Y+2478550D01*
X+1121437Y+2437583D01*
X+1098659Y+2396616D01*
X+1063859Y+2355771D01*
X+1022892Y+2324155D01*
X+981925Y+2303608D01*
X+940958Y+2291371D01*
X+899991Y+2286238D01*
X+889000Y+2286000D01*
X+673100Y+2717800D02*
X+673100Y+2362200D01*
X+1172980Y+2540000D02*
X+1172062Y+2562814D01*
X+1164609Y+2608443D01*
X+1149062Y+2654072D01*
X+1123820Y+2699701D01*
X+1085278Y+2745231D01*
X+1039649Y+2780727D01*
X+994020Y+2803847D01*
X+948391Y+2817700D01*
X+902762Y+2823646D01*
X+889000Y+2823980D01*
X+605020Y+2540000D02*
X+605938Y+2562814D01*
X+613391Y+2608443D01*
X+628938Y+2654072D01*
X+654180Y+2699701D01*
X+692722Y+2745231D01*
X+738351Y+2780727D01*
X+783980Y+2803847D01*
X+829609Y+2817700D01*
X+875238Y+2823646D01*
X+889000Y+2823980D01*
X+605020Y+2540000D02*
X+605938Y+2517186D01*
X+613391Y+2471557D01*
X+628938Y+2425928D01*
X+654180Y+2380299D01*
X+692722Y+2334769D01*
X+738351Y+2299273D01*
X+783980Y+2276153D01*
X+829609Y+2262300D01*
X+875238Y+2256354D01*
X+889000Y+2256020D01*
X+1172980Y+2540000D02*
X+1172062Y+2517186D01*
X+1164609Y+2471557D01*
X+1149062Y+2425928D01*
X+1123820Y+2380299D01*
X+1085278Y+2334769D01*
X+1039649Y+2299273D01*
X+994020Y+2276153D01*
X+948391Y+2262300D01*
X+902762Y+2256354D01*
X+889000Y+2256020D01*
X+749300Y+2362200D02*
X+749300Y+2438400D01*
X+749300Y+2387600D02*
X+787400Y+2438400D01*
X+762000Y+2400300D02*
X+787400Y+2362200D01*
X+1143000Y+1778000D02*
X+1142173Y+1798483D01*
X+1135455Y+1839450D01*
X+1121437Y+1880417D01*
X+1098659Y+1921384D01*
X+1063859Y+1962229D01*
X+1022892Y+1993845D01*
X+981925Y+2014392D01*
X+940958Y+2026629D01*
X+899991Y+2031762D01*
X+889000Y+2032000D01*
X+635000Y+1778000D02*
X+635827Y+1798483D01*
X+642545Y+1839450D01*
X+656563Y+1880417D01*
X+679341Y+1921384D01*
X+714141Y+1962229D01*
X+755108Y+1993845D01*
X+796075Y+2014392D01*
X+837042Y+2026629D01*
X+878009Y+2031762D01*
X+889000Y+2032000D01*
X+635000Y+1778000D02*
X+635827Y+1757517D01*
X+642545Y+1716550D01*
X+656563Y+1675583D01*
X+679341Y+1634616D01*
X+714141Y+1593771D01*
X+755108Y+1562155D01*
X+796075Y+1541608D01*
X+837042Y+1529371D01*
X+878009Y+1524238D01*
X+889000Y+1524000D01*
X+1143000Y+1778000D02*
X+1142173Y+1757517D01*
X+1135455Y+1716550D01*
X+1121437Y+1675583D01*
X+1098659Y+1634616D01*
X+1063859Y+1593771D01*
X+1022892Y+1562155D01*
X+981925Y+1541608D01*
X+940958Y+1529371D01*
X+899991Y+1524238D01*
X+889000Y+1524000D01*
X+673100Y+1955800D02*
X+673100Y+1600200D01*
X+1172980Y+1778000D02*
X+1172062Y+1800814D01*
X+1164609Y+1846443D01*
X+1149062Y+1892072D01*
X+1123820Y+1937701D01*
X+1085278Y+1983231D01*
X+1039649Y+2018727D01*
X+994020Y+2041847D01*
X+948391Y+2055700D01*
X+902762Y+2061646D01*
X+889000Y+2061980D01*
X+605020Y+1778000D02*
X+605938Y+1800814D01*
X+613391Y+1846443D01*
X+628938Y+1892072D01*
X+654180Y+1937701D01*
X+692722Y+1983231D01*
X+738351Y+2018727D01*
X+783980Y+2041847D01*
X+829609Y+2055700D01*
X+875238Y+2061646D01*
X+889000Y+2061980D01*
X+605020Y+1778000D02*
X+605938Y+1755186D01*
X+613391Y+1709557D01*
X+628938Y+1663928D01*
X+654180Y+1618299D01*
X+692722Y+1572769D01*
X+738351Y+1537273D01*
X+783980Y+1514153D01*
X+829609Y+1500300D01*
X+875238Y+1494354D01*
X+889000Y+1494020D01*
X+1172980Y+1778000D02*
X+1172062Y+1755186D01*
X+1164609Y+1709557D01*
X+1149062Y+1663928D01*
X+1123820Y+1618299D01*
X+1085278Y+1572769D01*
X+1039649Y+1537273D01*
X+994020Y+1514153D01*
X+948391Y+1500300D01*
X+902762Y+1494354D01*
X+889000Y+1494020D01*
X+749300Y+1600200D02*
X+749300Y+1676400D01*
X+749300Y+1625600D02*
X+787400Y+1676400D01*
X+762000Y+1638300D02*
X+787400Y+1600200D01*
X+1143000Y+1016000D02*
X+1142173Y+1036483D01*
X+1135455Y+1077450D01*
X+1121437Y+1118417D01*
X+1098659Y+1159384D01*
X+1063859Y+1200229D01*
X+1022892Y+1231845D01*
X+981925Y+1252392D01*
X+940958Y+1264629D01*
X+899991Y+1269762D01*
X+889000Y+1270000D01*
X+635000Y+1016000D02*
X+635827Y+1036483D01*
X+642545Y+1077450D01*
X+656563Y+1118417D01*
X+679341Y+1159384D01*
X+714141Y+1200229D01*
X+755108Y+1231845D01*
X+796075Y+1252392D01*
X+837042Y+1264629D01*
X+878009Y+1269762D01*
X+889000Y+1270000D01*
X+635000Y+1016000D02*
X+635827Y+995517D01*
X+642545Y+954550D01*
X+656563Y+913583D01*
X+679341Y+872616D01*
X+714141Y+831771D01*
X+755108Y+800155D01*
X+796075Y+779608D01*
X+837042Y+767371D01*
X+878009Y+762238D01*
X+889000Y+762000D01*
X+1143000Y+1016000D02*
X+1142173Y+995517D01*
X+1135455Y+954550D01*
X+1121437Y+913583D01*
X+1098659Y+872616D01*
X+1063859Y+831771D01*
X+1022892Y+800155D01*
X+981925Y+779608D01*
X+940958Y+767371D01*
X+899991Y+762238D01*
X+889000Y+762000D01*
X+673100Y+1193800D02*
X+673100Y+838200D01*
X+1172980Y+1016000D02*
X+1172062Y+1038814D01*
X+1164609Y+1084443D01*
X+1149062Y+1130072D01*
X+1123820Y+1175701D01*
X+1085278Y+1221231D01*
X+1039649Y+1256727D01*
X+994020Y+1279847D01*
X+948391Y+1293700D01*
X+902762Y+1299646D01*
X+889000Y+1299980D01*
X+605020Y+1016000D02*
X+605938Y+1038814D01*
X+613391Y+1084443D01*
X+628938Y+1130072D01*
X+654180Y+1175701D01*
X+692722Y+1221231D01*
X+738351Y+1256727D01*
X+783980Y+1279847D01*
X+829609Y+1293700D01*
X+875238Y+1299646D01*
X+889000Y+1299980D01*
X+605020Y+1016000D02*
X+605938Y+993186D01*
X+613391Y+947557D01*
X+628938Y+901928D01*
X+654180Y+856299D01*
X+692722Y+810769D01*
X+738351Y+775273D01*
X+783980Y+752153D01*
X+829609Y+738300D01*
X+875238Y+732354D01*
X+889000Y+732020D01*
X+1172980Y+1016000D02*
X+1172062Y+993186D01*
X+1164609Y+947557D01*
X+1149062Y+901928D01*
X+1123820Y+856299D01*
X+1085278Y+810769D01*
X+1039649Y+775273D01*
X+994020Y+752153D01*
X+948391Y+738300D01*
X+902762Y+732354D01*
X+889000Y+732020D01*
X+749300Y+838200D02*
X+749300Y+914400D01*
X+749300Y+863600D02*
X+787400Y+914400D01*
X+762000Y+876300D02*
X+787400Y+838200D01*
X+1143000Y+254000D02*
X+1142173Y+274483D01*
X+1135455Y+315450D01*
X+1121437Y+356417D01*
X+1098659Y+397384D01*
X+1063859Y+438229D01*
X+1022892Y+469845D01*
X+981925Y+490392D01*
X+940958Y+502629D01*
X+899991Y+507762D01*
X+889000Y+508000D01*
X+635000Y+254000D02*
X+635827Y+274483D01*
X+642545Y+315450D01*
X+656563Y+356417D01*
X+679341Y+397384D01*
X+714141Y+438229D01*
X+755108Y+469845D01*
X+796075Y+490392D01*
X+837042Y+502629D01*
X+878009Y+507762D01*
X+889000Y+508000D01*
X+635000Y+254000D02*
X+635827Y+233517D01*
X+642545Y+192550D01*
X+656563Y+151583D01*
X+679341Y+110616D01*
X+714141Y+69771D01*
X+755108Y+38155D01*
X+796075Y+17608D01*
X+837042Y+5371D01*
X+878009Y+238D01*
X+889000Y+0D01*
X+1143000Y+254000D02*
X+1142173Y+233517D01*
X+1135455Y+192550D01*
X+1121437Y+151583D01*
X+1098659Y+110616D01*
X+1063859Y+69771D01*
X+1022892Y+38155D01*
X+981925Y+17608D01*
X+940958Y+5371D01*
X+899991Y+238D01*
X+889000Y+0D01*
X+673100Y+431800D02*
X+673100Y+76200D01*
X+1172980Y+254000D02*
X+1172062Y+276814D01*
X+1164609Y+322443D01*
X+1149062Y+368072D01*
X+1123820Y+413701D01*
X+1085278Y+459231D01*
X+1039649Y+494727D01*
X+994020Y+517847D01*
X+948391Y+531700D01*
X+902762Y+537646D01*
X+889000Y+537980D01*
X+605020Y+254000D02*
X+605938Y+276814D01*
X+613391Y+322443D01*
X+628938Y+368072D01*
X+654180Y+413701D01*
X+692722Y+459231D01*
X+738351Y+494727D01*
X+783980Y+517847D01*
X+829609Y+531700D01*
X+875238Y+537646D01*
X+889000Y+537980D01*
X+605020Y+254000D02*
X+605938Y+231186D01*
X+613391Y+185557D01*
X+628938Y+139928D01*
X+654180Y+94299D01*
X+692722Y+48769D01*
X+738351Y+13273D01*
X+783980Y-9847D01*
X+829609Y-23700D01*
X+875238Y-29646D01*
X+889000Y-29980D01*
X+1172980Y+254000D02*
X+1172062Y+231186D01*
X+1164609Y+185557D01*
X+1149062Y+139928D01*
X+1123820Y+94299D01*
X+1085278Y+48769D01*
X+1039649Y+13273D01*
X+994020Y-9847D01*
X+948391Y-23700D01*
X+902762Y-29646D01*
X+889000Y-29980D01*
X+749300Y+76200D02*
X+749300Y+152400D01*
X+749300Y+101600D02*
X+787400Y+152400D01*
X+762000Y+114300D02*
X+787400Y+76200D01*
X+1143000Y-508000D02*
X+1142173Y-487517D01*
X+1135455Y-446550D01*
X+1121437Y-405583D01*
X+1098659Y-364616D01*
X+1063859Y-323771D01*
X+1022892Y-292155D01*
X+981925Y-271608D01*
X+940958Y-259371D01*
X+899991Y-254238D01*
X+889000Y-254000D01*
X+635000Y-508000D02*
X+635827Y-487517D01*
X+642545Y-446550D01*
X+656563Y-405583D01*
X+679341Y-364616D01*
X+714141Y-323771D01*
X+755108Y-292155D01*
X+796075Y-271608D01*
X+837042Y-259371D01*
X+878009Y-254238D01*
X+889000Y-254000D01*
X+635000Y-508000D02*
X+635827Y-528483D01*
X+642545Y-569450D01*
X+656563Y-610417D01*
X+679341Y-651384D01*
X+714141Y-692229D01*
X+755108Y-723845D01*
X+796075Y-744392D01*
X+837042Y-756629D01*
X+878009Y-761762D01*
X+889000Y-762000D01*
X+1143000Y-508000D02*
X+1142173Y-528483D01*
X+1135455Y-569450D01*
X+1121437Y-610417D01*
X+1098659Y-651384D01*
X+1063859Y-692229D01*
X+1022892Y-723845D01*
X+981925Y-744392D01*
X+940958Y-756629D01*
X+899991Y-761762D01*
X+889000Y-762000D01*
X+673100Y-330200D02*
X+673100Y-685800D01*
X+1172980Y-508000D02*
X+1172062Y-485186D01*
X+1164609Y-439557D01*
X+1149062Y-393928D01*
X+1123820Y-348299D01*
X+1085278Y-302769D01*
X+1039649Y-267273D01*
X+994020Y-244153D01*
X+948391Y-230300D01*
X+902762Y-224354D01*
X+889000Y-224020D01*
X+605020Y-508000D02*
X+605938Y-485186D01*
X+613391Y-439557D01*
X+628938Y-393928D01*
X+654180Y-348299D01*
X+692722Y-302769D01*
X+738351Y-267273D01*
X+783980Y-244153D01*
X+829609Y-230300D01*
X+875238Y-224354D01*
X+889000Y-224020D01*
X+605020Y-508000D02*
X+605938Y-530814D01*
X+613391Y-576443D01*
X+628938Y-622072D01*
X+654180Y-667701D01*
X+692722Y-713231D01*
X+738351Y-748727D01*
X+783980Y-771847D01*
X+829609Y-785700D01*
X+875238Y-791646D01*
X+889000Y-791980D01*
X+1172980Y-508000D02*
X+1172062Y-530814D01*
X+1164609Y-576443D01*
X+1149062Y-622072D01*
X+1123820Y-667701D01*
X+1085278Y-713231D01*
X+1039649Y-748727D01*
X+994020Y-771847D01*
X+948391Y-785700D01*
X+902762Y-791646D01*
X+889000Y-791980D01*
X+749300Y-685800D02*
X+749300Y-609600D01*
X+749300Y-660400D02*
X+787400Y-609600D01*
X+762000Y-647700D02*
X+787400Y-685800D01*
X+1143000Y-1270000D02*
X+1142173Y-1249517D01*
X+1135455Y-1208550D01*
X+1121437Y-1167583D01*
X+1098659Y-1126616D01*
X+1063859Y-1085771D01*
X+1022892Y-1054155D01*
X+981925Y-1033608D01*
X+940958Y-1021371D01*
X+899991Y-1016238D01*
X+889000Y-1016000D01*
X+635000Y-1270000D02*
X+635827Y-1249517D01*
X+642545Y-1208550D01*
X+656563Y-1167583D01*
X+679341Y-1126616D01*
X+714141Y-1085771D01*
X+755108Y-1054155D01*
X+796075Y-1033608D01*
X+837042Y-1021371D01*
X+878009Y-1016238D01*
X+889000Y-1016000D01*
X+635000Y-1270000D02*
X+635827Y-1290483D01*
X+642545Y-1331450D01*
X+656563Y-1372417D01*
X+679341Y-1413384D01*
X+714141Y-1454229D01*
X+755108Y-1485845D01*
X+796075Y-1506392D01*
X+837042Y-1518629D01*
X+878009Y-1523762D01*
X+889000Y-1524000D01*
X+1143000Y-1270000D02*
X+1142173Y-1290483D01*
X+1135455Y-1331450D01*
X+1121437Y-1372417D01*
X+1098659Y-1413384D01*
X+1063859Y-1454229D01*
X+1022892Y-1485845D01*
X+981925Y-1506392D01*
X+940958Y-1518629D01*
X+899991Y-1523762D01*
X+889000Y-1524000D01*
X+673100Y-1092200D02*
X+673100Y-1447800D01*
X+1172980Y-1270000D02*
X+1172062Y-1247186D01*
X+1164609Y-1201557D01*
X+1149062Y-1155928D01*
X+1123820Y-1110299D01*
X+1085278Y-1064769D01*
X+1039649Y-1029273D01*
X+994020Y-1006153D01*
X+948391Y-992300D01*
X+902762Y-986354D01*
X+889000Y-986020D01*
X+605020Y-1270000D02*
X+605938Y-1247186D01*
X+613391Y-1201557D01*
X+628938Y-1155928D01*
X+654180Y-1110299D01*
X+692722Y-1064769D01*
X+738351Y-1029273D01*
X+783980Y-1006153D01*
X+829609Y-992300D01*
X+875238Y-986354D01*
X+889000Y-986020D01*
X+605020Y-1270000D02*
X+605938Y-1292814D01*
X+613391Y-1338443D01*
X+628938Y-1384072D01*
X+654180Y-1429701D01*
X+692722Y-1475231D01*
X+738351Y-1510727D01*
X+783980Y-1533847D01*
X+829609Y-1547700D01*
X+875238Y-1553646D01*
X+889000Y-1553980D01*
X+1172980Y-1270000D02*
X+1172062Y-1292814D01*
X+1164609Y-1338443D01*
X+1149062Y-1384072D01*
X+1123820Y-1429701D01*
X+1085278Y-1475231D01*
X+1039649Y-1510727D01*
X+994020Y-1533847D01*
X+948391Y-1547700D01*
X+902762Y-1553646D01*
X+889000Y-1553980D01*
X+749300Y-1447800D02*
X+749300Y-1371600D01*
X+749300Y-1422400D02*
X+787400Y-1371600D01*
X+762000Y-1409700D02*
X+787400Y-1447800D01*
X+1905000Y+2540000D02*
X+1904173Y+2560483D01*
X+1897455Y+2601450D01*
X+1883437Y+2642417D01*
X+1860659Y+2683384D01*
X+1825859Y+2724229D01*
X+1784892Y+2755845D01*
X+1743925Y+2776392D01*
X+1702958Y+2788629D01*
X+1661991Y+2793762D01*
X+1651000Y+2794000D01*
X+1397000Y+2540000D02*
X+1397827Y+2560483D01*
X+1404545Y+2601450D01*
X+1418563Y+2642417D01*
X+1441341Y+2683384D01*
X+1476141Y+2724229D01*
X+1517108Y+2755845D01*
X+1558075Y+2776392D01*
X+1599042Y+2788629D01*
X+1640009Y+2793762D01*
X+1651000Y+2794000D01*
X+1397000Y+2540000D02*
X+1397827Y+2519517D01*
X+1404545Y+2478550D01*
X+1418563Y+2437583D01*
X+1441341Y+2396616D01*
X+1476141Y+2355771D01*
X+1517108Y+2324155D01*
X+1558075Y+2303608D01*
X+1599042Y+2291371D01*
X+1640009Y+2286238D01*
X+1651000Y+2286000D01*
X+1905000Y+2540000D02*
X+1904173Y+2519517D01*
X+1897455Y+2478550D01*
X+1883437Y+2437583D01*
X+1860659Y+2396616D01*
X+1825859Y+2355771D01*
X+1784892Y+2324155D01*
X+1743925Y+2303608D01*
X+1702958Y+2291371D01*
X+1661991Y+2286238D01*
X+1651000Y+2286000D01*
X+1435100Y+2717800D02*
X+1435100Y+2362200D01*
X+1934980Y+2540000D02*
X+1934062Y+2562814D01*
X+1926609Y+2608443D01*
X+1911062Y+2654072D01*
X+1885820Y+2699701D01*
X+1847278Y+2745231D01*
X+1801649Y+2780727D01*
X+1756020Y+2803847D01*
X+1710391Y+2817700D01*
X+1664762Y+2823646D01*
X+1651000Y+2823980D01*
X+1367020Y+2540000D02*
X+1367938Y+2562814D01*
X+1375391Y+2608443D01*
X+1390938Y+2654072D01*
X+1416180Y+2699701D01*
X+1454722Y+2745231D01*
X+1500351Y+2780727D01*
X+1545980Y+2803847D01*
X+1591609Y+2817700D01*
X+1637238Y+2823646D01*
X+1651000Y+2823980D01*
X+1367020Y+2540000D02*
X+1367938Y+2517186D01*
X+1375391Y+2471557D01*
X+1390938Y+2425928D01*
X+1416180Y+2380299D01*
X+1454722Y+2334769D01*
X+1500351Y+2299273D01*
X+1545980Y+2276153D01*
X+1591609Y+2262300D01*
X+1637238Y+2256354D01*
X+1651000Y+2256020D01*
X+1934980Y+2540000D02*
X+1934062Y+2517186D01*
X+1926609Y+2471557D01*
X+1911062Y+2425928D01*
X+1885820Y+2380299D01*
X+1847278Y+2334769D01*
X+1801649Y+2299273D01*
X+1756020Y+2276153D01*
X+1710391Y+2262300D01*
X+1664762Y+2256354D01*
X+1651000Y+2256020D01*
X+1511300Y+2362200D02*
X+1511300Y+2438400D01*
X+1511300Y+2387600D02*
X+1549400Y+2438400D01*
X+1524000Y+2400300D02*
X+1549400Y+2362200D01*
X+1905000Y+1778000D02*
X+1904173Y+1798483D01*
X+1897455Y+1839450D01*
X+1883437Y+1880417D01*
X+1860659Y+1921384D01*
X+1825859Y+1962229D01*
X+1784892Y+1993845D01*
X+1743925Y+2014392D01*
X+1702958Y+2026629D01*
X+1661991Y+2031762D01*
X+1651000Y+2032000D01*
X+1397000Y+1778000D02*
X+1397827Y+1798483D01*
X+1404545Y+1839450D01*
X+1418563Y+1880417D01*
X+1441341Y+1921384D01*
X+1476141Y+1962229D01*
X+1517108Y+1993845D01*
X+1558075Y+2014392D01*
X+1599042Y+2026629D01*
X+1640009Y+2031762D01*
X+1651000Y+2032000D01*
X+1397000Y+1778000D02*
X+1397827Y+1757517D01*
X+1404545Y+1716550D01*
X+1418563Y+1675583D01*
X+1441341Y+1634616D01*
X+1476141Y+1593771D01*
X+1517108Y+1562155D01*
X+1558075Y+1541608D01*
X+1599042Y+1529371D01*
X+1640009Y+1524238D01*
X+1651000Y+1524000D01*
X+1905000Y+1778000D02*
X+1904173Y+1757517D01*
X+1897455Y+1716550D01*
X+1883437Y+1675583D01*
X+1860659Y+1634616D01*
X+1825859Y+1593771D01*
X+1784892Y+1562155D01*
X+1743925Y+1541608D01*
X+1702958Y+1529371D01*
X+1661991Y+1524238D01*
X+1651000Y+1524000D01*
X+1435100Y+1955800D02*
X+1435100Y+1600200D01*
X+1934980Y+1778000D02*
X+1934062Y+1800814D01*
X+1926609Y+1846443D01*
X+1911062Y+1892072D01*
X+1885820Y+1937701D01*
X+1847278Y+1983231D01*
X+1801649Y+2018727D01*
X+1756020Y+2041847D01*
X+1710391Y+2055700D01*
X+1664762Y+2061646D01*
X+1651000Y+2061980D01*
X+1367020Y+1778000D02*
X+1367938Y+1800814D01*
X+1375391Y+1846443D01*
X+1390938Y+1892072D01*
X+1416180Y+1937701D01*
X+1454722Y+1983231D01*
X+1500351Y+2018727D01*
X+1545980Y+2041847D01*
X+1591609Y+2055700D01*
X+1637238Y+2061646D01*
X+1651000Y+2061980D01*
X+1367020Y+1778000D02*
X+1367938Y+1755186D01*
X+1375391Y+1709557D01*
X+1390938Y+1663928D01*
X+1416180Y+1618299D01*
X+1454722Y+1572769D01*
X+1500351Y+1537273D01*
X+1545980Y+1514153D01*
X+1591609Y+1500300D01*
X+1637238Y+1494354D01*
X+1651000Y+1494020D01*
X+1934980Y+1778000D02*
X+1934062Y+1755186D01*
X+1926609Y+1709557D01*
X+1911062Y+1663928D01*
X+1885820Y+1618299D01*
X+1847278Y+1572769D01*
X+1801649Y+1537273D01*
X+1756020Y+1514153D01*
X+1710391Y+1500300D01*
X+1664762Y+1494354D01*
X+1651000Y+1494020D01*
X+1511300Y+1600200D02*
X+1511300Y+1676400D01*
X+1511300Y+1625600D02*
X+1549400Y+1676400D01*
X+1524000Y+1638300D02*
X+1549400Y+1600200D01*
X+1905000Y+1016000D02*
X+1904173Y+1036483D01*
X+1897455Y+1077450D01*
X+1883437Y+1118417D01*
X+1860659Y+1159384D01*
X+1825859Y+1200229D01*
X+1784892Y+1231845D01*
X+1743925Y+1252392D01*
X+1702958Y+1264629D01*
X+1661991Y+1269762D01*
X+1651000Y+1270000D01*
X+1397000Y+1016000D02*
X+1397827Y+1036483D01*
X+1404545Y+1077450D01*
X+1418563Y+1118417D01*
X+1441341Y+1159384D01*
X+1476141Y+1200229D01*
X+1517108Y+1231845D01*
X+1558075Y+1252392D01*
X+1599042Y+1264629D01*
X+1640009Y+1269762D01*
X+1651000Y+1270000D01*
X+1397000Y+1016000D02*
X+1397827Y+995517D01*
X+1404545Y+954550D01*
X+1418563Y+913583D01*
X+1441341Y+872616D01*
X+1476141Y+831771D01*
X+1517108Y+800155D01*
X+1558075Y+779608D01*
X+1599042Y+767371D01*
X+1640009Y+762238D01*
X+1651000Y+762000D01*
X+1905000Y+1016000D02*
X+1904173Y+995517D01*
X+1897455Y+954550D01*
X+1883437Y+913583D01*
X+1860659Y+872616D01*
X+1825859Y+831771D01*
X+1784892Y+800155D01*
X+1743925Y+779608D01*
X+1702958Y+767371D01*
X+1661991Y+762238D01*
X+1651000Y+762000D01*
X+1435100Y+1193800D02*
X+1435100Y+838200D01*
X+1934980Y+1016000D02*
X+1934062Y+1038814D01*
X+1926609Y+1084443D01*
X+1911062Y+1130072D01*
X+1885820Y+1175701D01*
X+1847278Y+1221231D01*
X+1801649Y+1256727D01*
X+1756020Y+1279847D01*
X+1710391Y+1293700D01*
X+1664762Y+1299646D01*
X+1651000Y+1299980D01*
X+1367020Y+1016000D02*
X+1367938Y+1038814D01*
X+1375391Y+1084443D01*
X+1390938Y+1130072D01*
X+1416180Y+1175701D01*
X+1454722Y+1221231D01*
X+1500351Y+1256727D01*
X+1545980Y+1279847D01*
X+1591609Y+1293700D01*
X+1637238Y+1299646D01*
X+1651000Y+1299980D01*
X+1367020Y+1016000D02*
X+1367938Y+993186D01*
X+1375391Y+947557D01*
X+1390938Y+901928D01*
X+1416180Y+856299D01*
X+1454722Y+810769D01*
X+1500351Y+775273D01*
X+1545980Y+752153D01*
X+1591609Y+738300D01*
X+1637238Y+732354D01*
X+1651000Y+732020D01*
X+1934980Y+1016000D02*
X+1934062Y+993186D01*
X+1926609Y+947557D01*
X+1911062Y+901928D01*
X+1885820Y+856299D01*
X+1847278Y+810769D01*
X+1801649Y+775273D01*
X+1756020Y+752153D01*
X+1710391Y+738300D01*
X+1664762Y+732354D01*
X+1651000Y+732020D01*
X+1511300Y+838200D02*
X+1511300Y+914400D01*
X+1511300Y+863600D02*
X+1549400Y+914400D01*
X+1524000Y+876300D02*
X+1549400Y+838200D01*
X+1905000Y+254000D02*
X+1904173Y+274483D01*
X+1897455Y+315450D01*
X+1883437Y+356417D01*
X+1860659Y+397384D01*
X+1825859Y+438229D01*
X+1784892Y+469845D01*
X+1743925Y+490392D01*
X+1702958Y+502629D01*
X+1661991Y+507762D01*
X+1651000Y+508000D01*
X+1397000Y+254000D02*
X+1397827Y+274483D01*
X+1404545Y+315450D01*
X+1418563Y+356417D01*
X+1441341Y+397384D01*
X+1476141Y+438229D01*
X+1517108Y+469845D01*
X+1558075Y+490392D01*
X+1599042Y+502629D01*
X+1640009Y+507762D01*
X+1651000Y+508000D01*
X+1397000Y+254000D02*
X+1397827Y+233517D01*
X+1404545Y+192550D01*
X+1418563Y+151583D01*
X+1441341Y+110616D01*
X+1476141Y+69771D01*
X+1517108Y+38155D01*
X+1558075Y+17608D01*
X+1599042Y+5371D01*
X+1640009Y+238D01*
X+1651000Y+0D01*
X+1905000Y+254000D02*
X+1904173Y+233517D01*
X+1897455Y+192550D01*
X+1883437Y+151583D01*
X+1860659Y+110616D01*
X+1825859Y+69771D01*
X+1784892Y+38155D01*
X+1743925Y+17608D01*
X+1702958Y+5371D01*
X+1661991Y+238D01*
X+1651000Y+0D01*
X+1435100Y+431800D02*
X+1435100Y+76200D01*
X+1934980Y+254000D02*
X+1934062Y+276814D01*
X+1926609Y+322443D01*
X+1911062Y+368072D01*
X+1885820Y+413701D01*
X+1847278Y+459231D01*
X+1801649Y+494727D01*
X+1756020Y+517847D01*
X+1710391Y+531700D01*
X+1664762Y+537646D01*
X+1651000Y+537980D01*
X+1367020Y+254000D02*
X+1367938Y+276814D01*
X+1375391Y+322443D01*
X+1390938Y+368072D01*
X+1416180Y+413701D01*
X+1454722Y+459231D01*
X+1500351Y+494727D01*
X+1545980Y+517847D01*
X+1591609Y+531700D01*
X+1637238Y+537646D01*
X+1651000Y+537980D01*
X+1367020Y+254000D02*
X+1367938Y+231186D01*
X+1375391Y+185557D01*
X+1390938Y+139928D01*
X+1416180Y+94299D01*
X+1454722Y+48769D01*
X+1500351Y+13273D01*
X+1545980Y-9847D01*
X+1591609Y-23700D01*
X+1637238Y-29646D01*
X+1651000Y-29980D01*
X+1934980Y+254000D02*
X+1934062Y+231186D01*
X+1926609Y+185557D01*
X+1911062Y+139928D01*
X+1885820Y+94299D01*
X+1847278Y+48769D01*
X+1801649Y+13273D01*
X+1756020Y-9847D01*
X+1710391Y-23700D01*
X+1664762Y-29646D01*
X+1651000Y-29980D01*
X+1511300Y+76200D02*
X+1511300Y+152400D01*
X+1511300Y+101600D02*
X+1549400Y+152400D01*
X+1524000Y+114300D02*
X+1549400Y+76200D01*
X+1905000Y-508000D02*
X+1904173Y-487517D01*
X+1897455Y-446550D01*
X+1883437Y-405583D01*
X+1860659Y-364616D01*
X+1825859Y-323771D01*
X+1784892Y-292155D01*
X+1743925Y-271608D01*
X+1702958Y-259371D01*
X+1661991Y-254238D01*
X+1651000Y-254000D01*
X+1397000Y-508000D02*
X+1397827Y-487517D01*
X+1404545Y-446550D01*
X+1418563Y-405583D01*
X+1441341Y-364616D01*
X+1476141Y-323771D01*
X+1517108Y-292155D01*
X+1558075Y-271608D01*
X+1599042Y-259371D01*
X+1640009Y-254238D01*
X+1651000Y-254000D01*
X+1397000Y-508000D02*
X+1397827Y-528483D01*
X+1404545Y-569450D01*
X+1418563Y-610417D01*
X+1441341Y-651384D01*
X+1476141Y-692229D01*
X+1517108Y-723845D01*
X+1558075Y-744392D01*
X+1599042Y-756629D01*
X+1640009Y-761762D01*
X+1651000Y-762000D01*
X+1905000Y-508000D02*
X+1904173Y-528483D01*
X+1897455Y-569450D01*
X+1883437Y-610417D01*
X+1860659Y-651384D01*
X+1825859Y-692229D01*
X+1784892Y-723845D01*
X+1743925Y-744392D01*
X+1702958Y-756629D01*
X+1661991Y-761762D01*
X+1651000Y-762000D01*
X+1435100Y-330200D02*
X+1435100Y-685800D01*
X+1934980Y-508000D02*
X+1934062Y-485186D01*
X+1926609Y-439557D01*
X+1911062Y-393928D01*
X+1885820Y-348299D01*
X+1847278Y-302769D01*
X+1801649Y-267273D01*
X+1756020Y-244153D01*
X+1710391Y-230300D01*
X+1664762Y-224354D01*
X+1651000Y-224020D01*
X+1367020Y-508000D02*
X+1367938Y-485186D01*
X+1375391Y-439557D01*
X+1390938Y-393928D01*
X+1416180Y-348299D01*
X+1454722Y-302769D01*
X+1500351Y-267273D01*
X+1545980Y-244153D01*
X+1591609Y-230300D01*
X+1637238Y-224354D01*
X+1651000Y-224020D01*
X+1367020Y-508000D02*
X+1367938Y-530814D01*
X+1375391Y-576443D01*
X+1390938Y-622072D01*
X+1416180Y-667701D01*
X+1454722Y-713231D01*
X+1500351Y-748727D01*
X+1545980Y-771847D01*
X+1591609Y-785700D01*
X+1637238Y-791646D01*
X+1651000Y-791980D01*
X+1934980Y-508000D02*
X+1934062Y-530814D01*
X+1926609Y-576443D01*
X+1911062Y-622072D01*
X+1885820Y-667701D01*
X+1847278Y-713231D01*
X+1801649Y-748727D01*
X+1756020Y-771847D01*
X+1710391Y-785700D01*
X+1664762Y-791646D01*
X+1651000Y-791980D01*
X+1511300Y-685800D02*
X+1511300Y-609600D01*
X+1511300Y-660400D02*
X+1549400Y-609600D01*
X+1524000Y-647700D02*
X+1549400Y-685800D01*
X+1905000Y-1270000D02*
X+1904173Y-1249517D01*
X+1897455Y-1208550D01*
X+1883437Y-1167583D01*
X+1860659Y-1126616D01*
X+1825859Y-1085771D01*
X+1784892Y-1054155D01*
X+1743925Y-1033608D01*
X+1702958Y-1021371D01*
X+1661991Y-1016238D01*
X+1651000Y-1016000D01*
X+1397000Y-1270000D02*
X+1397827Y-1249517D01*
X+1404545Y-1208550D01*
X+1418563Y-1167583D01*
X+1441341Y-1126616D01*
X+1476141Y-1085771D01*
X+1517108Y-1054155D01*
X+1558075Y-1033608D01*
X+1599042Y-1021371D01*
X+1640009Y-1016238D01*
X+1651000Y-1016000D01*
X+1397000Y-1270000D02*
X+1397827Y-1290483D01*
X+1404545Y-1331450D01*
X+1418563Y-1372417D01*
X+1441341Y-1413384D01*
X+1476141Y-1454229D01*
X+1517108Y-1485845D01*
X+1558075Y-1506392D01*
X+1599042Y-1518629D01*
X+1640009Y-1523762D01*
X+1651000Y-1524000D01*
X+1905000Y-1270000D02*
X+1904173Y-1290483D01*
X+1897455Y-1331450D01*
X+1883437Y-1372417D01*
X+1860659Y-1413384D01*
X+1825859Y-1454229D01*
X+1784892Y-1485845D01*
X+1743925Y-1506392D01*
X+1702958Y-1518629D01*
X+1661991Y-1523762D01*
X+1651000Y-1524000D01*
X+1435100Y-1092200D02*
X+1435100Y-1447800D01*
X+1934980Y-1270000D02*
X+1934062Y-1247186D01*
X+1926609Y-1201557D01*
X+1911062Y-1155928D01*
X+1885820Y-1110299D01*
X+1847278Y-1064769D01*
X+1801649Y-1029273D01*
X+1756020Y-1006153D01*
X+1710391Y-992300D01*
X+1664762Y-986354D01*
X+1651000Y-986020D01*
X+1367020Y-1270000D02*
X+1367938Y-1247186D01*
X+1375391Y-1201557D01*
X+1390938Y-1155928D01*
X+1416180Y-1110299D01*
X+1454722Y-1064769D01*
X+1500351Y-1029273D01*
X+1545980Y-1006153D01*
X+1591609Y-992300D01*
X+1637238Y-986354D01*
X+1651000Y-986020D01*
X+1367020Y-1270000D02*
X+1367938Y-1292814D01*
X+1375391Y-1338443D01*
X+1390938Y-1384072D01*
X+1416180Y-1429701D01*
X+1454722Y-1475231D01*
X+1500351Y-1510727D01*
X+1545980Y-1533847D01*
X+1591609Y-1547700D01*
X+1637238Y-1553646D01*
X+1651000Y-1553980D01*
X+1934980Y-1270000D02*
X+1934062Y-1292814D01*
X+1926609Y-1338443D01*
X+1911062Y-1384072D01*
X+1885820Y-1429701D01*
X+1847278Y-1475231D01*
X+1801649Y-1510727D01*
X+1756020Y-1533847D01*
X+1710391Y-1547700D01*
X+1664762Y-1553646D01*
X+1651000Y-1553980D01*
X+1511300Y-1447800D02*
X+1511300Y-1371600D01*
X+1511300Y-1422400D02*
X+1549400Y-1371600D01*
X+1524000Y-1409700D02*
X+1549400Y-1447800D01*
X+2667000Y+2540000D02*
X+2666173Y+2560483D01*
X+2659455Y+2601450D01*
X+2645437Y+2642417D01*
X+2622659Y+2683384D01*
X+2587859Y+2724229D01*
X+2546892Y+2755845D01*
X+2505925Y+2776392D01*
X+2464958Y+2788629D01*
X+2423991Y+2793762D01*
X+2413000Y+2794000D01*
X+2159000Y+2540000D02*
X+2159827Y+2560483D01*
X+2166545Y+2601450D01*
X+2180563Y+2642417D01*
X+2203341Y+2683384D01*
X+2238141Y+2724229D01*
X+2279108Y+2755845D01*
X+2320075Y+2776392D01*
X+2361042Y+2788629D01*
X+2402009Y+2793762D01*
X+2413000Y+2794000D01*
X+2159000Y+2540000D02*
X+2159827Y+2519517D01*
X+2166545Y+2478550D01*
X+2180563Y+2437583D01*
X+2203341Y+2396616D01*
X+2238141Y+2355771D01*
X+2279108Y+2324155D01*
X+2320075Y+2303608D01*
X+2361042Y+2291371D01*
X+2402009Y+2286238D01*
X+2413000Y+2286000D01*
X+2667000Y+2540000D02*
X+2666173Y+2519517D01*
X+2659455Y+2478550D01*
X+2645437Y+2437583D01*
X+2622659Y+2396616D01*
X+2587859Y+2355771D01*
X+2546892Y+2324155D01*
X+2505925Y+2303608D01*
X+2464958Y+2291371D01*
X+2423991Y+2286238D01*
X+2413000Y+2286000D01*
X+2197100Y+2717800D02*
X+2197100Y+2362200D01*
X+2696980Y+2540000D02*
X+2696062Y+2562814D01*
X+2688609Y+2608443D01*
X+2673062Y+2654072D01*
X+2647820Y+2699701D01*
X+2609278Y+2745231D01*
X+2563649Y+2780727D01*
X+2518020Y+2803847D01*
X+2472391Y+2817700D01*
X+2426762Y+2823646D01*
X+2413000Y+2823980D01*
X+2129020Y+2540000D02*
X+2129938Y+2562814D01*
X+2137391Y+2608443D01*
X+2152938Y+2654072D01*
X+2178180Y+2699701D01*
X+2216722Y+2745231D01*
X+2262351Y+2780727D01*
X+2307980Y+2803847D01*
X+2353609Y+2817700D01*
X+2399238Y+2823646D01*
X+2413000Y+2823980D01*
X+2129020Y+2540000D02*
X+2129938Y+2517186D01*
X+2137391Y+2471557D01*
X+2152938Y+2425928D01*
X+2178180Y+2380299D01*
X+2216722Y+2334769D01*
X+2262351Y+2299273D01*
X+2307980Y+2276153D01*
X+2353609Y+2262300D01*
X+2399238Y+2256354D01*
X+2413000Y+2256020D01*
X+2696980Y+2540000D02*
X+2696062Y+2517186D01*
X+2688609Y+2471557D01*
X+2673062Y+2425928D01*
X+2647820Y+2380299D01*
X+2609278Y+2334769D01*
X+2563649Y+2299273D01*
X+2518020Y+2276153D01*
X+2472391Y+2262300D01*
X+2426762Y+2256354D01*
X+2413000Y+2256020D01*
X+2273300Y+2362200D02*
X+2273300Y+2438400D01*
X+2273300Y+2387600D02*
X+2311400Y+2438400D01*
X+2286000Y+2400300D02*
X+2311400Y+2362200D01*
X+2667000Y+1778000D02*
X+2666173Y+1798483D01*
X+2659455Y+1839450D01*
X+2645437Y+1880417D01*
X+2622659Y+1921384D01*
X+2587859Y+1962229D01*
X+2546892Y+1993845D01*
X+2505925Y+2014392D01*
X+2464958Y+2026629D01*
X+2423991Y+2031762D01*
X+2413000Y+2032000D01*
X+2159000Y+1778000D02*
X+2159827Y+1798483D01*
X+2166545Y+1839450D01*
X+2180563Y+1880417D01*
X+2203341Y+1921384D01*
X+2238141Y+1962229D01*
X+2279108Y+1993845D01*
X+2320075Y+2014392D01*
X+2361042Y+2026629D01*
X+2402009Y+2031762D01*
X+2413000Y+2032000D01*
X+2159000Y+1778000D02*
X+2159827Y+1757517D01*
X+2166545Y+1716550D01*
X+2180563Y+1675583D01*
X+2203341Y+1634616D01*
X+2238141Y+1593771D01*
X+2279108Y+1562155D01*
X+2320075Y+1541608D01*
X+2361042Y+1529371D01*
X+2402009Y+1524238D01*
X+2413000Y+1524000D01*
X+2667000Y+1778000D02*
X+2666173Y+1757517D01*
X+2659455Y+1716550D01*
X+2645437Y+1675583D01*
X+2622659Y+1634616D01*
X+2587859Y+1593771D01*
X+2546892Y+1562155D01*
X+2505925Y+1541608D01*
X+2464958Y+1529371D01*
X+2423991Y+1524238D01*
X+2413000Y+1524000D01*
X+2197100Y+1955800D02*
X+2197100Y+1600200D01*
X+2696980Y+1778000D02*
X+2696062Y+1800814D01*
X+2688609Y+1846443D01*
X+2673062Y+1892072D01*
X+2647820Y+1937701D01*
X+2609278Y+1983231D01*
X+2563649Y+2018727D01*
X+2518020Y+2041847D01*
X+2472391Y+2055700D01*
X+2426762Y+2061646D01*
X+2413000Y+2061980D01*
X+2129020Y+1778000D02*
X+2129938Y+1800814D01*
X+2137391Y+1846443D01*
X+2152938Y+1892072D01*
X+2178180Y+1937701D01*
X+2216722Y+1983231D01*
X+2262351Y+2018727D01*
X+2307980Y+2041847D01*
X+2353609Y+2055700D01*
X+2399238Y+2061646D01*
X+2413000Y+2061980D01*
X+2129020Y+1778000D02*
X+2129938Y+1755186D01*
X+2137391Y+1709557D01*
X+2152938Y+1663928D01*
X+2178180Y+1618299D01*
X+2216722Y+1572769D01*
X+2262351Y+1537273D01*
X+2307980Y+1514153D01*
X+2353609Y+1500300D01*
X+2399238Y+1494354D01*
X+2413000Y+1494020D01*
X+2696980Y+1778000D02*
X+2696062Y+1755186D01*
X+2688609Y+1709557D01*
X+2673062Y+1663928D01*
X+2647820Y+1618299D01*
X+2609278Y+1572769D01*
X+2563649Y+1537273D01*
X+2518020Y+1514153D01*
X+2472391Y+1500300D01*
X+2426762Y+1494354D01*
X+2413000Y+1494020D01*
X+2273300Y+1600200D02*
X+2273300Y+1676400D01*
X+2273300Y+1625600D02*
X+2311400Y+1676400D01*
X+2286000Y+1638300D02*
X+2311400Y+1600200D01*
X+2667000Y+1016000D02*
X+2666173Y+1036483D01*
X+2659455Y+1077450D01*
X+2645437Y+1118417D01*
X+2622659Y+1159384D01*
X+2587859Y+1200229D01*
X+2546892Y+1231845D01*
X+2505925Y+1252392D01*
X+2464958Y+1264629D01*
X+2423991Y+1269762D01*
X+2413000Y+1270000D01*
X+2159000Y+1016000D02*
X+2159827Y+1036483D01*
X+2166545Y+1077450D01*
X+2180563Y+1118417D01*
X+2203341Y+1159384D01*
X+2238141Y+1200229D01*
X+2279108Y+1231845D01*
X+2320075Y+1252392D01*
X+2361042Y+1264629D01*
X+2402009Y+1269762D01*
X+2413000Y+1270000D01*
X+2159000Y+1016000D02*
X+2159827Y+995517D01*
X+2166545Y+954550D01*
X+2180563Y+913583D01*
X+2203341Y+872616D01*
X+2238141Y+831771D01*
X+2279108Y+800155D01*
X+2320075Y+779608D01*
X+2361042Y+767371D01*
X+2402009Y+762238D01*
X+2413000Y+762000D01*
X+2667000Y+1016000D02*
X+2666173Y+995517D01*
X+2659455Y+954550D01*
X+2645437Y+913583D01*
X+2622659Y+872616D01*
X+2587859Y+831771D01*
X+2546892Y+800155D01*
X+2505925Y+779608D01*
X+2464958Y+767371D01*
X+2423991Y+762238D01*
X+2413000Y+762000D01*
X+2197100Y+1193800D02*
X+2197100Y+838200D01*
X+2696980Y+1016000D02*
X+2696062Y+1038814D01*
X+2688609Y+1084443D01*
X+2673062Y+1130072D01*
X+2647820Y+1175701D01*
X+2609278Y+1221231D01*
X+2563649Y+1256727D01*
X+2518020Y+1279847D01*
X+2472391Y+1293700D01*
X+2426762Y+1299646D01*
X+2413000Y+1299980D01*
X+2129020Y+1016000D02*
X+2129938Y+1038814D01*
X+2137391Y+1084443D01*
X+2152938Y+1130072D01*
X+2178180Y+1175701D01*
X+2216722Y+1221231D01*
X+2262351Y+1256727D01*
X+2307980Y+1279847D01*
X+2353609Y+1293700D01*
X+2399238Y+1299646D01*
X+2413000Y+1299980D01*
X+2129020Y+1016000D02*
X+2129938Y+993186D01*
X+2137391Y+947557D01*
X+2152938Y+901928D01*
X+2178180Y+856299D01*
X+2216722Y+810769D01*
X+2262351Y+775273D01*
X+2307980Y+752153D01*
X+2353609Y+738300D01*
X+2399238Y+732354D01*
X+2413000Y+732020D01*
X+2696980Y+1016000D02*
X+2696062Y+993186D01*
X+2688609Y+947557D01*
X+2673062Y+901928D01*
X+2647820Y+856299D01*
X+2609278Y+810769D01*
X+2563649Y+775273D01*
X+2518020Y+752153D01*
X+2472391Y+738300D01*
X+2426762Y+732354D01*
X+2413000Y+732020D01*
X+2273300Y+838200D02*
X+2273300Y+914400D01*
X+2273300Y+863600D02*
X+2311400Y+914400D01*
X+2286000Y+876300D02*
X+2311400Y+838200D01*
X+2667000Y+254000D02*
X+2666173Y+274483D01*
X+2659455Y+315450D01*
X+2645437Y+356417D01*
X+2622659Y+397384D01*
X+2587859Y+438229D01*
X+2546892Y+469845D01*
X+2505925Y+490392D01*
X+2464958Y+502629D01*
X+2423991Y+507762D01*
X+2413000Y+508000D01*
X+2159000Y+254000D02*
X+2159827Y+274483D01*
X+2166545Y+315450D01*
X+2180563Y+356417D01*
X+2203341Y+397384D01*
X+2238141Y+438229D01*
X+2279108Y+469845D01*
X+2320075Y+490392D01*
X+2361042Y+502629D01*
X+2402009Y+507762D01*
X+2413000Y+508000D01*
X+2159000Y+254000D02*
X+2159827Y+233517D01*
X+2166545Y+192550D01*
X+2180563Y+151583D01*
X+2203341Y+110616D01*
X+2238141Y+69771D01*
X+2279108Y+38155D01*
X+2320075Y+17608D01*
X+2361042Y+5371D01*
X+2402009Y+238D01*
X+2413000Y+0D01*
X+2667000Y+254000D02*
X+2666173Y+233517D01*
X+2659455Y+192550D01*
X+2645437Y+151583D01*
X+2622659Y+110616D01*
X+2587859Y+69771D01*
X+2546892Y+38155D01*
X+2505925Y+17608D01*
X+2464958Y+5371D01*
X+2423991Y+238D01*
X+2413000Y+0D01*
X+2197100Y+431800D02*
X+2197100Y+76200D01*
X+2696980Y+254000D02*
X+2696062Y+276814D01*
X+2688609Y+322443D01*
X+2673062Y+368072D01*
X+2647820Y+413701D01*
X+2609278Y+459231D01*
X+2563649Y+494727D01*
X+2518020Y+517847D01*
X+2472391Y+531700D01*
X+2426762Y+537646D01*
X+2413000Y+537980D01*
X+2129020Y+254000D02*
X+2129938Y+276814D01*
X+2137391Y+322443D01*
X+2152938Y+368072D01*
X+2178180Y+413701D01*
X+2216722Y+459231D01*
X+2262351Y+494727D01*
X+2307980Y+517847D01*
X+2353609Y+531700D01*
X+2399238Y+537646D01*
X+2413000Y+537980D01*
X+2129020Y+254000D02*
X+2129938Y+231186D01*
X+2137391Y+185557D01*
X+2152938Y+139928D01*
X+2178180Y+94299D01*
X+2216722Y+48769D01*
X+2262351Y+13273D01*
X+2307980Y-9847D01*
X+2353609Y-23700D01*
X+2399238Y-29646D01*
X+2413000Y-29980D01*
X+2696980Y+254000D02*
X+2696062Y+231186D01*
X+2688609Y+185557D01*
X+2673062Y+139928D01*
X+2647820Y+94299D01*
X+2609278Y+48769D01*
X+2563649Y+13273D01*
X+2518020Y-9847D01*
X+2472391Y-23700D01*
X+2426762Y-29646D01*
X+2413000Y-29980D01*
X+2273300Y+76200D02*
X+2273300Y+152400D01*
X+2273300Y+101600D02*
X+2311400Y+152400D01*
X+2286000Y+114300D02*
X+2311400Y+76200D01*
X+2667000Y-508000D02*
X+2666173Y-487517D01*
X+2659455Y-446550D01*
X+2645437Y-405583D01*
X+2622659Y-364616D01*
X+2587859Y-323771D01*
X+2546892Y-292155D01*
X+2505925Y-271608D01*
X+2464958Y-259371D01*
X+2423991Y-254238D01*
X+2413000Y-254000D01*
X+2159000Y-508000D02*
X+2159827Y-487517D01*
X+2166545Y-446550D01*
X+2180563Y-405583D01*
X+2203341Y-364616D01*
X+2238141Y-323771D01*
X+2279108Y-292155D01*
X+2320075Y-271608D01*
X+2361042Y-259371D01*
X+2402009Y-254238D01*
X+2413000Y-254000D01*
X+2159000Y-508000D02*
X+2159827Y-528483D01*
X+2166545Y-569450D01*
X+2180563Y-610417D01*
X+2203341Y-651384D01*
X+2238141Y-692229D01*
X+2279108Y-723845D01*
X+2320075Y-744392D01*
X+2361042Y-756629D01*
X+2402009Y-761762D01*
X+2413000Y-762000D01*
X+2667000Y-508000D02*
X+2666173Y-528483D01*
X+2659455Y-569450D01*
X+2645437Y-610417D01*
X+2622659Y-651384D01*
X+2587859Y-692229D01*
X+2546892Y-723845D01*
X+2505925Y-744392D01*
X+2464958Y-756629D01*
X+2423991Y-761762D01*
X+2413000Y-762000D01*
X+2197100Y-330200D02*
X+2197100Y-685800D01*
X+2696980Y-508000D02*
X+2696062Y-485186D01*
X+2688609Y-439557D01*
X+2673062Y-393928D01*
X+2647820Y-348299D01*
X+2609278Y-302769D01*
X+2563649Y-267273D01*
X+2518020Y-244153D01*
X+2472391Y-230300D01*
X+2426762Y-224354D01*
X+2413000Y-224020D01*
X+2129020Y-508000D02*
X+2129938Y-485186D01*
X+2137391Y-439557D01*
X+2152938Y-393928D01*
X+2178180Y-348299D01*
X+2216722Y-302769D01*
X+2262351Y-267273D01*
X+2307980Y-244153D01*
X+2353609Y-230300D01*
X+2399238Y-224354D01*
X+2413000Y-224020D01*
X+2129020Y-508000D02*
X+2129938Y-530814D01*
X+2137391Y-576443D01*
X+2152938Y-622072D01*
X+2178180Y-667701D01*
X+2216722Y-713231D01*
X+2262351Y-748727D01*
X+2307980Y-771847D01*
X+2353609Y-785700D01*
X+2399238Y-791646D01*
X+2413000Y-791980D01*
X+2696980Y-508000D02*
X+2696062Y-530814D01*
X+2688609Y-576443D01*
X+2673062Y-622072D01*
X+2647820Y-667701D01*
X+2609278Y-713231D01*
X+2563649Y-748727D01*
X+2518020Y-771847D01*
X+2472391Y-785700D01*
X+2426762Y-791646D01*
X+2413000Y-791980D01*
X+2273300Y-685800D02*
X+2273300Y-609600D01*
X+2273300Y-660400D02*
X+2311400Y-609600D01*
X+2286000Y-647700D02*
X+2311400Y-685800D01*
X+2667000Y-1270000D02*
X+2666173Y-1249517D01*
X+2659455Y-1208550D01*
X+2645437Y-1167583D01*
X+2622659Y-1126616D01*
X+2587859Y-1085771D01*
X+2546892Y-1054155D01*
X+2505925Y-1033608D01*
X+2464958Y-1021371D01*
X+2423991Y-1016238D01*
X+2413000Y-1016000D01*
X+2159000Y-1270000D02*
X+2159827Y-1249517D01*
X+2166545Y-1208550D01*
X+2180563Y-1167583D01*
X+2203341Y-1126616D01*
X+2238141Y-1085771D01*
X+2279108Y-1054155D01*
X+2320075Y-1033608D01*
X+2361042Y-1021371D01*
X+2402009Y-1016238D01*
X+2413000Y-1016000D01*
X+2159000Y-1270000D02*
X+2159827Y-1290483D01*
X+2166545Y-1331450D01*
X+2180563Y-1372417D01*
X+2203341Y-1413384D01*
X+2238141Y-1454229D01*
X+2279108Y-1485845D01*
X+2320075Y-1506392D01*
X+2361042Y-1518629D01*
X+2402009Y-1523762D01*
X+2413000Y-1524000D01*
X+2667000Y-1270000D02*
X+2666173Y-1290483D01*
X+2659455Y-1331450D01*
X+2645437Y-1372417D01*
X+2622659Y-1413384D01*
X+2587859Y-1454229D01*
X+2546892Y-1485845D01*
X+2505925Y-1506392D01*
X+2464958Y-1518629D01*
X+2423991Y-1523762D01*
X+2413000Y-1524000D01*
X+2197100Y-1092200D02*
X+2197100Y-1447800D01*
X+2696980Y-1270000D02*
X+2696062Y-1247186D01*
X+2688609Y-1201557D01*
X+2673062Y-1155928D01*
X+2647820Y-1110299D01*
X+2609278Y-1064769D01*
X+2563649Y-1029273D01*
X+2518020Y-1006153D01*
X+2472391Y-992300D01*
X+2426762Y-986354D01*
X+2413000Y-986020D01*
X+2129020Y-1270000D02*
X+2129938Y-1247186D01*
X+2137391Y-1201557D01*
X+2152938Y-1155928D01*
X+2178180Y-1110299D01*
X+2216722Y-1064769D01*
X+2262351Y-1029273D01*
X+2307980Y-1006153D01*
X+2353609Y-992300D01*
X+2399238Y-986354D01*
X+2413000Y-986020D01*
X+2129020Y-1270000D02*
X+2129938Y-1292814D01*
X+2137391Y-1338443D01*
X+2152938Y-1384072D01*
X+2178180Y-1429701D01*
X+2216722Y-1475231D01*
X+2262351Y-1510727D01*
X+2307980Y-1533847D01*
X+2353609Y-1547700D01*
X+2399238Y-1553646D01*
X+2413000Y-1553980D01*
X+2696980Y-1270000D02*
X+2696062Y-1292814D01*
X+2688609Y-1338443D01*
X+2673062Y-1384072D01*
X+2647820Y-1429701D01*
X+2609278Y-1475231D01*
X+2563649Y-1510727D01*
X+2518020Y-1533847D01*
X+2472391Y-1547700D01*
X+2426762Y-1553646D01*
X+2413000Y-1553980D01*
X+2273300Y-1447800D02*
X+2273300Y-1371600D01*
X+2273300Y-1422400D02*
X+2311400Y-1371600D01*
X+2286000Y-1409700D02*
X+2311400Y-1447800D01*
X+3429000Y+2540000D02*
X+3428173Y+2560483D01*
X+3421455Y+2601450D01*
X+3407437Y+2642417D01*
X+3384659Y+2683384D01*
X+3349859Y+2724229D01*
X+3308892Y+2755845D01*
X+3267925Y+2776392D01*
X+3226958Y+2788629D01*
X+3185991Y+2793762D01*
X+3175000Y+2794000D01*
X+2921000Y+2540000D02*
X+2921827Y+2560483D01*
X+2928545Y+2601450D01*
X+2942563Y+2642417D01*
X+2965341Y+2683384D01*
X+3000141Y+2724229D01*
X+3041108Y+2755845D01*
X+3082075Y+2776392D01*
X+3123042Y+2788629D01*
X+3164009Y+2793762D01*
X+3175000Y+2794000D01*
X+2921000Y+2540000D02*
X+2921827Y+2519517D01*
X+2928545Y+2478550D01*
X+2942563Y+2437583D01*
X+2965341Y+2396616D01*
X+3000141Y+2355771D01*
X+3041108Y+2324155D01*
X+3082075Y+2303608D01*
X+3123042Y+2291371D01*
X+3164009Y+2286238D01*
X+3175000Y+2286000D01*
X+3429000Y+2540000D02*
X+3428173Y+2519517D01*
X+3421455Y+2478550D01*
X+3407437Y+2437583D01*
X+3384659Y+2396616D01*
X+3349859Y+2355771D01*
X+3308892Y+2324155D01*
X+3267925Y+2303608D01*
X+3226958Y+2291371D01*
X+3185991Y+2286238D01*
X+3175000Y+2286000D01*
X+2959100Y+2717800D02*
X+2959100Y+2362200D01*
X+3458980Y+2540000D02*
X+3458062Y+2562814D01*
X+3450609Y+2608443D01*
X+3435062Y+2654072D01*
X+3409820Y+2699701D01*
X+3371278Y+2745231D01*
X+3325649Y+2780727D01*
X+3280020Y+2803847D01*
X+3234391Y+2817700D01*
X+3188762Y+2823646D01*
X+3175000Y+2823980D01*
X+2891020Y+2540000D02*
X+2891938Y+2562814D01*
X+2899391Y+2608443D01*
X+2914938Y+2654072D01*
X+2940180Y+2699701D01*
X+2978722Y+2745231D01*
X+3024351Y+2780727D01*
X+3069980Y+2803847D01*
X+3115609Y+2817700D01*
X+3161238Y+2823646D01*
X+3175000Y+2823980D01*
X+2891020Y+2540000D02*
X+2891938Y+2517186D01*
X+2899391Y+2471557D01*
X+2914938Y+2425928D01*
X+2940180Y+2380299D01*
X+2978722Y+2334769D01*
X+3024351Y+2299273D01*
X+3069980Y+2276153D01*
X+3115609Y+2262300D01*
X+3161238Y+2256354D01*
X+3175000Y+2256020D01*
X+3458980Y+2540000D02*
X+3458062Y+2517186D01*
X+3450609Y+2471557D01*
X+3435062Y+2425928D01*
X+3409820Y+2380299D01*
X+3371278Y+2334769D01*
X+3325649Y+2299273D01*
X+3280020Y+2276153D01*
X+3234391Y+2262300D01*
X+3188762Y+2256354D01*
X+3175000Y+2256020D01*
X+3035300Y+2362200D02*
X+3035300Y+2438400D01*
X+3035300Y+2387600D02*
X+3073400Y+2438400D01*
X+3048000Y+2400300D02*
X+3073400Y+2362200D01*
X+3429000Y+1778000D02*
X+3428173Y+1798483D01*
X+3421455Y+1839450D01*
X+3407437Y+1880417D01*
X+3384659Y+1921384D01*
X+3349859Y+1962229D01*
X+3308892Y+1993845D01*
X+3267925Y+2014392D01*
X+3226958Y+2026629D01*
X+3185991Y+2031762D01*
X+3175000Y+2032000D01*
X+2921000Y+1778000D02*
X+2921827Y+1798483D01*
X+2928545Y+1839450D01*
X+2942563Y+1880417D01*
X+2965341Y+1921384D01*
X+3000141Y+1962229D01*
X+3041108Y+1993845D01*
X+3082075Y+2014392D01*
X+3123042Y+2026629D01*
X+3164009Y+2031762D01*
X+3175000Y+2032000D01*
X+2921000Y+1778000D02*
X+2921827Y+1757517D01*
X+2928545Y+1716550D01*
X+2942563Y+1675583D01*
X+2965341Y+1634616D01*
X+3000141Y+1593771D01*
X+3041108Y+1562155D01*
X+3082075Y+1541608D01*
X+3123042Y+1529371D01*
X+3164009Y+1524238D01*
X+3175000Y+1524000D01*
X+3429000Y+1778000D02*
X+3428173Y+1757517D01*
X+3421455Y+1716550D01*
X+3407437Y+1675583D01*
X+3384659Y+1634616D01*
X+3349859Y+1593771D01*
X+3308892Y+1562155D01*
X+3267925Y+1541608D01*
X+3226958Y+1529371D01*
X+3185991Y+1524238D01*
X+3175000Y+1524000D01*
X+2959100Y+1955800D02*
X+2959100Y+1600200D01*
X+3458980Y+1778000D02*
X+3458062Y+1800814D01*
X+3450609Y+1846443D01*
X+3435062Y+1892072D01*
X+3409820Y+1937701D01*
X+3371278Y+1983231D01*
X+3325649Y+2018727D01*
X+3280020Y+2041847D01*
X+3234391Y+2055700D01*
X+3188762Y+2061646D01*
X+3175000Y+2061980D01*
X+2891020Y+1778000D02*
X+2891938Y+1800814D01*
X+2899391Y+1846443D01*
X+2914938Y+1892072D01*
X+2940180Y+1937701D01*
X+2978722Y+1983231D01*
X+3024351Y+2018727D01*
X+3069980Y+2041847D01*
X+3115609Y+2055700D01*
X+3161238Y+2061646D01*
X+3175000Y+2061980D01*
X+2891020Y+1778000D02*
X+2891938Y+1755186D01*
X+2899391Y+1709557D01*
X+2914938Y+1663928D01*
X+2940180Y+1618299D01*
X+2978722Y+1572769D01*
X+3024351Y+1537273D01*
X+3069980Y+1514153D01*
X+3115609Y+1500300D01*
X+3161238Y+1494354D01*
X+3175000Y+1494020D01*
X+3458980Y+1778000D02*
X+3458062Y+1755186D01*
X+3450609Y+1709557D01*
X+3435062Y+1663928D01*
X+3409820Y+1618299D01*
X+3371278Y+1572769D01*
X+3325649Y+1537273D01*
X+3280020Y+1514153D01*
X+3234391Y+1500300D01*
X+3188762Y+1494354D01*
X+3175000Y+1494020D01*
X+3035300Y+1600200D02*
X+3035300Y+1676400D01*
X+3035300Y+1625600D02*
X+3073400Y+1676400D01*
X+3048000Y+1638300D02*
X+3073400Y+1600200D01*
X+3429000Y+1016000D02*
X+3428173Y+1036483D01*
X+3421455Y+1077450D01*
X+3407437Y+1118417D01*
X+3384659Y+1159384D01*
X+3349859Y+1200229D01*
X+3308892Y+1231845D01*
X+3267925Y+1252392D01*
X+3226958Y+1264629D01*
X+3185991Y+1269762D01*
X+3175000Y+1270000D01*
X+2921000Y+1016000D02*
X+2921827Y+1036483D01*
X+2928545Y+1077450D01*
X+2942563Y+1118417D01*
X+2965341Y+1159384D01*
X+3000141Y+1200229D01*
X+3041108Y+1231845D01*
X+3082075Y+1252392D01*
X+3123042Y+1264629D01*
X+3164009Y+1269762D01*
X+3175000Y+1270000D01*
X+2921000Y+1016000D02*
X+2921827Y+995517D01*
X+2928545Y+954550D01*
X+2942563Y+913583D01*
X+2965341Y+872616D01*
X+3000141Y+831771D01*
X+3041108Y+800155D01*
X+3082075Y+779608D01*
X+3123042Y+767371D01*
X+3164009Y+762238D01*
X+3175000Y+762000D01*
X+3429000Y+1016000D02*
X+3428173Y+995517D01*
X+3421455Y+954550D01*
X+3407437Y+913583D01*
X+3384659Y+872616D01*
X+3349859Y+831771D01*
X+3308892Y+800155D01*
X+3267925Y+779608D01*
X+3226958Y+767371D01*
X+3185991Y+762238D01*
X+3175000Y+762000D01*
X+2959100Y+1193800D02*
X+2959100Y+838200D01*
X+3458980Y+1016000D02*
X+3458062Y+1038814D01*
X+3450609Y+1084443D01*
X+3435062Y+1130072D01*
X+3409820Y+1175701D01*
X+3371278Y+1221231D01*
X+3325649Y+1256727D01*
X+3280020Y+1279847D01*
X+3234391Y+1293700D01*
X+3188762Y+1299646D01*
X+3175000Y+1299980D01*
X+2891020Y+1016000D02*
X+2891938Y+1038814D01*
X+2899391Y+1084443D01*
X+2914938Y+1130072D01*
X+2940180Y+1175701D01*
X+2978722Y+1221231D01*
X+3024351Y+1256727D01*
X+3069980Y+1279847D01*
X+3115609Y+1293700D01*
X+3161238Y+1299646D01*
X+3175000Y+1299980D01*
X+2891020Y+1016000D02*
X+2891938Y+993186D01*
X+2899391Y+947557D01*
X+2914938Y+901928D01*
X+2940180Y+856299D01*
X+2978722Y+810769D01*
X+3024351Y+775273D01*
X+3069980Y+752153D01*
X+3115609Y+738300D01*
X+3161238Y+732354D01*
X+3175000Y+732020D01*
X+3458980Y+1016000D02*
X+3458062Y+993186D01*
X+3450609Y+947557D01*
X+3435062Y+901928D01*
X+3409820Y+856299D01*
X+3371278Y+810769D01*
X+3325649Y+775273D01*
X+3280020Y+752153D01*
X+3234391Y+738300D01*
X+3188762Y+732354D01*
X+3175000Y+732020D01*
X+3035300Y+838200D02*
X+3035300Y+914400D01*
X+3035300Y+863600D02*
X+3073400Y+914400D01*
X+3048000Y+876300D02*
X+3073400Y+838200D01*
X+3429000Y+254000D02*
X+3428173Y+274483D01*
X+3421455Y+315450D01*
X+3407437Y+356417D01*
X+3384659Y+397384D01*
X+3349859Y+438229D01*
X+3308892Y+469845D01*
X+3267925Y+490392D01*
X+3226958Y+502629D01*
X+3185991Y+507762D01*
X+3175000Y+508000D01*
X+2921000Y+254000D02*
X+2921827Y+274483D01*
X+2928545Y+315450D01*
X+2942563Y+356417D01*
X+2965341Y+397384D01*
X+3000141Y+438229D01*
X+3041108Y+469845D01*
X+3082075Y+490392D01*
X+3123042Y+502629D01*
X+3164009Y+507762D01*
X+3175000Y+508000D01*
X+2921000Y+254000D02*
X+2921827Y+233517D01*
X+2928545Y+192550D01*
X+2942563Y+151583D01*
X+2965341Y+110616D01*
X+3000141Y+69771D01*
X+3041108Y+38155D01*
X+3082075Y+17608D01*
X+3123042Y+5371D01*
X+3164009Y+238D01*
X+3175000Y+0D01*
X+3429000Y+254000D02*
X+3428173Y+233517D01*
X+3421455Y+192550D01*
X+3407437Y+151583D01*
X+3384659Y+110616D01*
X+3349859Y+69771D01*
X+3308892Y+38155D01*
X+3267925Y+17608D01*
X+3226958Y+5371D01*
X+3185991Y+238D01*
X+3175000Y+0D01*
X+2959100Y+431800D02*
X+2959100Y+76200D01*
X+3458980Y+254000D02*
X+3458062Y+276814D01*
X+3450609Y+322443D01*
X+3435062Y+368072D01*
X+3409820Y+413701D01*
X+3371278Y+459231D01*
X+3325649Y+494727D01*
X+3280020Y+517847D01*
X+3234391Y+531700D01*
X+3188762Y+537646D01*
X+3175000Y+537980D01*
X+2891020Y+254000D02*
X+2891938Y+276814D01*
X+2899391Y+322443D01*
X+2914938Y+368072D01*
X+2940180Y+413701D01*
X+2978722Y+459231D01*
X+3024351Y+494727D01*
X+3069980Y+517847D01*
X+3115609Y+531700D01*
X+3161238Y+537646D01*
X+3175000Y+537980D01*
X+2891020Y+254000D02*
X+2891938Y+231186D01*
X+2899391Y+185557D01*
X+2914938Y+139928D01*
X+2940180Y+94299D01*
X+2978722Y+48769D01*
X+3024351Y+13273D01*
X+3069980Y-9847D01*
X+3115609Y-23700D01*
X+3161238Y-29646D01*
X+3175000Y-29980D01*
X+3458980Y+254000D02*
X+3458062Y+231186D01*
X+3450609Y+185557D01*
X+3435062Y+139928D01*
X+3409820Y+94299D01*
X+3371278Y+48769D01*
X+3325649Y+13273D01*
X+3280020Y-9847D01*
X+3234391Y-23700D01*
X+3188762Y-29646D01*
X+3175000Y-29980D01*
X+3035300Y+76200D02*
X+3035300Y+152400D01*
X+3035300Y+101600D02*
X+3073400Y+152400D01*
X+3048000Y+114300D02*
X+3073400Y+76200D01*
X+3429000Y-508000D02*
X+3428173Y-487517D01*
X+3421455Y-446550D01*
X+3407437Y-405583D01*
X+3384659Y-364616D01*
X+3349859Y-323771D01*
X+3308892Y-292155D01*
X+3267925Y-271608D01*
X+3226958Y-259371D01*
X+3185991Y-254238D01*
X+3175000Y-254000D01*
X+2921000Y-508000D02*
X+2921827Y-487517D01*
X+2928545Y-446550D01*
X+2942563Y-405583D01*
X+2965341Y-364616D01*
X+3000141Y-323771D01*
X+3041108Y-292155D01*
X+3082075Y-271608D01*
X+3123042Y-259371D01*
X+3164009Y-254238D01*
X+3175000Y-254000D01*
X+2921000Y-508000D02*
X+2921827Y-528483D01*
X+2928545Y-569450D01*
X+2942563Y-610417D01*
X+2965341Y-651384D01*
X+3000141Y-692229D01*
X+3041108Y-723845D01*
X+3082075Y-744392D01*
X+3123042Y-756629D01*
X+3164009Y-761762D01*
X+3175000Y-762000D01*
X+3429000Y-508000D02*
X+3428173Y-528483D01*
X+3421455Y-569450D01*
X+3407437Y-610417D01*
X+3384659Y-651384D01*
X+3349859Y-692229D01*
X+3308892Y-723845D01*
X+3267925Y-744392D01*
X+3226958Y-756629D01*
X+3185991Y-761762D01*
X+3175000Y-762000D01*
X+2959100Y-330200D02*
X+2959100Y-685800D01*
X+3458980Y-508000D02*
X+3458062Y-485186D01*
X+3450609Y-439557D01*
X+3435062Y-393928D01*
X+3409820Y-348299D01*
X+3371278Y-302769D01*
X+3325649Y-267273D01*
X+3280020Y-244153D01*
X+3234391Y-230300D01*
X+3188762Y-224354D01*
X+3175000Y-224020D01*
X+2891020Y-508000D02*
X+2891938Y-485186D01*
X+2899391Y-439557D01*
X+2914938Y-393928D01*
X+2940180Y-348299D01*
X+2978722Y-302769D01*
X+3024351Y-267273D01*
X+3069980Y-244153D01*
X+3115609Y-230300D01*
X+3161238Y-224354D01*
X+3175000Y-224020D01*
X+2891020Y-508000D02*
X+2891938Y-530814D01*
X+2899391Y-576443D01*
X+2914938Y-622072D01*
X+2940180Y-667701D01*
X+2978722Y-713231D01*
X+3024351Y-748727D01*
X+3069980Y-771847D01*
X+3115609Y-785700D01*
X+3161238Y-791646D01*
X+3175000Y-791980D01*
X+3458980Y-508000D02*
X+3458062Y-530814D01*
X+3450609Y-576443D01*
X+3435062Y-622072D01*
X+3409820Y-667701D01*
X+3371278Y-713231D01*
X+3325649Y-748727D01*
X+3280020Y-771847D01*
X+3234391Y-785700D01*
X+3188762Y-791646D01*
X+3175000Y-791980D01*
X+3035300Y-685800D02*
X+3035300Y-609600D01*
X+3035300Y-660400D02*
X+3073400Y-609600D01*
X+3048000Y-647700D02*
X+3073400Y-685800D01*
X+3429000Y-1270000D02*
X+3428173Y-1249517D01*
X+3421455Y-1208550D01*
X+3407437Y-1167583D01*
X+3384659Y-1126616D01*
X+3349859Y-1085771D01*
X+3308892Y-1054155D01*
X+3267925Y-1033608D01*
X+3226958Y-1021371D01*
X+3185991Y-1016238D01*
X+3175000Y-1016000D01*
X+2921000Y-1270000D02*
X+2921827Y-1249517D01*
X+2928545Y-1208550D01*
X+2942563Y-1167583D01*
X+2965341Y-1126616D01*
X+3000141Y-1085771D01*
X+3041108Y-1054155D01*
X+3082075Y-1033608D01*
X+3123042Y-1021371D01*
X+3164009Y-1016238D01*
X+3175000Y-1016000D01*
X+2921000Y-1270000D02*
X+2921827Y-1290483D01*
X+2928545Y-1331450D01*
X+2942563Y-1372417D01*
X+2965341Y-1413384D01*
X+3000141Y-1454229D01*
X+3041108Y-1485845D01*
X+3082075Y-1506392D01*
X+3123042Y-1518629D01*
X+3164009Y-1523762D01*
X+3175000Y-1524000D01*
X+3429000Y-1270000D02*
X+3428173Y-1290483D01*
X+3421455Y-1331450D01*
X+3407437Y-1372417D01*
X+3384659Y-1413384D01*
X+3349859Y-1454229D01*
X+3308892Y-1485845D01*
X+3267925Y-1506392D01*
X+3226958Y-1518629D01*
X+3185991Y-1523762D01*
X+3175000Y-1524000D01*
X+2959100Y-1092200D02*
X+2959100Y-1447800D01*
X+3458980Y-1270000D02*
X+3458062Y-1247186D01*
X+3450609Y-1201557D01*
X+3435062Y-1155928D01*
X+3409820Y-1110299D01*
X+3371278Y-1064769D01*
X+3325649Y-1029273D01*
X+3280020Y-1006153D01*
X+3234391Y-992300D01*
X+3188762Y-986354D01*
X+3175000Y-986020D01*
X+2891020Y-1270000D02*
X+2891938Y-1247186D01*
X+2899391Y-1201557D01*
X+2914938Y-1155928D01*
X+2940180Y-1110299D01*
X+2978722Y-1064769D01*
X+3024351Y-1029273D01*
X+3069980Y-1006153D01*
X+3115609Y-992300D01*
X+3161238Y-986354D01*
X+3175000Y-986020D01*
X+2891020Y-1270000D02*
X+2891938Y-1292814D01*
X+2899391Y-1338443D01*
X+2914938Y-1384072D01*
X+2940180Y-1429701D01*
X+2978722Y-1475231D01*
X+3024351Y-1510727D01*
X+3069980Y-1533847D01*
X+3115609Y-1547700D01*
X+3161238Y-1553646D01*
X+3175000Y-1553980D01*
X+3458980Y-1270000D02*
X+3458062Y-1292814D01*
X+3450609Y-1338443D01*
X+3435062Y-1384072D01*
X+3409820Y-1429701D01*
X+3371278Y-1475231D01*
X+3325649Y-1510727D01*
X+3280020Y-1533847D01*
X+3234391Y-1547700D01*
X+3188762Y-1553646D01*
X+3175000Y-1553980D01*
X+3035300Y-1447800D02*
X+3035300Y-1371600D01*
X+3035300Y-1422400D02*
X+3073400Y-1371600D01*
X+3048000Y-1409700D02*
X+3073400Y-1447800D01*
D71*
X-381000Y-1651000D02*
X+3683000Y-1651000D01*
X+3746500Y-1587500D02*
X+3746500Y+2857500D01*
X+3683000Y+2921000D02*
X-381000Y+2921000D01*
X-444500Y+2857500D02*
X-444500Y-1587500D01*
X+3746500Y-1587500D02*
X+3741601Y-1612490D01*
X+3728144Y-1632644D01*
X+3707990Y-1646101D01*
X+3683000Y-1651000D01*
X-444500Y-1587500D02*
X-439601Y-1612490D01*
X-426144Y-1632644D01*
X-405990Y-1646101D01*
X-381000Y-1651000D01*
X-444500Y+2857500D02*
X-439601Y+2882490D01*
X-426144Y+2902644D01*
X-405990Y+2916101D01*
X-381000Y+2921000D01*
X+3683000Y+2921000D02*
X+3707990Y+2916101D01*
X+3728144Y+2902644D01*
X+3741601Y+2882490D01*
X+3746500Y+2857500D01*
M02*
