G04 PROTEUS GERBER X2 FILE*
%TF.GenerationSoftware,Labcenter,Proteus,8.6-SP2-Build23525*%
%TF.CreationDate,2019-02-04T04:32:53+00:00*%
%TF.FileFunction,Soldermask,Top*%
%TF.FilePolarity,Negative*%
%TF.Part,Single*%
%FSLAX45Y45*%
%MOMM*%
G01*
%TA.AperFunction,Material*%
%ADD24C,1.016000*%
%TA.AperFunction,Material*%
%ADD25C,1.778000*%
%AMPPAD018*
4,1,36,
-0.889000,1.016000,
0.889000,1.016000,
0.914970,1.013470,
0.938980,1.006200,
0.960580,0.994650,
0.979290,0.979290,
0.994650,0.960570,
1.006200,0.938980,
1.013470,0.914970,
1.016000,0.889000,
1.016000,-0.889000,
1.013470,-0.914970,
1.006200,-0.938980,
0.994650,-0.960570,
0.979290,-0.979290,
0.960580,-0.994650,
0.938980,-1.006200,
0.914970,-1.013470,
0.889000,-1.016000,
-0.889000,-1.016000,
-0.914970,-1.013470,
-0.938980,-1.006200,
-0.960580,-0.994650,
-0.979290,-0.979290,
-0.994650,-0.960570,
-1.006200,-0.938980,
-1.013470,-0.914970,
-1.016000,-0.889000,
-1.016000,0.889000,
-1.013470,0.914970,
-1.006200,0.938980,
-0.994650,0.960570,
-0.979290,0.979290,
-0.960580,0.994650,
-0.938980,1.006200,
-0.914970,1.013470,
-0.889000,1.016000,
0*%
%ADD26PPAD018*%
%TA.AperFunction,Material*%
%ADD27C,5.254000*%
%AMPPAD020*
4,1,36,
0.635000,0.762000,
-0.635000,0.762000,
-0.660970,0.759470,
-0.684980,0.752200,
-0.706580,0.740650,
-0.725290,0.725290,
-0.740650,0.706570,
-0.752200,0.684980,
-0.759470,0.660970,
-0.762000,0.635000,
-0.762000,-0.635000,
-0.759470,-0.660970,
-0.752200,-0.684980,
-0.740650,-0.706570,
-0.725290,-0.725290,
-0.706580,-0.740650,
-0.684980,-0.752200,
-0.660970,-0.759470,
-0.635000,-0.762000,
0.635000,-0.762000,
0.660970,-0.759470,
0.684980,-0.752200,
0.706580,-0.740650,
0.725290,-0.725290,
0.740650,-0.706570,
0.752200,-0.684980,
0.759470,-0.660970,
0.762000,-0.635000,
0.762000,0.635000,
0.759470,0.660970,
0.752200,0.684980,
0.740650,0.706570,
0.725290,0.725290,
0.706580,0.740650,
0.684980,0.752200,
0.660970,0.759470,
0.635000,0.762000,
0*%
%TA.AperFunction,Material*%
%ADD28PPAD020*%
%ADD29C,1.524000*%
%TA.AperFunction,Material*%
%ADD72C,2.286000*%
%TA.AperFunction,Material*%
%ADD73C,2.032000*%
%TA.AperFunction,Profile*%
%ADD71C,0.203200*%
%TD.AperFunction*%
D24*
X+1403291Y-241143D03*
X+3181676Y-128551D03*
X+1657526Y-1498512D03*
X+1285267Y+206823D03*
X+133327Y-338072D03*
X+441640Y+237283D03*
X+952500Y-127000D03*
X+896247Y-1564725D03*
X+2088274Y+249835D03*
X+2032000Y-508000D03*
X+497707Y-1281263D03*
X+127487Y-813928D03*
X+460058Y-510529D03*
X+571500Y+444500D03*
X+444500Y+444500D03*
X+2905713Y-80354D03*
X+1905000Y+1524000D03*
X+2159704Y+1528604D03*
X+2032000Y+2540000D03*
X+2032000Y+2794000D03*
X+1270000Y+2794000D03*
X+1270000Y+2540000D03*
X+2794000Y+2794000D03*
X+2794000Y+2540000D03*
X+508000Y+2794000D03*
X+508000Y+2540000D03*
X+3258861Y-1468972D03*
X+889000Y+508000D03*
X+1326774Y+777627D03*
X+1206500Y+1778000D03*
X+2095500Y+1778000D03*
X+3596716Y+121971D03*
D25*
X+254000Y+2540000D03*
D26*
X+0Y+2540000D03*
D25*
X+254000Y+1778000D03*
D26*
X+0Y+1778000D03*
D25*
X+254000Y+1016000D03*
D26*
X+0Y+1016000D03*
D25*
X+254000Y+254000D03*
D26*
X+0Y+254000D03*
D25*
X+254000Y-508000D03*
D26*
X+0Y-508000D03*
D25*
X+254000Y-1270000D03*
D26*
X+0Y-1270000D03*
D25*
X+1016000Y+2540000D03*
D26*
X+762000Y+2540000D03*
D25*
X+1016000Y+1778000D03*
D26*
X+762000Y+1778000D03*
D25*
X+1016000Y+1016000D03*
D26*
X+762000Y+1016000D03*
D25*
X+1016000Y+254000D03*
D26*
X+762000Y+254000D03*
D25*
X+1016000Y-508000D03*
D26*
X+762000Y-508000D03*
D25*
X+1016000Y-1270000D03*
D26*
X+762000Y-1270000D03*
D25*
X+1778000Y+2540000D03*
D26*
X+1524000Y+2540000D03*
D25*
X+1778000Y+1778000D03*
D26*
X+1524000Y+1778000D03*
D25*
X+1778000Y+1016000D03*
D26*
X+1524000Y+1016000D03*
D25*
X+1778000Y+254000D03*
D26*
X+1524000Y+254000D03*
D25*
X+1778000Y-508000D03*
D26*
X+1524000Y-508000D03*
D25*
X+1778000Y-1270000D03*
D26*
X+1524000Y-1270000D03*
D25*
X+2540000Y+2540000D03*
D26*
X+2286000Y+2540000D03*
D25*
X+2540000Y+1778000D03*
D26*
X+2286000Y+1778000D03*
D25*
X+2540000Y+1016000D03*
D26*
X+2286000Y+1016000D03*
D25*
X+2540000Y+254000D03*
D26*
X+2286000Y+254000D03*
D25*
X+2540000Y-508000D03*
D26*
X+2286000Y-508000D03*
D25*
X+2540000Y-1270000D03*
D26*
X+2286000Y-1270000D03*
D25*
X+3302000Y+2540000D03*
D26*
X+3048000Y+2540000D03*
D25*
X+3302000Y+1778000D03*
D26*
X+3048000Y+1778000D03*
D25*
X+3302000Y+1016000D03*
D26*
X+3048000Y+1016000D03*
D25*
X+3302000Y+254000D03*
D26*
X+3048000Y+254000D03*
D25*
X+3302000Y-508000D03*
D26*
X+3048000Y-508000D03*
D25*
X+3302000Y-1270000D03*
D26*
X+3048000Y-1270000D03*
D27*
X+2794000Y-889000D03*
X+508000Y-889000D03*
X+508000Y+2159000D03*
X+2794000Y+2159000D03*
D28*
X+3048000Y+635000D03*
D29*
X+2794000Y+635000D03*
X+2540000Y+635000D03*
X+2286000Y+635000D03*
X+2032000Y+635000D03*
X+1778000Y+635000D03*
X+1524000Y+635000D03*
X+1270000Y+635000D03*
X+1016000Y+635000D03*
X+762000Y+635000D03*
X+508000Y+635000D03*
X+254000Y+635000D03*
X+254000Y+1397000D03*
X+508000Y+1397000D03*
X+762000Y+1397000D03*
X+1016000Y+1397000D03*
X+1270000Y+1397000D03*
X+1524000Y+1397000D03*
X+1778000Y+1397000D03*
X+2032000Y+1397000D03*
X+2286000Y+1397000D03*
X+2540000Y+1397000D03*
X+2794000Y+1397000D03*
X+3048000Y+1397000D03*
D28*
X+1270000Y-127000D03*
D29*
X+1524000Y-127000D03*
X+1778000Y-127000D03*
X+2032000Y-127000D03*
X+2032000Y-889000D03*
X+1778000Y-889000D03*
X+1524000Y-889000D03*
X+1270000Y-889000D03*
D72*
X+3556000Y-444500D03*
X+3556000Y-698500D03*
X+3556000Y-952500D03*
X+3556000Y-1206500D03*
X+3556000Y-1460500D03*
X-254000Y-444500D03*
X-254000Y-698500D03*
X-254000Y-952500D03*
X-254000Y-1206500D03*
X-254000Y-1460500D03*
D73*
X+2032000Y+1968500D03*
X+1016000Y+1968500D03*
D72*
X+3429000Y+2286000D03*
X+3429000Y+2032000D03*
D73*
X+3492500Y+571500D03*
X+3492500Y+825500D03*
D71*
X-381000Y-1651000D02*
X+3683000Y-1651000D01*
X+3746500Y-1587500D02*
X+3746500Y+2857500D01*
X+3683000Y+2921000D02*
X-381000Y+2921000D01*
X-444500Y+2857500D02*
X-444500Y-1587500D01*
X+3746500Y-1587500D02*
X+3741601Y-1612490D01*
X+3728144Y-1632644D01*
X+3707990Y-1646101D01*
X+3683000Y-1651000D01*
X-444500Y-1587500D02*
X-439601Y-1612490D01*
X-426144Y-1632644D01*
X-405990Y-1646101D01*
X-381000Y-1651000D01*
X-444500Y+2857500D02*
X-439601Y+2882490D01*
X-426144Y+2902644D01*
X-405990Y+2916101D01*
X-381000Y+2921000D01*
X+3683000Y+2921000D02*
X+3707990Y+2916101D01*
X+3728144Y+2902644D01*
X+3741601Y+2882490D01*
X+3746500Y+2857500D01*
M02*
