G04 PROTEUS GERBER X2 FILE*
%TF.GenerationSoftware,Labcenter,Proteus,8.6-SP2-Build23525*%
%TF.CreationDate,2019-02-04T04:32:53+00:00*%
%TF.FileFunction,Copper,L2,Bot*%
%TF.FilePolarity,Positive*%
%TF.Part,Single*%
%FSLAX45Y45*%
%MOMM*%
G01*
%TA.AperFunction,Conductor*%
%ADD10C,0.508000*%
%ADD11C,0.381000*%
%TA.AperFunction,ViaPad*%
%ADD12C,0.762000*%
%TA.AperFunction,Conductor*%
%ADD13C,0.635000*%
%ADD20C,0.254000*%
%TA.AperFunction,ComponentPad*%
%ADD14C,1.524000*%
%ADD15R,1.778000X1.778000*%
%TA.AperFunction,OtherPad,Unknown*%
%ADD16C,5.000000*%
%TA.AperFunction,ComponentPad*%
%ADD17R,1.270000X1.270000*%
%ADD18C,1.270000*%
%TA.AperFunction,ComponentPad*%
%ADD19C,2.032000*%
%TA.AperFunction,ComponentPad*%
%ADD70C,1.778000*%
%TA.AperFunction,Profile*%
%ADD71C,0.203200*%
%TD.AperFunction*%
G36*
X+2743200Y+2815042D02*
X+2743200Y+2772958D01*
X+2750930Y+2765228D01*
X+2075070Y+2765228D01*
X+2082800Y+2772958D01*
X+2082800Y+2815042D01*
X+2056851Y+2840991D01*
X+2769149Y+2840991D01*
X+2743200Y+2815042D01*
G37*
G36*
X+1219200Y+2815042D02*
X+1219200Y+2772958D01*
X+1226930Y+2765228D01*
X+551070Y+2765228D01*
X+558800Y+2772958D01*
X+558800Y+2815042D01*
X+532851Y+2840991D01*
X+1245149Y+2840991D01*
X+1219200Y+2815042D01*
G37*
G36*
X+1981200Y+2815042D02*
X+1981200Y+2772958D01*
X+1988930Y+2765228D01*
X+1743807Y+2765228D01*
X+1391252Y+2765227D01*
X+1313070Y+2765228D01*
X+1320800Y+2772958D01*
X+1320800Y+2815042D01*
X+1294851Y+2840991D01*
X+2007149Y+2840991D01*
X+1981200Y+2815042D01*
G37*
G36*
X+457200Y+2815042D02*
X+457200Y+2772958D01*
X+464930Y+2765228D01*
X+362488Y+2765228D01*
X+270609Y+2673349D01*
X+198765Y+2673349D01*
X+146049Y+2620633D01*
X+146049Y+2686049D01*
X-146049Y+2686049D01*
X-146049Y+2393951D01*
X+146049Y+2393951D01*
X+146049Y+2459367D01*
X+198765Y+2406651D01*
X+309235Y+2406651D01*
X+387349Y+2484765D01*
X+387349Y+2556609D01*
X+430870Y+2600130D01*
X+615951Y+2600130D01*
X+615951Y+2466149D01*
X+380775Y+2466149D01*
X+200851Y+2286225D01*
X+200851Y+2031775D01*
X+380775Y+1851851D01*
X+615951Y+1851851D01*
X+615951Y+1720156D01*
X+428584Y+1720156D01*
X+387349Y+1761391D01*
X+387349Y+1833235D01*
X+309235Y+1911349D01*
X+198765Y+1911349D01*
X+146049Y+1858633D01*
X+146049Y+1924049D01*
X-146049Y+1924049D01*
X-146049Y+1631951D01*
X+146049Y+1631951D01*
X+146049Y+1697367D01*
X+198765Y+1644651D01*
X+270609Y+1644651D01*
X+321446Y+1593814D01*
X+46926Y+1593814D01*
X+34192Y+1606548D01*
X-34192Y+1606548D01*
X-46926Y+1593814D01*
X-46928Y+1593814D01*
X-95284Y+1545458D01*
X-95284Y+1545456D01*
X-364491Y+1276249D01*
X-364491Y+2824359D01*
X-363264Y+2839764D01*
X-347859Y+2840991D01*
X+483149Y+2840991D01*
X+457200Y+2815042D01*
G37*
%LPC*%
G36*
X+457200Y+2518958D02*
X+457200Y+2561042D01*
X+486958Y+2590800D01*
X+529042Y+2590800D01*
X+558800Y+2561042D01*
X+558800Y+2518958D01*
X+529042Y+2489200D01*
X+486958Y+2489200D01*
X+457200Y+2518958D01*
G37*
%LPD*%
G36*
X+1377951Y+2393951D02*
X+1670049Y+2393951D01*
X+1670049Y+2459367D01*
X+1722765Y+2406651D01*
X+1833235Y+2406651D01*
X+1911349Y+2484765D01*
X+1911349Y+2595235D01*
X+1906454Y+2600130D01*
X+2139951Y+2600130D01*
X+2139951Y+2393951D01*
X+2432049Y+2393951D01*
X+2432049Y+2459367D01*
X+2484765Y+2406651D01*
X+2595235Y+2406651D01*
X+2673349Y+2484765D01*
X+2673349Y+2595235D01*
X+2668454Y+2600130D01*
X+2901951Y+2600130D01*
X+2901951Y+2466149D01*
X+2666775Y+2466149D01*
X+2486851Y+2286225D01*
X+2486851Y+2031775D01*
X+2666775Y+1851851D01*
X+2901951Y+1851851D01*
X+2901951Y+1720156D01*
X+2670740Y+1720156D01*
X+2673349Y+1722765D01*
X+2673349Y+1833235D01*
X+2595235Y+1911349D01*
X+2484765Y+1911349D01*
X+2432049Y+1858633D01*
X+2432049Y+1924049D01*
X+2178049Y+1924049D01*
X+2178049Y+2028995D01*
X+2092495Y+2114549D01*
X+1971505Y+2114549D01*
X+1885951Y+2028995D01*
X+1885951Y+1908005D01*
X+1971505Y+1822451D01*
X+2068109Y+1822451D01*
X+2044700Y+1799042D01*
X+2044700Y+1756958D01*
X+2074458Y+1727200D01*
X+2116542Y+1727200D01*
X+2139951Y+1750609D01*
X+2139951Y+1720156D01*
X+1908740Y+1720156D01*
X+1911349Y+1722765D01*
X+1911349Y+1833235D01*
X+1833235Y+1911349D01*
X+1722765Y+1911349D01*
X+1670049Y+1858633D01*
X+1670049Y+1924049D01*
X+1377951Y+1924049D01*
X+1377951Y+1720156D01*
X+1146740Y+1720156D01*
X+1149349Y+1722765D01*
X+1149349Y+1833235D01*
X+1118314Y+1864270D01*
X+1162049Y+1908005D01*
X+1162049Y+2028995D01*
X+1076495Y+2114549D01*
X+955505Y+2114549D01*
X+869951Y+2028995D01*
X+869951Y+1924049D01*
X+707423Y+1924049D01*
X+815149Y+2031775D01*
X+815149Y+2286225D01*
X+707423Y+2393951D01*
X+908049Y+2393951D01*
X+908049Y+2459367D01*
X+960765Y+2406651D01*
X+1071235Y+2406651D01*
X+1149349Y+2484765D01*
X+1149349Y+2595235D01*
X+1144454Y+2600130D01*
X+1377951Y+2600131D01*
X+1377951Y+2393951D01*
G37*
%LPC*%
G36*
X+1981200Y+2518958D02*
X+1981200Y+2561042D01*
X+2010958Y+2590800D01*
X+2053042Y+2590800D01*
X+2082800Y+2561042D01*
X+2082800Y+2518958D01*
X+2053042Y+2489200D01*
X+2010958Y+2489200D01*
X+1981200Y+2518958D01*
G37*
G36*
X+1219200Y+2518958D02*
X+1219200Y+2561042D01*
X+1248958Y+2590800D01*
X+1291042Y+2590800D01*
X+1320800Y+2561042D01*
X+1320800Y+2518958D01*
X+1291042Y+2489200D01*
X+1248958Y+2489200D01*
X+1219200Y+2518958D01*
G37*
G36*
X+2743200Y+2518958D02*
X+2743200Y+2561042D01*
X+2772958Y+2590800D01*
X+2815042Y+2590800D01*
X+2844800Y+2561042D01*
X+2844800Y+2518958D01*
X+2815042Y+2489200D01*
X+2772958Y+2489200D01*
X+2743200Y+2518958D01*
G37*
G36*
X+1155700Y+1756958D02*
X+1155700Y+1799042D01*
X+1185458Y+1828800D01*
X+1227542Y+1828800D01*
X+1257300Y+1799042D01*
X+1257300Y+1756958D01*
X+1227542Y+1727200D01*
X+1185458Y+1727200D01*
X+1155700Y+1756958D01*
G37*
%LPD*%
G36*
X+3246765Y+2406651D02*
X+3325146Y+2406651D01*
X+3270251Y+2351756D01*
X+3270251Y+2220244D01*
X+3331495Y+2159000D01*
X+3270251Y+2097756D01*
X+3270251Y+1966244D01*
X+3325146Y+1911349D01*
X+3246765Y+1911349D01*
X+3194049Y+1858633D01*
X+3194049Y+1924049D01*
X+2993423Y+1924049D01*
X+3101149Y+2031775D01*
X+3101149Y+2286225D01*
X+2993423Y+2393951D01*
X+3194049Y+2393951D01*
X+3194049Y+2459367D01*
X+3246765Y+2406651D01*
G37*
G36*
X+3665264Y+2839764D02*
X+3666491Y+2824359D01*
X+3666491Y+1267269D01*
X+3460561Y+1473199D01*
X+3142424Y+1473199D01*
X+3097974Y+1517649D01*
X+2998026Y+1517649D01*
X+2927351Y+1446974D01*
X+2927351Y+1347026D01*
X+2998026Y+1276351D01*
X+3097974Y+1276351D01*
X+3142424Y+1320801D01*
X+3397439Y+1320801D01*
X+3603004Y+1115236D01*
X+3603004Y+921540D01*
X+3552995Y+971549D01*
X+3435349Y+971549D01*
X+3435349Y+1071235D01*
X+3357235Y+1149349D01*
X+3285391Y+1149349D01*
X+3193904Y+1240836D01*
X+2114549Y+1240836D01*
X+2114549Y+1308926D01*
X+2152649Y+1347026D01*
X+2152649Y+1446974D01*
X+2081974Y+1517649D01*
X+1982026Y+1517649D01*
X+1911351Y+1446974D01*
X+1911351Y+1347026D01*
X+1949451Y+1308926D01*
X+1949451Y+1240836D01*
X+1738576Y+1240836D01*
X+1774091Y+1276351D01*
X+1827974Y+1276351D01*
X+1898649Y+1347026D01*
X+1898649Y+1446974D01*
X+1827974Y+1517649D01*
X+1728026Y+1517649D01*
X+1657351Y+1446974D01*
X+1657351Y+1393091D01*
X+1644649Y+1380389D01*
X+1644649Y+1446974D01*
X+1573974Y+1517649D01*
X+1474026Y+1517649D01*
X+1403351Y+1446974D01*
X+1403351Y+1347026D01*
X+1427618Y+1322759D01*
X+1366382Y+1322759D01*
X+1390649Y+1347026D01*
X+1390649Y+1446974D01*
X+1319974Y+1517649D01*
X+1220026Y+1517649D01*
X+1149351Y+1446974D01*
X+1149351Y+1347026D01*
X+1173618Y+1322759D01*
X+1112382Y+1322759D01*
X+1136649Y+1347026D01*
X+1136649Y+1446974D01*
X+1098549Y+1485074D01*
X+1098549Y+1555058D01*
X+1864216Y+1555058D01*
X+1854200Y+1545042D01*
X+1854200Y+1502958D01*
X+1883958Y+1473200D01*
X+1926042Y+1473200D01*
X+1955800Y+1502958D01*
X+1955800Y+1545042D01*
X+1945784Y+1555058D01*
X+2114316Y+1555058D01*
X+2108904Y+1549646D01*
X+2108904Y+1507562D01*
X+2138662Y+1477804D01*
X+2180746Y+1477804D01*
X+2210504Y+1507562D01*
X+2210504Y+1549646D01*
X+2205092Y+1555058D01*
X+3195798Y+1555058D01*
X+3285391Y+1644651D01*
X+3357235Y+1644651D01*
X+3435349Y+1722765D01*
X+3435349Y+1833235D01*
X+3395333Y+1873251D01*
X+3494756Y+1873251D01*
X+3587749Y+1966244D01*
X+3587749Y+2097756D01*
X+3526505Y+2159000D01*
X+3587749Y+2220244D01*
X+3587749Y+2351756D01*
X+3494756Y+2444749D01*
X+3395333Y+2444749D01*
X+3435349Y+2484765D01*
X+3435349Y+2595235D01*
X+3357235Y+2673349D01*
X+3285391Y+2673349D01*
X+3193512Y+2765228D01*
X+2837070Y+2765228D01*
X+2844800Y+2772958D01*
X+2844800Y+2815042D01*
X+2818851Y+2840991D01*
X+3649859Y+2840991D01*
X+3665264Y+2839764D01*
G37*
%LPC*%
G36*
X+2165351Y+1347026D02*
X+2165351Y+1446974D01*
X+2236026Y+1517649D01*
X+2335974Y+1517649D01*
X+2406649Y+1446974D01*
X+2406649Y+1347026D01*
X+2335974Y+1276351D01*
X+2236026Y+1276351D01*
X+2165351Y+1347026D01*
G37*
G36*
X+2419351Y+1347026D02*
X+2419351Y+1446974D01*
X+2490026Y+1517649D01*
X+2589974Y+1517649D01*
X+2660649Y+1446974D01*
X+2660649Y+1347026D01*
X+2589974Y+1276351D01*
X+2490026Y+1276351D01*
X+2419351Y+1347026D01*
G37*
G36*
X+2673351Y+1347026D02*
X+2673351Y+1446974D01*
X+2744026Y+1517649D01*
X+2843974Y+1517649D01*
X+2914649Y+1446974D01*
X+2914649Y+1347026D01*
X+2843974Y+1276351D01*
X+2744026Y+1276351D01*
X+2673351Y+1347026D01*
G37*
%LPD*%
G36*
X+2556611Y+755649D02*
X+2490026Y+755649D01*
X+2419351Y+684974D01*
X+2419351Y+585026D01*
X+2427799Y+576578D01*
X+2398201Y+576578D01*
X+2406649Y+585026D01*
X+2406649Y+684974D01*
X+2335974Y+755649D01*
X+2236026Y+755649D01*
X+2214474Y+734096D01*
X+2180414Y+768156D01*
X+2180412Y+768156D01*
X+2165139Y+783429D01*
X+2165139Y+783431D01*
X+2157574Y+790996D01*
X+2521264Y+790996D01*
X+2556611Y+755649D01*
G37*
G36*
X+84085Y+815175D02*
X+108264Y+790996D01*
X+1275974Y+790996D01*
X+1275974Y+756585D01*
X+1276910Y+755649D01*
X+1220026Y+755649D01*
X+1149351Y+684974D01*
X+1149351Y+585026D01*
X+1207824Y+526552D01*
X+1202718Y+521446D01*
X+1202718Y+464764D01*
X+917606Y+464764D01*
X+939800Y+486958D01*
X+939800Y+529042D01*
X+910042Y+558800D01*
X+867958Y+558800D01*
X+838200Y+529042D01*
X+838200Y+486958D01*
X+860394Y+464764D01*
X+623654Y+464764D01*
X+622300Y+463410D01*
X+622300Y+465542D01*
X+592542Y+495300D01*
X+550458Y+495300D01*
X+520700Y+465542D01*
X+520700Y+423458D01*
X+550458Y+393700D01*
X+552590Y+393700D01*
X+486258Y+327368D01*
X+481093Y+332532D01*
X+402187Y+332532D01*
X+383120Y+313464D01*
X+309235Y+387349D01*
X+209526Y+387349D01*
X+209526Y+482766D01*
X+241111Y+514351D01*
X+303974Y+514351D01*
X+374649Y+585026D01*
X+374649Y+684974D01*
X+303974Y+755649D01*
X+204026Y+755649D01*
X+133351Y+684974D01*
X+133351Y+622111D01*
X+57128Y+545888D01*
X+57128Y+400049D01*
X-145277Y+400049D01*
X-145277Y+869951D01*
X+29309Y+869951D01*
X+84085Y+815175D01*
G37*
%LPC*%
G36*
X+895351Y+585026D02*
X+895351Y+684974D01*
X+966026Y+755649D01*
X+1065974Y+755649D01*
X+1136649Y+684974D01*
X+1136649Y+585026D01*
X+1065974Y+514351D01*
X+966026Y+514351D01*
X+895351Y+585026D01*
G37*
G36*
X+641351Y+585026D02*
X+641351Y+684974D01*
X+712026Y+755649D01*
X+811974Y+755649D01*
X+882649Y+684974D01*
X+882649Y+585026D01*
X+811974Y+514351D01*
X+712026Y+514351D01*
X+641351Y+585026D01*
G37*
G36*
X+387351Y+585026D02*
X+387351Y+684974D01*
X+458026Y+755649D01*
X+557974Y+755649D01*
X+628649Y+684974D01*
X+628649Y+585026D01*
X+557974Y+514351D01*
X+458026Y+514351D01*
X+387351Y+585026D01*
G37*
G36*
X+393700Y+423458D02*
X+393700Y+465542D01*
X+423458Y+495300D01*
X+465542Y+495300D01*
X+495300Y+465542D01*
X+495300Y+423458D01*
X+465542Y+393700D01*
X+423458Y+393700D01*
X+393700Y+423458D01*
G37*
%LPD*%
G36*
X+1474026Y+514351D02*
X+1527909Y+514351D01*
X+1620016Y+422244D01*
X+2001016Y+422244D01*
X+2139951Y+283309D01*
X+2139951Y+194261D01*
X+1906845Y+194261D01*
X+1911349Y+198765D01*
X+1911349Y+309235D01*
X+1833235Y+387349D01*
X+1722765Y+387349D01*
X+1670049Y+334633D01*
X+1670049Y+400049D01*
X+1377951Y+400049D01*
X+1377951Y+248841D01*
X+1367816Y+258976D01*
X+1367816Y+453064D01*
X+1451564Y+536812D01*
X+1474026Y+514351D01*
G37*
%LPC*%
G36*
X+2037474Y+228793D02*
X+2037474Y+270877D01*
X+2067232Y+300635D01*
X+2109316Y+300635D01*
X+2139074Y+270877D01*
X+2139074Y+228793D01*
X+2109316Y+199035D01*
X+2067232Y+199035D01*
X+2037474Y+228793D01*
G37*
%LPD*%
G36*
X+2901951Y+869951D02*
X+3194049Y+869951D01*
X+3194049Y+935367D01*
X+3246765Y+882651D01*
X+3346451Y+882651D01*
X+3346451Y+765005D01*
X+3412956Y+698500D01*
X+3346451Y+631995D01*
X+3346451Y+511005D01*
X+3432005Y+425451D01*
X+3552995Y+425451D01*
X+3603004Y+475460D01*
X+3603004Y+172771D01*
X+3575674Y+172771D01*
X+3545916Y+143013D01*
X+3545916Y+100929D01*
X+3570646Y+76199D01*
X+3278666Y+76199D01*
X+3169165Y-33302D01*
X+3142223Y-33302D01*
X+3086427Y-89098D01*
X+3086427Y-158783D01*
X+2152649Y-158783D01*
X+2152649Y-77026D01*
X+2081974Y-6351D01*
X+1982026Y-6351D01*
X+1911351Y-77026D01*
X+1911351Y-158783D01*
X+1898649Y-158783D01*
X+1898649Y-77026D01*
X+1827974Y-6351D01*
X+1765111Y-6351D01*
X+1729597Y+29163D01*
X+3193903Y+29163D01*
X+3285391Y+120651D01*
X+3357235Y+120651D01*
X+3435349Y+198765D01*
X+3435349Y+309235D01*
X+3357235Y+387349D01*
X+3246765Y+387349D01*
X+3194049Y+334633D01*
X+3194049Y+400049D01*
X+2901951Y+400049D01*
X+2901951Y+194261D01*
X+2668845Y+194261D01*
X+2673349Y+198765D01*
X+2673349Y+309235D01*
X+2595235Y+387349D01*
X+2484765Y+387349D01*
X+2432049Y+334633D01*
X+2432049Y+400049D01*
X+2256691Y+400049D01*
X+2245260Y+411480D01*
X+2941220Y+411480D01*
X+3044091Y+514351D01*
X+3168649Y+514351D01*
X+3168649Y+755649D01*
X+2927351Y+755649D01*
X+2927351Y+631091D01*
X+2914649Y+618389D01*
X+2914649Y+684974D01*
X+2843974Y+755649D01*
X+2790091Y+755649D01*
X+2629162Y+916578D01*
X+2673349Y+960765D01*
X+2673349Y+1071235D01*
X+2668846Y+1075738D01*
X+2901951Y+1075738D01*
X+2901951Y+869951D01*
G37*
%LPC*%
G36*
X+2854913Y-101396D02*
X+2854913Y-59312D01*
X+2884671Y-29554D01*
X+2926755Y-29554D01*
X+2956513Y-59312D01*
X+2956513Y-101396D01*
X+2926755Y-131154D01*
X+2884671Y-131154D01*
X+2854913Y-101396D01*
G37*
%LPD*%
G36*
X+2901951Y-581851D02*
X+2666775Y-581851D01*
X+2486851Y-761775D01*
X+2486851Y-1016225D01*
X+2666775Y-1196149D01*
X+2901951Y-1196149D01*
X+2901951Y-1327121D01*
X+2671463Y-1327121D01*
X+2673349Y-1325235D01*
X+2673349Y-1214765D01*
X+2595235Y-1136651D01*
X+2484765Y-1136651D01*
X+2432049Y-1189367D01*
X+2432049Y-1123951D01*
X+2139951Y-1123951D01*
X+2139951Y-1327121D01*
X+1909463Y-1327121D01*
X+1911349Y-1325235D01*
X+1911349Y-1214765D01*
X+1833235Y-1136651D01*
X+1722765Y-1136651D01*
X+1670049Y-1189367D01*
X+1670049Y-1123951D01*
X+1377951Y-1123951D01*
X+1377951Y-1327121D01*
X+1147463Y-1327121D01*
X+1149349Y-1325235D01*
X+1149349Y-1214765D01*
X+1071235Y-1136651D01*
X+960765Y-1136651D01*
X+908049Y-1189367D01*
X+908049Y-1123951D01*
X+707423Y-1123951D01*
X+815149Y-1016225D01*
X+815149Y-761775D01*
X+707423Y-654049D01*
X+908049Y-654049D01*
X+908049Y-588633D01*
X+960765Y-641349D01*
X+1071235Y-641349D01*
X+1149349Y-563235D01*
X+1149349Y-452765D01*
X+1146609Y-450025D01*
X+1377951Y-450025D01*
X+1377951Y-654049D01*
X+1670049Y-654049D01*
X+1670049Y-588633D01*
X+1722765Y-641349D01*
X+1833235Y-641349D01*
X+1911349Y-563235D01*
X+1911349Y-452765D01*
X+1908609Y-450025D01*
X+2139951Y-450025D01*
X+2139951Y-654049D01*
X+2432049Y-654049D01*
X+2432049Y-588633D01*
X+2484765Y-641349D01*
X+2595235Y-641349D01*
X+2673349Y-563235D01*
X+2673349Y-452765D01*
X+2670609Y-450025D01*
X+2901951Y-450025D01*
X+2901951Y-581851D01*
G37*
%LPC*%
G36*
X+2152649Y-839026D02*
X+2152649Y-938974D01*
X+2081974Y-1009649D01*
X+1982026Y-1009649D01*
X+1911351Y-938974D01*
X+1911351Y-839026D01*
X+1982026Y-768351D01*
X+2081974Y-768351D01*
X+2152649Y-839026D01*
G37*
G36*
X+1898649Y-839026D02*
X+1898649Y-938974D01*
X+1827974Y-1009649D01*
X+1728026Y-1009649D01*
X+1657351Y-938974D01*
X+1657351Y-839026D01*
X+1728026Y-768351D01*
X+1827974Y-768351D01*
X+1898649Y-839026D01*
G37*
G36*
X+1644649Y-839026D02*
X+1644649Y-938974D01*
X+1573974Y-1009649D01*
X+1474026Y-1009649D01*
X+1403351Y-938974D01*
X+1403351Y-839026D01*
X+1474026Y-768351D01*
X+1573974Y-768351D01*
X+1644649Y-839026D01*
G37*
G36*
X+1390649Y-839026D02*
X+1390649Y-938974D01*
X+1319974Y-1009649D01*
X+1220026Y-1009649D01*
X+1149351Y-938974D01*
X+1149351Y-839026D01*
X+1220026Y-768351D01*
X+1319974Y-768351D01*
X+1390649Y-839026D01*
G37*
G36*
X+1981200Y-529042D02*
X+1981200Y-486958D01*
X+2010958Y-457200D01*
X+2053042Y-457200D01*
X+2082800Y-486958D01*
X+2082800Y-529042D01*
X+2053042Y-558800D01*
X+2010958Y-558800D01*
X+1981200Y-529042D01*
G37*
%LPD*%
G36*
X+615951Y-581851D02*
X+380775Y-581851D01*
X+200851Y-761775D01*
X+200851Y-1016225D01*
X+380775Y-1196149D01*
X+615951Y-1196149D01*
X+615951Y-1327121D01*
X+523691Y-1327121D01*
X+548507Y-1302305D01*
X+548507Y-1260221D01*
X+518749Y-1230463D01*
X+476665Y-1230463D01*
X+446907Y-1260221D01*
X+446907Y-1302305D01*
X+471723Y-1327121D01*
X+427861Y-1327121D01*
X+387349Y-1286609D01*
X+387349Y-1214765D01*
X+309235Y-1136651D01*
X+209605Y-1136651D01*
X+209605Y-1128709D01*
X-42803Y-876301D01*
X-105694Y-876301D01*
X-156495Y-825500D01*
X-105694Y-774699D01*
X+84665Y-774699D01*
X+209606Y-649758D01*
X+209606Y-641349D01*
X+309235Y-641349D01*
X+387349Y-563235D01*
X+387349Y-491391D01*
X+428715Y-450025D01*
X+615951Y-450025D01*
X+615951Y-581851D01*
G37*
%LPC*%
G36*
X+76687Y-834970D02*
X+76687Y-792886D01*
X+106445Y-763128D01*
X+148529Y-763128D01*
X+178287Y-792886D01*
X+178287Y-834970D01*
X+148529Y-864728D01*
X+106445Y-864728D01*
X+76687Y-834970D01*
G37*
G36*
X+409258Y-531571D02*
X+409258Y-489487D01*
X+439016Y-459729D01*
X+481100Y-459729D01*
X+510858Y-489487D01*
X+510858Y-531571D01*
X+481100Y-561329D01*
X+439016Y-561329D01*
X+409258Y-531571D01*
G37*
%LPD*%
D10*
X+2540000Y-1270000D02*
X+2540000Y-1409670D01*
X+3162330Y-1409670D01*
X+3302000Y-1270000D01*
X+1778000Y-1270000D02*
X+1778000Y-1399771D01*
X+1787899Y-1409670D01*
X+2540000Y-1409670D01*
X+1016000Y-1270000D02*
X+1016000Y-1409670D01*
X+254000Y-1270000D02*
X+393670Y-1409670D01*
X+1016000Y-1409670D01*
X+1787899Y-1409670D01*
X+2540000Y+2540000D02*
X+2540000Y+2682679D01*
X+3159321Y+2682679D01*
X+3302000Y+2540000D01*
X+1778000Y+2540000D02*
X+1778000Y+2682679D01*
X+2540000Y+2682679D01*
X+1016000Y+2540000D02*
X+1016000Y+2671182D01*
X+1004503Y+2682679D01*
X+254000Y+2540000D02*
X+396679Y+2682679D01*
X+1004503Y+2682679D01*
X+1778000Y+2682679D01*
X+2540000Y+1778000D02*
X+2540000Y+1637607D01*
X+3161607Y+1637607D01*
X+3302000Y+1778000D01*
X+1778000Y+1778000D02*
X+1778000Y+1637607D01*
X+2540000Y+1637607D01*
X+1016000Y+1778000D02*
X+1016000Y+1637607D01*
X+254000Y+1778000D02*
X+394393Y+1637607D01*
X+1016000Y+1637607D01*
X+1778000Y+1637607D01*
X+2540000Y-508000D02*
X+2540000Y-383939D01*
X+2523537Y-367476D01*
X+3161476Y-367476D01*
X+3302000Y-508000D01*
X+1778000Y-508000D02*
X+1778000Y-367476D01*
X+2523537Y-367476D01*
X+1016000Y-508000D02*
X+1016000Y-367476D01*
X+254000Y-508000D02*
X+394524Y-367476D01*
X+1016000Y-367476D01*
X+1778000Y-367476D01*
X+2540000Y+254000D02*
X+2540000Y+111712D01*
X+3159712Y+111712D01*
X+3302000Y+254000D01*
X+1778000Y+254000D02*
X+1778000Y+111712D01*
X+2540000Y+111712D01*
X+1016000Y+254000D02*
X+1016000Y+111712D01*
X+254000Y+254000D02*
X+396288Y+111712D01*
X+1016000Y+111712D01*
X+1778000Y+111712D01*
X+2540000Y+1016000D02*
X+2540000Y+1141236D01*
X+2522949Y+1158287D01*
X+3159713Y+1158287D01*
X+3302000Y+1016000D01*
X+1778000Y+1016000D02*
X+1778000Y+1158287D01*
X+1016000Y+1016000D02*
X+1016000Y+1158287D01*
X+254000Y+1016000D02*
X+396287Y+1158287D01*
X+1016000Y+1158287D01*
X+1778000Y+1158287D01*
X+2032000Y+1397000D02*
X+2032000Y+1158287D01*
X+1778000Y+1158287D02*
X+2032000Y+1158287D01*
X+2522949Y+1158287D01*
X+1016000Y+1637607D02*
X+1016000Y+1397000D01*
X+1778000Y+1397000D02*
X+1621210Y+1240210D01*
X+502774Y+1240210D01*
X+444500Y+1240210D01*
X+0Y+1397000D02*
X-340Y+1397000D01*
X-227826Y+1169514D01*
X-227826Y+70800D01*
X-30026Y-127000D01*
X+254000Y+1397000D02*
X+0Y+1397000D01*
X+0Y+1524000D02*
X-12735Y+1511265D01*
X-306317Y+1217683D01*
X-306317Y-392183D01*
X-254000Y-444500D01*
X+444500Y+1240210D02*
X+393784Y+1290926D01*
X+393784Y+1418825D01*
X+301344Y+1511265D01*
X-12735Y+1511265D01*
X+1524000Y+635000D02*
X+1654207Y+504793D01*
X+1869509Y+504793D01*
X+2035207Y+504793D01*
X+2286000Y+254000D01*
X+1403291Y-241143D02*
X+1450234Y-241143D01*
X+1450423Y-241332D01*
X+3556000Y-444500D02*
X+3352832Y-241332D01*
X+1450423Y-241332D01*
X-50832Y-241332D01*
X-254000Y-444500D01*
D11*
X+3181676Y-128551D02*
X+3310227Y+0D01*
X+3429000Y+0D01*
X+1656248Y-1520278D02*
X+1605829Y-1520278D01*
X+1656248Y-1520278D02*
X+1656248Y-1482972D01*
X+1657526Y-1481694D01*
X+1657526Y-1498512D01*
D10*
X+3048000Y+635000D02*
X+2907029Y+494029D01*
X+2264799Y+494029D01*
X+2146221Y+612607D01*
X+2146221Y+685607D01*
X+1384277Y+669873D02*
X+1463642Y+749238D01*
X+2082590Y+749238D01*
X+2146221Y+685607D01*
X+1778000Y+873545D02*
X+1815041Y+873545D01*
X+2176008Y+873545D01*
X+2321529Y+873545D01*
X+2794000Y+635000D02*
X+2555455Y+873545D01*
X+2321529Y+873545D01*
X+1778000Y+873545D02*
X+142455Y+873545D01*
X+0Y+1016000D01*
D11*
X-254000Y-698500D02*
X+53104Y-698500D01*
X+133407Y-618197D01*
X+133407Y-338152D01*
X+133327Y-338072D01*
X+1645611Y+5389D02*
X+1626850Y+24150D01*
X+184222Y+41894D02*
X+184209Y+41907D01*
X+1778000Y-127000D02*
X+1645611Y+5389D01*
X+1285267Y+381000D02*
X+1277702Y+388565D01*
X+655215Y+388565D01*
X+503933Y+237283D01*
X+441640Y+237283D01*
D10*
X+1384277Y+669873D02*
X+1384277Y+586265D01*
X+1285267Y+487255D01*
X+1285267Y+381000D01*
X+1285267Y+206823D01*
X-30026Y-127000D02*
X+952500Y-127000D01*
X+1270000Y-127000D01*
D11*
X+698500Y-1520278D02*
X+764210Y-1520278D01*
X+804959Y-1479529D01*
X+984249Y-1479529D01*
X+1024998Y-1520278D01*
X+1058068Y-1520278D01*
X-254000Y-952500D02*
X-74364Y-952500D01*
X+133406Y-1160270D01*
X+133406Y-1399684D01*
X+254000Y-1520278D01*
X+698500Y-1520278D01*
X+1058068Y-1520278D02*
X+1605829Y-1520278D01*
X+896247Y-1564725D02*
X+877236Y-1583736D01*
X+850436Y-1583736D01*
X-254000Y-1206500D02*
X-133282Y-1327218D01*
X-133282Y-1377296D01*
X+73158Y-1583736D01*
X+850436Y-1583736D01*
X+877236Y-1583736D02*
X+3272362Y-1583736D01*
X+3410772Y-1445326D01*
X+3410772Y-1351728D01*
X+3556000Y-1206500D01*
X+571500Y+444500D02*
X+444500Y+444500D01*
X+952500Y+571500D02*
X+905463Y+524463D01*
X+651463Y+524463D01*
X+571500Y+444500D01*
D10*
X+1016000Y+635000D02*
X+952500Y+571500D01*
D11*
X+2032000Y-127000D02*
X+2859067Y-127000D01*
X+2905713Y-80354D01*
X+1905000Y+1524000D02*
X+2155100Y+1524000D01*
X+2159704Y+1528604D01*
X+2032000Y+2794000D02*
X+1270000Y+2794000D01*
X+2032000Y+2794000D02*
X+2794000Y+2794000D01*
X+1270000Y+2794000D02*
X+508000Y+2794000D01*
X+133327Y+254000D02*
X+133327Y+198389D01*
X+289809Y+41907D01*
X+335329Y+41907D01*
X+1626850Y+24150D02*
X+1609093Y+41907D01*
X+335329Y+41907D01*
X+289809Y+41907D02*
X+184209Y+41907D01*
X+133327Y+254000D02*
X+133327Y+514327D01*
X+254000Y+635000D01*
X+3258861Y-1468972D02*
X+3207555Y-1520278D01*
X+1656248Y-1520278D01*
D10*
X+905463Y+524463D02*
X+889000Y+508000D01*
D11*
X+1112425Y+508000D01*
X+1162092Y+557667D01*
X+1162092Y+680205D01*
X+1259514Y+777627D01*
X+1326774Y+777627D01*
X+1206500Y+1778000D02*
X+1361352Y+1932852D01*
X+1424852Y+1932852D01*
X+1846424Y+1909924D02*
X+1978348Y+1778000D01*
X+1424852Y+1932852D02*
X+1823496Y+1932852D01*
X+1846424Y+1909924D01*
X+2095500Y+1778000D02*
X+1978348Y+1778000D01*
X+3048000Y+1397000D02*
X+3429000Y+1397000D01*
X+3556000Y+1270000D01*
X+3679203Y+1079500D02*
X+3679203Y+1016000D01*
X+3679203Y+59703D01*
X+3619500Y+0D01*
X+3492500Y+0D01*
X+3556000Y+1270000D02*
X+3679203Y+1146797D01*
X+3679203Y+1079500D01*
X+3492500Y+0D02*
X+3429000Y+0D01*
X+3365500Y+114327D02*
X+3436186Y+114327D01*
X+3595994Y+114327D01*
X+3603638Y+121971D01*
X+3596716Y+121971D01*
X+2905713Y-80354D02*
X+3112152Y-80354D01*
X+3306833Y+114327D01*
X+3365500Y+114327D01*
D12*
X+1403291Y-241143D03*
X+3181676Y-128551D03*
X+1657526Y-1498512D03*
X+1285267Y+206823D03*
X+133327Y-338072D03*
X+441640Y+237283D03*
X+952500Y-127000D03*
X+896247Y-1564725D03*
X+2088274Y+249835D03*
X+2032000Y-508000D03*
X+497707Y-1281263D03*
X+127487Y-813928D03*
X+460058Y-510529D03*
X+571500Y+444500D03*
X+444500Y+444500D03*
X+2905713Y-80354D03*
X+1905000Y+1524000D03*
X+2159704Y+1528604D03*
X+2032000Y+2540000D03*
X+2032000Y+2794000D03*
X+1270000Y+2794000D03*
X+1270000Y+2540000D03*
X+2794000Y+2794000D03*
X+2794000Y+2540000D03*
X+508000Y+2794000D03*
X+508000Y+2540000D03*
X+3258861Y-1468972D03*
X+889000Y+508000D03*
X+1326774Y+777627D03*
X+1206500Y+1778000D03*
X+2095500Y+1778000D03*
X+3596716Y+121971D03*
D13*
X+2743200Y+2815042D02*
X+2743200Y+2772958D01*
X+2750930Y+2765228D01*
X+2075070Y+2765228D01*
X+2082800Y+2772958D01*
X+2082800Y+2815042D01*
X+2056851Y+2840991D01*
X+2769149Y+2840991D01*
X+2743200Y+2815042D01*
X+1219200Y+2815042D02*
X+1219200Y+2772958D01*
X+1226930Y+2765228D01*
X+551070Y+2765228D01*
X+558800Y+2772958D01*
X+558800Y+2815042D01*
X+532851Y+2840991D01*
X+1245149Y+2840991D01*
X+1219200Y+2815042D01*
X+1981200Y+2815042D02*
X+1981200Y+2772958D01*
X+1988930Y+2765228D01*
X+1743807Y+2765228D01*
X+1391252Y+2765227D01*
X+1313070Y+2765228D01*
X+1320800Y+2772958D01*
X+1320800Y+2815042D01*
X+1294851Y+2840991D01*
X+2007149Y+2840991D01*
X+1981200Y+2815042D01*
X+457200Y+2815042D02*
X+457200Y+2772958D01*
X+464930Y+2765228D01*
X+362488Y+2765228D01*
X+270609Y+2673349D01*
X+198765Y+2673349D01*
X+146049Y+2620633D01*
X+146049Y+2686049D01*
X-146049Y+2686049D01*
X-146049Y+2393951D01*
X+146049Y+2393951D01*
X+146049Y+2459367D01*
X+198765Y+2406651D01*
X+309235Y+2406651D01*
X+387349Y+2484765D01*
X+387349Y+2556609D01*
X+430870Y+2600130D01*
X+615951Y+2600130D01*
X+615951Y+2466149D01*
X+380775Y+2466149D01*
X+200851Y+2286225D01*
X+200851Y+2031775D01*
X+380775Y+1851851D01*
X+615951Y+1851851D01*
X+615951Y+1720156D01*
X+428584Y+1720156D01*
X+387349Y+1761391D01*
X+387349Y+1833235D01*
X+309235Y+1911349D01*
X+198765Y+1911349D01*
X+146049Y+1858633D01*
X+146049Y+1924049D01*
X-146049Y+1924049D01*
X-146049Y+1631951D01*
X+146049Y+1631951D01*
X+146049Y+1697367D01*
X+198765Y+1644651D01*
X+270609Y+1644651D01*
X+321446Y+1593814D01*
X+46926Y+1593814D01*
X+34192Y+1606548D01*
X-34192Y+1606548D01*
X-46926Y+1593814D01*
X-46928Y+1593814D01*
X-95284Y+1545458D01*
X-95284Y+1545456D01*
X-364491Y+1276249D01*
X-364491Y+2824359D01*
X-363264Y+2839764D01*
X-347859Y+2840991D01*
X+483149Y+2840991D01*
X+457200Y+2815042D01*
X+457200Y+2518958D02*
X+457200Y+2561042D01*
X+486958Y+2590800D01*
X+529042Y+2590800D01*
X+558800Y+2561042D01*
X+558800Y+2518958D01*
X+529042Y+2489200D01*
X+486958Y+2489200D01*
X+457200Y+2518958D01*
X+1377951Y+2393951D02*
X+1670049Y+2393951D01*
X+1670049Y+2459367D01*
X+1722765Y+2406651D01*
X+1833235Y+2406651D01*
X+1911349Y+2484765D01*
X+1911349Y+2595235D01*
X+1906454Y+2600130D01*
X+2139951Y+2600130D01*
X+2139951Y+2393951D01*
X+2432049Y+2393951D01*
X+2432049Y+2459367D01*
X+2484765Y+2406651D01*
X+2595235Y+2406651D01*
X+2673349Y+2484765D01*
X+2673349Y+2595235D01*
X+2668454Y+2600130D01*
X+2901951Y+2600130D01*
X+2901951Y+2466149D01*
X+2666775Y+2466149D01*
X+2486851Y+2286225D01*
X+2486851Y+2031775D01*
X+2666775Y+1851851D01*
X+2901951Y+1851851D01*
X+2901951Y+1720156D01*
X+2670740Y+1720156D01*
X+2673349Y+1722765D01*
X+2673349Y+1833235D01*
X+2595235Y+1911349D01*
X+2484765Y+1911349D01*
X+2432049Y+1858633D01*
X+2432049Y+1924049D01*
X+2178049Y+1924049D01*
X+2178049Y+2028995D01*
X+2092495Y+2114549D01*
X+1971505Y+2114549D01*
X+1885951Y+2028995D01*
X+1885951Y+1908005D01*
X+1971505Y+1822451D01*
X+2068109Y+1822451D01*
X+2044700Y+1799042D01*
X+2044700Y+1756958D01*
X+2074458Y+1727200D01*
X+2116542Y+1727200D01*
X+2139951Y+1750609D01*
X+2139951Y+1720156D01*
X+1908740Y+1720156D01*
X+1911349Y+1722765D01*
X+1911349Y+1833235D01*
X+1833235Y+1911349D01*
X+1722765Y+1911349D01*
X+1670049Y+1858633D01*
X+1670049Y+1924049D01*
X+1377951Y+1924049D01*
X+1377951Y+1720156D01*
X+1146740Y+1720156D01*
X+1149349Y+1722765D01*
X+1149349Y+1833235D01*
X+1118314Y+1864270D01*
X+1162049Y+1908005D01*
X+1162049Y+2028995D01*
X+1076495Y+2114549D01*
X+955505Y+2114549D01*
X+869951Y+2028995D01*
X+869951Y+1924049D01*
X+707423Y+1924049D01*
X+815149Y+2031775D01*
X+815149Y+2286225D01*
X+707423Y+2393951D01*
X+908049Y+2393951D01*
X+908049Y+2459367D01*
X+960765Y+2406651D01*
X+1071235Y+2406651D01*
X+1149349Y+2484765D01*
X+1149349Y+2595235D01*
X+1144454Y+2600130D01*
X+1377951Y+2600131D01*
X+1377951Y+2393951D01*
X+1981200Y+2518958D02*
X+1981200Y+2561042D01*
X+2010958Y+2590800D01*
X+2053042Y+2590800D01*
X+2082800Y+2561042D01*
X+2082800Y+2518958D01*
X+2053042Y+2489200D01*
X+2010958Y+2489200D01*
X+1981200Y+2518958D01*
X+1219200Y+2518958D02*
X+1219200Y+2561042D01*
X+1248958Y+2590800D01*
X+1291042Y+2590800D01*
X+1320800Y+2561042D01*
X+1320800Y+2518958D01*
X+1291042Y+2489200D01*
X+1248958Y+2489200D01*
X+1219200Y+2518958D01*
X+2743200Y+2518958D02*
X+2743200Y+2561042D01*
X+2772958Y+2590800D01*
X+2815042Y+2590800D01*
X+2844800Y+2561042D01*
X+2844800Y+2518958D01*
X+2815042Y+2489200D01*
X+2772958Y+2489200D01*
X+2743200Y+2518958D01*
X+1155700Y+1756958D02*
X+1155700Y+1799042D01*
X+1185458Y+1828800D01*
X+1227542Y+1828800D01*
X+1257300Y+1799042D01*
X+1257300Y+1756958D01*
X+1227542Y+1727200D01*
X+1185458Y+1727200D01*
X+1155700Y+1756958D01*
X+3246765Y+2406651D02*
X+3325146Y+2406651D01*
X+3270251Y+2351756D01*
X+3270251Y+2220244D01*
X+3331495Y+2159000D01*
X+3270251Y+2097756D01*
X+3270251Y+1966244D01*
X+3325146Y+1911349D01*
X+3246765Y+1911349D01*
X+3194049Y+1858633D01*
X+3194049Y+1924049D01*
X+2993423Y+1924049D01*
X+3101149Y+2031775D01*
X+3101149Y+2286225D01*
X+2993423Y+2393951D01*
X+3194049Y+2393951D01*
X+3194049Y+2459367D01*
X+3246765Y+2406651D01*
X+3665264Y+2839764D02*
X+3666491Y+2824359D01*
X+3666491Y+1267269D01*
X+3460561Y+1473199D01*
X+3142424Y+1473199D01*
X+3097974Y+1517649D01*
X+2998026Y+1517649D01*
X+2927351Y+1446974D01*
X+2927351Y+1347026D01*
X+2998026Y+1276351D01*
X+3097974Y+1276351D01*
X+3142424Y+1320801D01*
X+3397439Y+1320801D01*
X+3603004Y+1115236D01*
X+3603004Y+921540D01*
X+3552995Y+971549D01*
X+3435349Y+971549D01*
X+3435349Y+1071235D01*
X+3357235Y+1149349D01*
X+3285391Y+1149349D01*
X+3193904Y+1240836D01*
X+2114549Y+1240836D01*
X+2114549Y+1308926D01*
X+2152649Y+1347026D01*
X+2152649Y+1446974D01*
X+2081974Y+1517649D01*
X+1982026Y+1517649D01*
X+1911351Y+1446974D01*
X+1911351Y+1347026D01*
X+1949451Y+1308926D01*
X+1949451Y+1240836D01*
X+1738576Y+1240836D01*
X+1774091Y+1276351D01*
X+1827974Y+1276351D01*
X+1898649Y+1347026D01*
X+1898649Y+1446974D01*
X+1827974Y+1517649D01*
X+1728026Y+1517649D01*
X+1657351Y+1446974D01*
X+1657351Y+1393091D01*
X+1644649Y+1380389D01*
X+1644649Y+1446974D01*
X+1573974Y+1517649D01*
X+1474026Y+1517649D01*
X+1403351Y+1446974D01*
X+1403351Y+1347026D01*
X+1427618Y+1322759D01*
X+1366382Y+1322759D01*
X+1390649Y+1347026D01*
X+1390649Y+1446974D01*
X+1319974Y+1517649D01*
X+1220026Y+1517649D01*
X+1149351Y+1446974D01*
X+1149351Y+1347026D01*
X+1173618Y+1322759D01*
X+1112382Y+1322759D01*
X+1136649Y+1347026D01*
X+1136649Y+1446974D01*
X+1098549Y+1485074D01*
X+1098549Y+1555058D01*
X+1864216Y+1555058D01*
X+1854200Y+1545042D01*
X+1854200Y+1502958D01*
X+1883958Y+1473200D01*
X+1926042Y+1473200D01*
X+1955800Y+1502958D01*
X+1955800Y+1545042D01*
X+1945784Y+1555058D01*
X+2114316Y+1555058D01*
X+2108904Y+1549646D01*
X+2108904Y+1507562D01*
X+2138662Y+1477804D01*
X+2180746Y+1477804D01*
X+2210504Y+1507562D01*
X+2210504Y+1549646D01*
X+2205092Y+1555058D01*
X+3195798Y+1555058D01*
X+3285391Y+1644651D01*
X+3357235Y+1644651D01*
X+3435349Y+1722765D01*
X+3435349Y+1833235D01*
X+3395333Y+1873251D01*
X+3494756Y+1873251D01*
X+3587749Y+1966244D01*
X+3587749Y+2097756D01*
X+3526505Y+2159000D01*
X+3587749Y+2220244D01*
X+3587749Y+2351756D01*
X+3494756Y+2444749D01*
X+3395333Y+2444749D01*
X+3435349Y+2484765D01*
X+3435349Y+2595235D01*
X+3357235Y+2673349D01*
X+3285391Y+2673349D01*
X+3193512Y+2765228D01*
X+2837070Y+2765228D01*
X+2844800Y+2772958D01*
X+2844800Y+2815042D01*
X+2818851Y+2840991D01*
X+3649859Y+2840991D01*
X+3665264Y+2839764D01*
X+2165351Y+1347026D02*
X+2165351Y+1446974D01*
X+2236026Y+1517649D01*
X+2335974Y+1517649D01*
X+2406649Y+1446974D01*
X+2406649Y+1347026D01*
X+2335974Y+1276351D01*
X+2236026Y+1276351D01*
X+2165351Y+1347026D01*
X+2419351Y+1347026D02*
X+2419351Y+1446974D01*
X+2490026Y+1517649D01*
X+2589974Y+1517649D01*
X+2660649Y+1446974D01*
X+2660649Y+1347026D01*
X+2589974Y+1276351D01*
X+2490026Y+1276351D01*
X+2419351Y+1347026D01*
X+2673351Y+1347026D02*
X+2673351Y+1446974D01*
X+2744026Y+1517649D01*
X+2843974Y+1517649D01*
X+2914649Y+1446974D01*
X+2914649Y+1347026D01*
X+2843974Y+1276351D01*
X+2744026Y+1276351D01*
X+2673351Y+1347026D01*
X+2556611Y+755649D02*
X+2490026Y+755649D01*
X+2419351Y+684974D01*
X+2419351Y+585026D01*
X+2427799Y+576578D01*
X+2398201Y+576578D01*
X+2406649Y+585026D01*
X+2406649Y+684974D01*
X+2335974Y+755649D01*
X+2236026Y+755649D01*
X+2214474Y+734096D01*
X+2180414Y+768156D01*
X+2180412Y+768156D01*
X+2165139Y+783429D01*
X+2165139Y+783431D01*
X+2157574Y+790996D01*
X+2521264Y+790996D01*
X+2556611Y+755649D01*
X+84085Y+815175D02*
X+108264Y+790996D01*
X+1275974Y+790996D01*
X+1275974Y+756585D01*
X+1276910Y+755649D01*
X+1220026Y+755649D01*
X+1149351Y+684974D01*
X+1149351Y+585026D01*
X+1207824Y+526552D01*
X+1202718Y+521446D01*
X+1202718Y+464764D01*
X+917606Y+464764D01*
X+939800Y+486958D01*
X+939800Y+529042D01*
X+910042Y+558800D01*
X+867958Y+558800D01*
X+838200Y+529042D01*
X+838200Y+486958D01*
X+860394Y+464764D01*
X+623654Y+464764D01*
X+622300Y+463410D01*
X+622300Y+465542D01*
X+592542Y+495300D01*
X+550458Y+495300D01*
X+520700Y+465542D01*
X+520700Y+423458D01*
X+550458Y+393700D01*
X+552590Y+393700D01*
X+486258Y+327368D01*
X+481093Y+332532D01*
X+402187Y+332532D01*
X+383120Y+313464D01*
X+309235Y+387349D01*
X+209526Y+387349D01*
X+209526Y+482766D01*
X+241111Y+514351D01*
X+303974Y+514351D01*
X+374649Y+585026D01*
X+374649Y+684974D01*
X+303974Y+755649D01*
X+204026Y+755649D01*
X+133351Y+684974D01*
X+133351Y+622111D01*
X+57128Y+545888D01*
X+57128Y+400049D01*
X-145277Y+400049D01*
X-145277Y+869951D01*
X+29309Y+869951D01*
X+84085Y+815175D01*
X+895351Y+585026D02*
X+895351Y+684974D01*
X+966026Y+755649D01*
X+1065974Y+755649D01*
X+1136649Y+684974D01*
X+1136649Y+585026D01*
X+1065974Y+514351D01*
X+966026Y+514351D01*
X+895351Y+585026D01*
X+641351Y+585026D02*
X+641351Y+684974D01*
X+712026Y+755649D01*
X+811974Y+755649D01*
X+882649Y+684974D01*
X+882649Y+585026D01*
X+811974Y+514351D01*
X+712026Y+514351D01*
X+641351Y+585026D01*
X+387351Y+585026D02*
X+387351Y+684974D01*
X+458026Y+755649D01*
X+557974Y+755649D01*
X+628649Y+684974D01*
X+628649Y+585026D01*
X+557974Y+514351D01*
X+458026Y+514351D01*
X+387351Y+585026D01*
X+393700Y+423458D02*
X+393700Y+465542D01*
X+423458Y+495300D01*
X+465542Y+495300D01*
X+495300Y+465542D01*
X+495300Y+423458D01*
X+465542Y+393700D01*
X+423458Y+393700D01*
X+393700Y+423458D01*
X+1474026Y+514351D02*
X+1527909Y+514351D01*
X+1620016Y+422244D01*
X+2001016Y+422244D01*
X+2139951Y+283309D01*
X+2139951Y+194261D01*
X+1906845Y+194261D01*
X+1911349Y+198765D01*
X+1911349Y+309235D01*
X+1833235Y+387349D01*
X+1722765Y+387349D01*
X+1670049Y+334633D01*
X+1670049Y+400049D01*
X+1377951Y+400049D01*
X+1377951Y+248841D01*
X+1367816Y+258976D01*
X+1367816Y+453064D01*
X+1451564Y+536812D01*
X+1474026Y+514351D01*
X+2037474Y+228793D02*
X+2037474Y+270877D01*
X+2067232Y+300635D01*
X+2109316Y+300635D01*
X+2139074Y+270877D01*
X+2139074Y+228793D01*
X+2109316Y+199035D01*
X+2067232Y+199035D01*
X+2037474Y+228793D01*
X+2901951Y+869951D02*
X+3194049Y+869951D01*
X+3194049Y+935367D01*
X+3246765Y+882651D01*
X+3346451Y+882651D01*
X+3346451Y+765005D01*
X+3412956Y+698500D01*
X+3346451Y+631995D01*
X+3346451Y+511005D01*
X+3432005Y+425451D01*
X+3552995Y+425451D01*
X+3603004Y+475460D01*
X+3603004Y+172771D01*
X+3575674Y+172771D01*
X+3545916Y+143013D01*
X+3545916Y+100929D01*
X+3570646Y+76199D01*
X+3278666Y+76199D01*
X+3169165Y-33302D01*
X+3142223Y-33302D01*
X+3086427Y-89098D01*
X+3086427Y-158783D01*
X+2152649Y-158783D01*
X+2152649Y-77026D01*
X+2081974Y-6351D01*
X+1982026Y-6351D01*
X+1911351Y-77026D01*
X+1911351Y-158783D01*
X+1898649Y-158783D01*
X+1898649Y-77026D01*
X+1827974Y-6351D01*
X+1765111Y-6351D01*
X+1729597Y+29163D01*
X+3193903Y+29163D01*
X+3285391Y+120651D01*
X+3357235Y+120651D01*
X+3435349Y+198765D01*
X+3435349Y+309235D01*
X+3357235Y+387349D01*
X+3246765Y+387349D01*
X+3194049Y+334633D01*
X+3194049Y+400049D01*
X+2901951Y+400049D01*
X+2901951Y+194261D01*
X+2668845Y+194261D01*
X+2673349Y+198765D01*
X+2673349Y+309235D01*
X+2595235Y+387349D01*
X+2484765Y+387349D01*
X+2432049Y+334633D01*
X+2432049Y+400049D01*
X+2256691Y+400049D01*
X+2245260Y+411480D01*
X+2941220Y+411480D01*
X+3044091Y+514351D01*
X+3168649Y+514351D01*
X+3168649Y+755649D01*
X+2927351Y+755649D01*
X+2927351Y+631091D01*
X+2914649Y+618389D01*
X+2914649Y+684974D01*
X+2843974Y+755649D01*
X+2790091Y+755649D01*
X+2629162Y+916578D01*
X+2673349Y+960765D01*
X+2673349Y+1071235D01*
X+2668846Y+1075738D01*
X+2901951Y+1075738D01*
X+2901951Y+869951D01*
X+2854913Y-101396D02*
X+2854913Y-59312D01*
X+2884671Y-29554D01*
X+2926755Y-29554D01*
X+2956513Y-59312D01*
X+2956513Y-101396D01*
X+2926755Y-131154D01*
X+2884671Y-131154D01*
X+2854913Y-101396D01*
X+2901951Y-581851D02*
X+2666775Y-581851D01*
X+2486851Y-761775D01*
X+2486851Y-1016225D01*
X+2666775Y-1196149D01*
X+2901951Y-1196149D01*
X+2901951Y-1327121D01*
X+2671463Y-1327121D01*
X+2673349Y-1325235D01*
X+2673349Y-1214765D01*
X+2595235Y-1136651D01*
X+2484765Y-1136651D01*
X+2432049Y-1189367D01*
X+2432049Y-1123951D01*
X+2139951Y-1123951D01*
X+2139951Y-1327121D01*
X+1909463Y-1327121D01*
X+1911349Y-1325235D01*
X+1911349Y-1214765D01*
X+1833235Y-1136651D01*
X+1722765Y-1136651D01*
X+1670049Y-1189367D01*
X+1670049Y-1123951D01*
X+1377951Y-1123951D01*
X+1377951Y-1327121D01*
X+1147463Y-1327121D01*
X+1149349Y-1325235D01*
X+1149349Y-1214765D01*
X+1071235Y-1136651D01*
X+960765Y-1136651D01*
X+908049Y-1189367D01*
X+908049Y-1123951D01*
X+707423Y-1123951D01*
X+815149Y-1016225D01*
X+815149Y-761775D01*
X+707423Y-654049D01*
X+908049Y-654049D01*
X+908049Y-588633D01*
X+960765Y-641349D01*
X+1071235Y-641349D01*
X+1149349Y-563235D01*
X+1149349Y-452765D01*
X+1146609Y-450025D01*
X+1377951Y-450025D01*
X+1377951Y-654049D01*
X+1670049Y-654049D01*
X+1670049Y-588633D01*
X+1722765Y-641349D01*
X+1833235Y-641349D01*
X+1911349Y-563235D01*
X+1911349Y-452765D01*
X+1908609Y-450025D01*
X+2139951Y-450025D01*
X+2139951Y-654049D01*
X+2432049Y-654049D01*
X+2432049Y-588633D01*
X+2484765Y-641349D01*
X+2595235Y-641349D01*
X+2673349Y-563235D01*
X+2673349Y-452765D01*
X+2670609Y-450025D01*
X+2901951Y-450025D01*
X+2901951Y-581851D01*
X+2152649Y-839026D02*
X+2152649Y-938974D01*
X+2081974Y-1009649D01*
X+1982026Y-1009649D01*
X+1911351Y-938974D01*
X+1911351Y-839026D01*
X+1982026Y-768351D01*
X+2081974Y-768351D01*
X+2152649Y-839026D01*
X+1898649Y-839026D02*
X+1898649Y-938974D01*
X+1827974Y-1009649D01*
X+1728026Y-1009649D01*
X+1657351Y-938974D01*
X+1657351Y-839026D01*
X+1728026Y-768351D01*
X+1827974Y-768351D01*
X+1898649Y-839026D01*
X+1644649Y-839026D02*
X+1644649Y-938974D01*
X+1573974Y-1009649D01*
X+1474026Y-1009649D01*
X+1403351Y-938974D01*
X+1403351Y-839026D01*
X+1474026Y-768351D01*
X+1573974Y-768351D01*
X+1644649Y-839026D01*
X+1390649Y-839026D02*
X+1390649Y-938974D01*
X+1319974Y-1009649D01*
X+1220026Y-1009649D01*
X+1149351Y-938974D01*
X+1149351Y-839026D01*
X+1220026Y-768351D01*
X+1319974Y-768351D01*
X+1390649Y-839026D01*
X+1981200Y-529042D02*
X+1981200Y-486958D01*
X+2010958Y-457200D01*
X+2053042Y-457200D01*
X+2082800Y-486958D01*
X+2082800Y-529042D01*
X+2053042Y-558800D01*
X+2010958Y-558800D01*
X+1981200Y-529042D01*
X+615951Y-581851D02*
X+380775Y-581851D01*
X+200851Y-761775D01*
X+200851Y-1016225D01*
X+380775Y-1196149D01*
X+615951Y-1196149D01*
X+615951Y-1327121D01*
X+523691Y-1327121D01*
X+548507Y-1302305D01*
X+548507Y-1260221D01*
X+518749Y-1230463D01*
X+476665Y-1230463D01*
X+446907Y-1260221D01*
X+446907Y-1302305D01*
X+471723Y-1327121D01*
X+427861Y-1327121D01*
X+387349Y-1286609D01*
X+387349Y-1214765D01*
X+309235Y-1136651D01*
X+209605Y-1136651D01*
X+209605Y-1128709D01*
X-42803Y-876301D01*
X-105694Y-876301D01*
X-156495Y-825500D01*
X-105694Y-774699D01*
X+84665Y-774699D01*
X+209606Y-649758D01*
X+209606Y-641349D01*
X+309235Y-641349D01*
X+387349Y-563235D01*
X+387349Y-491391D01*
X+428715Y-450025D01*
X+615951Y-450025D01*
X+615951Y-581851D01*
X+76687Y-834970D02*
X+76687Y-792886D01*
X+106445Y-763128D01*
X+148529Y-763128D01*
X+178287Y-792886D01*
X+178287Y-834970D01*
X+148529Y-864728D01*
X+106445Y-864728D01*
X+76687Y-834970D01*
X+409258Y-531571D02*
X+409258Y-489487D01*
X+439016Y-459729D01*
X+481100Y-459729D01*
X+510858Y-489487D01*
X+510858Y-531571D01*
X+481100Y-561329D01*
X+439016Y-561329D01*
X+409258Y-531571D01*
D20*
X+2406649Y+635000D02*
X+2286000Y+635000D01*
X+2286000Y+755649D02*
X+2286000Y+635000D01*
X+895351Y+635000D02*
X+1016000Y+635000D01*
X+1136649Y+635000D02*
X+1016000Y+635000D01*
X+1016000Y+514351D02*
X+1016000Y+635000D01*
X+1016000Y+755649D02*
X+1016000Y+635000D01*
X+2152649Y-127000D02*
X+2032000Y-127000D01*
X+1911351Y-127000D02*
X+2032000Y-127000D01*
X+2032000Y-6351D02*
X+2032000Y-127000D01*
X+3429000Y+1873251D02*
X+3429000Y+2032000D01*
X+3587749Y+2032000D02*
X+3429000Y+2032000D01*
X+3270251Y+2032000D02*
X+3429000Y+2032000D01*
X+3492500Y+971549D02*
X+3492500Y+825500D01*
X+3346451Y+825500D02*
X+3492500Y+825500D01*
D14*
X+254000Y+2540000D03*
D15*
X+0Y+2540000D03*
D14*
X+254000Y+1778000D03*
D15*
X+0Y+1778000D03*
D14*
X+254000Y+1016000D03*
D15*
X+0Y+1016000D03*
D14*
X+254000Y+254000D03*
D15*
X+0Y+254000D03*
D14*
X+254000Y-508000D03*
D15*
X+0Y-508000D03*
D14*
X+254000Y-1270000D03*
D15*
X+0Y-1270000D03*
D14*
X+1016000Y+2540000D03*
D15*
X+762000Y+2540000D03*
D14*
X+1016000Y+1778000D03*
D15*
X+762000Y+1778000D03*
D14*
X+1016000Y+1016000D03*
D15*
X+762000Y+1016000D03*
D14*
X+1016000Y+254000D03*
D15*
X+762000Y+254000D03*
D14*
X+1016000Y-508000D03*
D15*
X+762000Y-508000D03*
D14*
X+1016000Y-1270000D03*
D15*
X+762000Y-1270000D03*
D14*
X+1778000Y+2540000D03*
D15*
X+1524000Y+2540000D03*
D14*
X+1778000Y+1778000D03*
D15*
X+1524000Y+1778000D03*
D14*
X+1778000Y+1016000D03*
D15*
X+1524000Y+1016000D03*
D14*
X+1778000Y+254000D03*
D15*
X+1524000Y+254000D03*
D14*
X+1778000Y-508000D03*
D15*
X+1524000Y-508000D03*
D14*
X+1778000Y-1270000D03*
D15*
X+1524000Y-1270000D03*
D14*
X+2540000Y+2540000D03*
D15*
X+2286000Y+2540000D03*
D14*
X+2540000Y+1778000D03*
D15*
X+2286000Y+1778000D03*
D14*
X+2540000Y+1016000D03*
D15*
X+2286000Y+1016000D03*
D14*
X+2540000Y+254000D03*
D15*
X+2286000Y+254000D03*
D14*
X+2540000Y-508000D03*
D15*
X+2286000Y-508000D03*
D14*
X+2540000Y-1270000D03*
D15*
X+2286000Y-1270000D03*
D14*
X+3302000Y+2540000D03*
D15*
X+3048000Y+2540000D03*
D14*
X+3302000Y+1778000D03*
D15*
X+3048000Y+1778000D03*
D14*
X+3302000Y+1016000D03*
D15*
X+3048000Y+1016000D03*
D14*
X+3302000Y+254000D03*
D15*
X+3048000Y+254000D03*
D14*
X+3302000Y-508000D03*
D15*
X+3048000Y-508000D03*
D14*
X+3302000Y-1270000D03*
D15*
X+3048000Y-1270000D03*
D16*
X+2794000Y-889000D03*
X+508000Y-889000D03*
X+508000Y+2159000D03*
X+2794000Y+2159000D03*
D17*
X+3048000Y+635000D03*
D18*
X+2794000Y+635000D03*
X+2540000Y+635000D03*
X+2286000Y+635000D03*
X+2032000Y+635000D03*
X+1778000Y+635000D03*
X+1524000Y+635000D03*
X+1270000Y+635000D03*
X+1016000Y+635000D03*
X+762000Y+635000D03*
X+508000Y+635000D03*
X+254000Y+635000D03*
X+254000Y+1397000D03*
X+508000Y+1397000D03*
X+762000Y+1397000D03*
X+1016000Y+1397000D03*
X+1270000Y+1397000D03*
X+1524000Y+1397000D03*
X+1778000Y+1397000D03*
X+2032000Y+1397000D03*
X+2286000Y+1397000D03*
X+2540000Y+1397000D03*
X+2794000Y+1397000D03*
X+3048000Y+1397000D03*
D17*
X+1270000Y-127000D03*
D18*
X+1524000Y-127000D03*
X+1778000Y-127000D03*
X+2032000Y-127000D03*
X+2032000Y-889000D03*
X+1778000Y-889000D03*
X+1524000Y-889000D03*
X+1270000Y-889000D03*
D19*
X+3556000Y-444500D03*
X+3556000Y-698500D03*
X+3556000Y-952500D03*
X+3556000Y-1206500D03*
X+3556000Y-1460500D03*
X-254000Y-444500D03*
X-254000Y-698500D03*
X-254000Y-952500D03*
X-254000Y-1206500D03*
X-254000Y-1460500D03*
D70*
X+2032000Y+1968500D03*
X+1016000Y+1968500D03*
D19*
X+3429000Y+2286000D03*
X+3429000Y+2032000D03*
D70*
X+3492500Y+571500D03*
X+3492500Y+825500D03*
D71*
X-381000Y-1651000D02*
X+3683000Y-1651000D01*
X+3746500Y-1587500D02*
X+3746500Y+2857500D01*
X+3683000Y+2921000D02*
X-381000Y+2921000D01*
X-444500Y+2857500D02*
X-444500Y-1587500D01*
X+3746500Y-1587500D02*
X+3741601Y-1612490D01*
X+3728144Y-1632644D01*
X+3707990Y-1646101D01*
X+3683000Y-1651000D01*
X-444500Y-1587500D02*
X-439601Y-1612490D01*
X-426144Y-1632644D01*
X-405990Y-1646101D01*
X-381000Y-1651000D01*
X-444500Y+2857500D02*
X-439601Y+2882490D01*
X-426144Y+2902644D01*
X-405990Y+2916101D01*
X-381000Y+2921000D01*
X+3683000Y+2921000D02*
X+3707990Y+2916101D01*
X+3728144Y+2902644D01*
X+3741601Y+2882490D01*
X+3746500Y+2857500D01*
M02*
