G04 PROTEUS GERBER X2 FILE*
%TF.GenerationSoftware,Labcenter,Proteus,8.6-SP2-Build23525*%
%TF.CreationDate,2019-02-04T04:32:53+00:00*%
%TF.FileFunction,Legend,Bot*%
%TF.FilePolarity,Positive*%
%TF.Part,Single*%
%FSLAX45Y45*%
%MOMM*%
G01*
%TA.AperFunction,Material*%
%ADD21C,0.203200*%
%TA.AperFunction,Profile*%
%ADD71C,0.203200*%
%TA.AperFunction,NonMaterial*%
%ADD22C,0.063500*%
%TA.AperFunction,Material*%
%ADD23C,0.063500*%
%TD.AperFunction*%
D21*
X+3175000Y+1143000D02*
X+3175000Y+1270000D01*
X+127000Y+1270000D01*
X+127000Y+762000D01*
X+3175000Y+762000D01*
X+3175000Y+889000D01*
X+3048000Y+1016000D02*
X+3050436Y+1041876D01*
X+3057485Y+1065848D01*
X+3068762Y+1087438D01*
X+3083878Y+1106170D01*
X+3102446Y+1121569D01*
X+3124081Y+1133158D01*
X+3148394Y+1140460D01*
X+3175000Y+1143000D01*
X+3048000Y+1016000D02*
X+3050436Y+989394D01*
X+3057485Y+965081D01*
X+3068762Y+943446D01*
X+3083878Y+924878D01*
X+3102446Y+909762D01*
X+3124081Y+898485D01*
X+3148394Y+891436D01*
X+3175000Y+889000D01*
X+2139805Y+440835D02*
X+2139805Y+532275D01*
X+2092180Y+486555D01*
X+2044555Y+532275D01*
X+2044555Y+440835D01*
X+2012805Y+440835D02*
X+2012805Y+501795D01*
X+1981055Y+532275D01*
X+1949305Y+532275D01*
X+1917555Y+501795D01*
X+1917555Y+440835D01*
X+2012805Y+471315D02*
X+1917555Y+471315D01*
X+1885805Y+532275D02*
X+1790555Y+440835D01*
X+1885805Y+440835D02*
X+1790555Y+532275D01*
X+1742930Y+532275D02*
X+1663555Y+532275D01*
X+1663555Y+517035D01*
X+1742930Y+440835D01*
X+1615930Y+517035D02*
X+1600055Y+532275D01*
X+1552430Y+532275D01*
X+1536555Y+517035D01*
X+1536555Y+501795D01*
X+1552430Y+486555D01*
X+1600055Y+486555D01*
X+1615930Y+471315D01*
X+1615930Y+440835D01*
X+1536555Y+440835D01*
X+1473055Y+501795D02*
X+1441305Y+532275D01*
X+1441305Y+440835D01*
X+1282555Y+501795D02*
X+1298430Y+486555D01*
X+1346055Y+486555D01*
X+1361930Y+501795D01*
X+1361930Y+517035D01*
X+1346055Y+532275D01*
X+1298430Y+532275D01*
X+1282555Y+517035D01*
X+1282555Y+456075D01*
X+1298430Y+440835D01*
X+1346055Y+440835D01*
X+1143000Y-635000D02*
X+1143000Y-762000D01*
X+2159000Y-762000D01*
X+2159000Y-254000D01*
X+1143000Y-254000D01*
X+1143000Y-381000D01*
X+1270000Y-508000D02*
X+1267564Y-533876D01*
X+1260515Y-557848D01*
X+1249238Y-579438D01*
X+1234122Y-598170D01*
X+1215554Y-613569D01*
X+1193919Y-625158D01*
X+1169606Y-632460D01*
X+1143000Y-635000D01*
X+1270000Y-508000D02*
X+1267564Y-481394D01*
X+1260515Y-457081D01*
X+1249238Y-435446D01*
X+1234122Y-416878D01*
X+1215554Y-401762D01*
X+1193919Y-390485D01*
X+1169606Y-383436D01*
X+1143000Y-381000D01*
X+2453640Y-1061720D02*
X+2453640Y-1000760D01*
X+2421890Y-970280D01*
X+2390140Y-970280D01*
X+2358390Y-1000760D01*
X+2358390Y-1061720D01*
X+2453640Y-1031240D02*
X+2358390Y-1031240D01*
X+2326640Y-970280D02*
X+2231390Y-970280D01*
X+2279015Y-970280D02*
X+2279015Y-1061720D01*
X+2199640Y-970280D02*
X+2104390Y-970280D01*
X+2152015Y-970280D02*
X+2152015Y-1061720D01*
X+2056765Y-970280D02*
X+1993265Y-970280D01*
X+2025015Y-970280D02*
X+2025015Y-1061720D01*
X+2056765Y-1061720D02*
X+1993265Y-1061720D01*
X+1945640Y-1061720D02*
X+1945640Y-970280D01*
X+1850390Y-1061720D01*
X+1850390Y-970280D01*
X+1723390Y-970280D02*
X+1818640Y-1061720D01*
X+1818640Y-970280D02*
X+1771015Y-1016000D01*
X+1469390Y-1031240D02*
X+1564640Y-1031240D01*
X+1501140Y-970280D01*
X+1501140Y-1061720D01*
X+1342390Y-970280D02*
X+1421765Y-970280D01*
X+1421765Y-1000760D01*
X+1358265Y-1000760D01*
X+1342390Y-1016000D01*
X+1342390Y-1046480D01*
X+1358265Y-1061720D01*
X+1405890Y-1061720D01*
X+1421765Y-1046480D01*
X+1215390Y-970280D02*
X+1310640Y-1061720D01*
X+1151890Y-1016000D02*
X+1167765Y-1000760D01*
X+1167765Y-985520D01*
X+1151890Y-970280D01*
X+1104265Y-970280D01*
X+1088390Y-985520D01*
X+1088390Y-1000760D01*
X+1104265Y-1016000D01*
X+1151890Y-1016000D01*
X+1167765Y-1031240D01*
X+1167765Y-1046480D01*
X+1151890Y-1061720D01*
X+1104265Y-1061720D01*
X+1088390Y-1046480D01*
X+1088390Y-1031240D01*
X+1104265Y-1016000D01*
X+961390Y-970280D02*
X+1040765Y-970280D01*
X+1040765Y-1000760D01*
X+977265Y-1000760D01*
X+961390Y-1016000D01*
X+961390Y-1046480D01*
X+977265Y-1061720D01*
X+1024890Y-1061720D01*
X+1040765Y-1046480D01*
X+3429000Y-1587500D02*
X+3683000Y-1587500D01*
X+3683000Y-317500D01*
X+3429000Y-317500D01*
X+3429000Y-1587500D01*
X+3540219Y+466819D02*
X+3509739Y+435069D01*
X+3509739Y+403319D01*
X+3540219Y+371569D01*
X+3570699Y+371569D01*
X+3601179Y+403319D01*
X+3601179Y+435069D01*
X+3570699Y+466819D01*
X+3540219Y+466819D01*
X+3509739Y+339819D02*
X+3585939Y+339819D01*
X+3601179Y+323944D01*
X+3601179Y+260444D01*
X+3585939Y+244569D01*
X+3509739Y+244569D01*
X+3509739Y+212819D02*
X+3509739Y+117569D01*
X+3509739Y+165194D02*
X+3601179Y+165194D01*
X+3601179Y+85819D02*
X+3509739Y+85819D01*
X+3509739Y+6444D01*
X+3524979Y-9431D01*
X+3540219Y-9431D01*
X+3555459Y+6444D01*
X+3555459Y+85819D01*
X+3509739Y-41181D02*
X+3585939Y-41181D01*
X+3601179Y-57056D01*
X+3601179Y-120556D01*
X+3585939Y-136431D01*
X+3509739Y-136431D01*
X+3509739Y-168181D02*
X+3509739Y-263431D01*
X+3509739Y-215806D02*
X+3601179Y-215806D01*
X-381000Y-1587500D02*
X-127000Y-1587500D01*
X-127000Y-317500D01*
X-381000Y-317500D01*
X-381000Y-1587500D01*
X-311397Y+301625D02*
X-311397Y+238125D01*
X-311397Y+269875D02*
X-219957Y+269875D01*
X-219957Y+301625D02*
X-219957Y+238125D01*
X-219957Y+190500D02*
X-311397Y+190500D01*
X-219957Y+95250D01*
X-311397Y+95250D01*
X-219957Y+63500D02*
X-311397Y+63500D01*
X-311397Y-15875D01*
X-296157Y-31750D01*
X-280917Y-31750D01*
X-265677Y-15875D01*
X-265677Y+63500D01*
X-311397Y-63500D02*
X-235197Y-63500D01*
X-219957Y-79375D01*
X-219957Y-142875D01*
X-235197Y-158750D01*
X-311397Y-158750D01*
X-311397Y-190500D02*
X-311397Y-285750D01*
X-311397Y-238125D02*
X-219957Y-238125D01*
D71*
X-381000Y-1651000D02*
X+3683000Y-1651000D01*
X+3746500Y-1587500D02*
X+3746500Y+2857500D01*
X+3683000Y+2921000D02*
X-381000Y+2921000D01*
X-444500Y+2857500D02*
X-444500Y-1587500D01*
D22*
X+841700Y+2076288D02*
X+856940Y+2076288D01*
X+1121100Y+2076288D02*
X+1131260Y+2076288D01*
X+836620Y+2081368D02*
X+862020Y+2081368D01*
X+1110940Y+2081368D02*
X+1136340Y+2081368D01*
X+831540Y+2086448D02*
X+872180Y+2086448D01*
X+1105860Y+2086448D02*
X+1141420Y+2086448D01*
X+826460Y+2091528D02*
X+882340Y+2091528D01*
X+917900Y+2091528D02*
X+922980Y+2091528D01*
X+1095700Y+2091528D02*
X+1146500Y+2091528D01*
X+821380Y+2096608D02*
X+887420Y+2096608D01*
X+912820Y+2096608D02*
X+922980Y+2096608D01*
X+1049980Y+2096608D02*
X+1065220Y+2096608D01*
X+1090620Y+2096608D02*
X+1151580Y+2096608D01*
X+816300Y+2101688D02*
X+897580Y+2101688D01*
X+902660Y+2101688D02*
X+928060Y+2101688D01*
X+1049980Y+2101688D02*
X+1075380Y+2101688D01*
X+1080460Y+2101688D02*
X+1156660Y+2101688D01*
X+811220Y+2106768D02*
X+928060Y+2106768D01*
X+1049980Y+2106768D02*
X+1161740Y+2106768D01*
X+806140Y+2111848D02*
X+928060Y+2111848D01*
X+1044900Y+2111848D02*
X+1166820Y+2111848D01*
X+806140Y+2116928D02*
X+933140Y+2116928D01*
X+1044900Y+2116928D02*
X+1166820Y+2116928D01*
X+811220Y+2122008D02*
X+933140Y+2122008D01*
X+1039820Y+2122008D02*
X+1166820Y+2122008D01*
X+816300Y+2127088D02*
X+938220Y+2127088D01*
X+1039820Y+2127088D02*
X+1161740Y+2127088D01*
X+816300Y+2132168D02*
X+938220Y+2132168D01*
X+1039820Y+2132168D02*
X+1156660Y+2132168D01*
X+821380Y+2137248D02*
X+943300Y+2137248D01*
X+1034740Y+2137248D02*
X+1156660Y+2137248D01*
X+826460Y+2142328D02*
X+943300Y+2142328D01*
X+1034740Y+2142328D02*
X+1151580Y+2142328D01*
X+826460Y+2147408D02*
X+943300Y+2147408D01*
X+1029660Y+2147408D02*
X+1146500Y+2147408D01*
X+831540Y+2152488D02*
X+948380Y+2152488D01*
X+1029660Y+2152488D02*
X+1146500Y+2152488D01*
X+836620Y+2157568D02*
X+948380Y+2157568D01*
X+1029660Y+2157568D02*
X+1141420Y+2157568D01*
X+836620Y+2162648D02*
X+953460Y+2162648D01*
X+1024580Y+2162648D02*
X+1136340Y+2162648D01*
X+836620Y+2167728D02*
X+953460Y+2167728D01*
X+1024580Y+2167728D02*
X+1141420Y+2167728D01*
X+836620Y+2172808D02*
X+958540Y+2172808D01*
X+1019500Y+2172808D02*
X+1141420Y+2172808D01*
X+831540Y+2177888D02*
X+958540Y+2177888D01*
X+1019500Y+2177888D02*
X+1146500Y+2177888D01*
X+831540Y+2182968D02*
X+958540Y+2182968D01*
X+1014420Y+2182968D02*
X+1146500Y+2182968D01*
X+826460Y+2188048D02*
X+963620Y+2188048D01*
X+1014420Y+2188048D02*
X+1146500Y+2188048D01*
X+826460Y+2193128D02*
X+958540Y+2193128D01*
X+1014420Y+2193128D02*
X+1151580Y+2193128D01*
X+826460Y+2198208D02*
X+953460Y+2198208D01*
X+1024580Y+2198208D02*
X+1151580Y+2198208D01*
X+821380Y+2203288D02*
X+948380Y+2203288D01*
X+1029660Y+2203288D02*
X+1151580Y+2203288D01*
X+821380Y+2208368D02*
X+938220Y+2208368D01*
X+1034740Y+2208368D02*
X+1156660Y+2208368D01*
X+801060Y+2213448D02*
X+938220Y+2213448D01*
X+1039820Y+2213448D02*
X+1176980Y+2213448D01*
X+775660Y+2218528D02*
X+933140Y+2218528D01*
X+1044900Y+2218528D02*
X+1197300Y+2218528D01*
X+760420Y+2223608D02*
X+928060Y+2223608D01*
X+1044900Y+2223608D02*
X+1217620Y+2223608D01*
X+760420Y+2228688D02*
X+928060Y+2228688D01*
X+1049980Y+2228688D02*
X+1217620Y+2228688D01*
X+760420Y+2233768D02*
X+928060Y+2233768D01*
X+1049980Y+2233768D02*
X+1217620Y+2233768D01*
X+760420Y+2238848D02*
X+928060Y+2238848D01*
X+1049980Y+2238848D02*
X+1217620Y+2238848D01*
X+760420Y+2243928D02*
X+922980Y+2243928D01*
X+1049980Y+2243928D02*
X+1217620Y+2243928D01*
X+760420Y+2249008D02*
X+922980Y+2249008D01*
X+1049980Y+2249008D02*
X+1217620Y+2249008D01*
X+760420Y+2254088D02*
X+922980Y+2254088D01*
X+1049980Y+2254088D02*
X+1217620Y+2254088D01*
X+760420Y+2259168D02*
X+922980Y+2259168D01*
X+1049980Y+2259168D02*
X+1217620Y+2259168D01*
X+760420Y+2264248D02*
X+928060Y+2264248D01*
X+1049980Y+2264248D02*
X+1217620Y+2264248D01*
X+760420Y+2269328D02*
X+928060Y+2269328D01*
X+1049980Y+2269328D02*
X+1217620Y+2269328D01*
X+760420Y+2274408D02*
X+928060Y+2274408D01*
X+1049980Y+2274408D02*
X+1217620Y+2274408D01*
X+760420Y+2279488D02*
X+933140Y+2279488D01*
X+1044900Y+2279488D02*
X+1217620Y+2279488D01*
X+775660Y+2284568D02*
X+933140Y+2284568D01*
X+1039820Y+2284568D02*
X+1202380Y+2284568D01*
X+806140Y+2289648D02*
X+938220Y+2289648D01*
X+1039820Y+2289648D02*
X+1171900Y+2289648D01*
X+821380Y+2294728D02*
X+943300Y+2294728D01*
X+1034740Y+2294728D02*
X+1156660Y+2294728D01*
X+826460Y+2299808D02*
X+948380Y+2299808D01*
X+1029660Y+2299808D02*
X+1151580Y+2299808D01*
X+826460Y+2304888D02*
X+953460Y+2304888D01*
X+1019500Y+2304888D02*
X+1151580Y+2304888D01*
X+826460Y+2309968D02*
X+963620Y+2309968D01*
X+1014420Y+2309968D02*
X+1146500Y+2309968D01*
X+831540Y+2315048D02*
X+1146500Y+2315048D01*
X+831540Y+2320128D02*
X+1146500Y+2320128D01*
X+836620Y+2325208D02*
X+1141420Y+2325208D01*
X+836620Y+2330288D02*
X+1141420Y+2330288D01*
X+841700Y+2335368D02*
X+1136340Y+2335368D01*
X+836620Y+2340448D02*
X+1136340Y+2340448D01*
X+836620Y+2345528D02*
X+1141420Y+2345528D01*
X+831540Y+2350608D02*
X+1146500Y+2350608D01*
X+831540Y+2355688D02*
X+1146500Y+2355688D01*
X+826460Y+2360768D02*
X+1151580Y+2360768D01*
X+821380Y+2365848D02*
X+1156660Y+2365848D01*
X+816300Y+2370928D02*
X+1156660Y+2370928D01*
X+816300Y+2376008D02*
X+1161740Y+2376008D01*
X+811220Y+2381088D02*
X+1166820Y+2381088D01*
X+806140Y+2386168D02*
X+1166820Y+2386168D01*
X+806140Y+2391248D02*
X+1166820Y+2391248D01*
X+811220Y+2396328D02*
X+1161740Y+2396328D01*
X+816300Y+2401408D02*
X+892500Y+2401408D01*
X+912820Y+2401408D02*
X+1065220Y+2401408D01*
X+1080460Y+2401408D02*
X+1156660Y+2401408D01*
X+821380Y+2406488D02*
X+887420Y+2406488D01*
X+922980Y+2406488D02*
X+1055060Y+2406488D01*
X+1090620Y+2406488D02*
X+1151580Y+2406488D01*
X+826460Y+2411568D02*
X+877260Y+2411568D01*
X+938220Y+2411568D02*
X+1039820Y+2411568D01*
X+1095700Y+2411568D02*
X+1146500Y+2411568D01*
X+831540Y+2416648D02*
X+872180Y+2416648D01*
X+948380Y+2416648D02*
X+1029660Y+2416648D01*
X+1105860Y+2416648D02*
X+1141420Y+2416648D01*
X+836620Y+2421728D02*
X+867100Y+2421728D01*
X+948380Y+2421728D02*
X+1029660Y+2421728D01*
X+1110940Y+2421728D02*
X+1136340Y+2421728D01*
X+841700Y+2426808D02*
X+856940Y+2426808D01*
X+948380Y+2426808D02*
X+1029660Y+2426808D01*
X+1121100Y+2426808D02*
X+1131260Y+2426808D01*
X+948380Y+2431888D02*
X+1024580Y+2431888D01*
X+948380Y+2436968D02*
X+1024580Y+2436968D01*
X+953460Y+2442048D02*
X+1024580Y+2442048D01*
X+953460Y+2447128D02*
X+1024580Y+2447128D01*
X+953460Y+2452208D02*
X+1024580Y+2452208D01*
X+953460Y+2457288D02*
X+1024580Y+2457288D01*
X+953460Y+2462368D02*
X+1019500Y+2462368D01*
X+953460Y+2467448D02*
X+1019500Y+2467448D01*
X+958540Y+2472528D02*
X+1019500Y+2472528D01*
X+1813882Y+2026775D02*
X+1834202Y+2026775D01*
X+1890082Y+2026775D02*
X+1915482Y+2026775D01*
X+1971362Y+2026775D02*
X+1991682Y+2026775D01*
X+1803722Y+2031855D02*
X+1844362Y+2031855D01*
X+1879922Y+2031855D02*
X+1920562Y+2031855D01*
X+1961202Y+2031855D02*
X+1996762Y+2031855D01*
X+1798642Y+2036935D02*
X+1849442Y+2036935D01*
X+1879922Y+2036935D02*
X+1925642Y+2036935D01*
X+1956122Y+2036935D02*
X+2001842Y+2036935D01*
X+1798642Y+2042015D02*
X+1849442Y+2042015D01*
X+1874842Y+2042015D02*
X+1900242Y+2042015D01*
X+1905322Y+2042015D02*
X+1925642Y+2042015D01*
X+1951042Y+2042015D02*
X+1971362Y+2042015D01*
X+1986602Y+2042015D02*
X+2006922Y+2042015D01*
X+1798642Y+2047095D02*
X+1813882Y+2047095D01*
X+1834202Y+2047095D02*
X+1849442Y+2047095D01*
X+1874842Y+2047095D02*
X+1890082Y+2047095D01*
X+1910402Y+2047095D02*
X+1925642Y+2047095D01*
X+1951042Y+2047095D02*
X+1966282Y+2047095D01*
X+1991682Y+2047095D02*
X+2006922Y+2047095D01*
X+1798642Y+2052175D02*
X+1813882Y+2052175D01*
X+1834202Y+2052175D02*
X+1849442Y+2052175D01*
X+1874842Y+2052175D02*
X+1890082Y+2052175D01*
X+1910402Y+2052175D02*
X+1925642Y+2052175D01*
X+1951042Y+2052175D02*
X+1966282Y+2052175D01*
X+1991682Y+2052175D02*
X+2006922Y+2052175D01*
X+1798642Y+2057255D02*
X+1813882Y+2057255D01*
X+1834202Y+2057255D02*
X+1849442Y+2057255D01*
X+1874842Y+2057255D02*
X+1890082Y+2057255D01*
X+1910402Y+2057255D02*
X+1925642Y+2057255D01*
X+1951042Y+2057255D02*
X+1966282Y+2057255D01*
X+1991682Y+2057255D02*
X+2006922Y+2057255D01*
X+1798642Y+2062335D02*
X+1813882Y+2062335D01*
X+1834202Y+2062335D02*
X+1849442Y+2062335D01*
X+1874842Y+2062335D02*
X+1890082Y+2062335D01*
X+1910402Y+2062335D02*
X+1925642Y+2062335D01*
X+1951042Y+2062335D02*
X+1966282Y+2062335D01*
X+1991682Y+2062335D02*
X+2012002Y+2062335D01*
X+1717362Y+2067415D02*
X+1763082Y+2067415D01*
X+1798642Y+2067415D02*
X+1813882Y+2067415D01*
X+1834202Y+2067415D02*
X+1849442Y+2067415D01*
X+1874842Y+2067415D02*
X+1890082Y+2067415D01*
X+1910402Y+2067415D02*
X+1925642Y+2067415D01*
X+1951042Y+2067415D02*
X+1966282Y+2067415D01*
X+1996762Y+2067415D02*
X+2017082Y+2067415D01*
X+1712282Y+2072495D02*
X+1768162Y+2072495D01*
X+1798642Y+2072495D02*
X+1813882Y+2072495D01*
X+1834202Y+2072495D02*
X+1849442Y+2072495D01*
X+1874842Y+2072495D02*
X+1890082Y+2072495D01*
X+1910402Y+2072495D02*
X+1925642Y+2072495D01*
X+1951042Y+2072495D02*
X+1966282Y+2072495D01*
X+1996762Y+2072495D02*
X+2393002Y+2072495D01*
X+2413322Y+2072495D02*
X+2418402Y+2072495D01*
X+1712282Y+2077575D02*
X+1773242Y+2077575D01*
X+1798642Y+2077575D02*
X+1813882Y+2077575D01*
X+1834202Y+2077575D02*
X+1849442Y+2077575D01*
X+1874842Y+2077575D02*
X+1890082Y+2077575D01*
X+1910402Y+2077575D02*
X+1925642Y+2077575D01*
X+1951042Y+2077575D02*
X+1966282Y+2077575D01*
X+2001842Y+2077575D02*
X+2393002Y+2077575D01*
X+2413322Y+2077575D02*
X+2418402Y+2077575D01*
X+1707202Y+2082655D02*
X+1727522Y+2082655D01*
X+1758002Y+2082655D02*
X+1773242Y+2082655D01*
X+1798642Y+2082655D02*
X+1813882Y+2082655D01*
X+1834202Y+2082655D02*
X+1849442Y+2082655D01*
X+1874842Y+2082655D02*
X+1890082Y+2082655D01*
X+1910402Y+2082655D02*
X+1925642Y+2082655D01*
X+1951042Y+2082655D02*
X+1966282Y+2082655D01*
X+2012002Y+2082655D02*
X+2393002Y+2082655D01*
X+2398082Y+2082655D02*
X+2403162Y+2082655D01*
X+2413322Y+2082655D02*
X+2423482Y+2082655D01*
X+1707202Y+2087735D02*
X+1722442Y+2087735D01*
X+1758002Y+2087735D02*
X+1773242Y+2087735D01*
X+1798642Y+2087735D02*
X+1813882Y+2087735D01*
X+1834202Y+2087735D02*
X+1849442Y+2087735D01*
X+1874842Y+2087735D02*
X+1890082Y+2087735D01*
X+1910402Y+2087735D02*
X+1925642Y+2087735D01*
X+1951042Y+2087735D02*
X+1966282Y+2087735D01*
X+1707202Y+2092815D02*
X+1722442Y+2092815D01*
X+1758002Y+2092815D02*
X+1773242Y+2092815D01*
X+1798642Y+2092815D02*
X+1813882Y+2092815D01*
X+1834202Y+2092815D02*
X+1849442Y+2092815D01*
X+1874842Y+2092815D02*
X+1890082Y+2092815D01*
X+1910402Y+2092815D02*
X+1925642Y+2092815D01*
X+1951042Y+2092815D02*
X+1966282Y+2092815D01*
X+1707202Y+2097895D02*
X+1722442Y+2097895D01*
X+1758002Y+2097895D02*
X+1773242Y+2097895D01*
X+1798642Y+2097895D02*
X+1813882Y+2097895D01*
X+1834202Y+2097895D02*
X+1849442Y+2097895D01*
X+1874842Y+2097895D02*
X+1890082Y+2097895D01*
X+1910402Y+2097895D02*
X+1925642Y+2097895D01*
X+1951042Y+2097895D02*
X+1966282Y+2097895D01*
X+2032322Y+2097895D02*
X+2057722Y+2097895D01*
X+1707202Y+2102975D02*
X+1722442Y+2102975D01*
X+1758002Y+2102975D02*
X+1773242Y+2102975D01*
X+1798642Y+2102975D02*
X+1813882Y+2102975D01*
X+1834202Y+2102975D02*
X+1849442Y+2102975D01*
X+1874842Y+2102975D02*
X+1890082Y+2102975D01*
X+1910402Y+2102975D02*
X+1925642Y+2102975D01*
X+1951042Y+2102975D02*
X+1966282Y+2102975D01*
X+2017082Y+2102975D02*
X+2078042Y+2102975D01*
X+2154242Y+2102975D02*
X+2169482Y+2102975D01*
X+2372682Y+2102975D02*
X+2387922Y+2102975D01*
X+1707202Y+2108055D02*
X+1722442Y+2108055D01*
X+1758002Y+2108055D02*
X+1773242Y+2108055D01*
X+1798642Y+2108055D02*
X+1813882Y+2108055D01*
X+1834202Y+2108055D02*
X+1849442Y+2108055D01*
X+1874842Y+2108055D02*
X+1890082Y+2108055D01*
X+1910402Y+2108055D02*
X+1925642Y+2108055D01*
X+1951042Y+2108055D02*
X+1966282Y+2108055D01*
X+2006922Y+2108055D02*
X+2083122Y+2108055D01*
X+2149162Y+2108055D02*
X+2154242Y+2108055D01*
X+2169482Y+2108055D02*
X+2174562Y+2108055D01*
X+2367602Y+2108055D02*
X+2372682Y+2108055D01*
X+2387922Y+2108055D02*
X+2393002Y+2108055D01*
X+1707202Y+2113135D02*
X+1722442Y+2113135D01*
X+1758002Y+2113135D02*
X+1773242Y+2113135D01*
X+1798642Y+2113135D02*
X+1813882Y+2113135D01*
X+1834202Y+2113135D02*
X+1849442Y+2113135D01*
X+1874842Y+2113135D02*
X+1890082Y+2113135D01*
X+1910402Y+2113135D02*
X+1925642Y+2113135D01*
X+1951042Y+2113135D02*
X+1966282Y+2113135D01*
X+2001842Y+2113135D02*
X+2093282Y+2113135D01*
X+2149162Y+2113135D02*
X+2154242Y+2113135D01*
X+2174562Y+2113135D02*
X+2179642Y+2113135D01*
X+2367602Y+2113135D02*
X+2372682Y+2113135D01*
X+2387922Y+2113135D02*
X+2393002Y+2113135D01*
X+1707202Y+2118215D02*
X+1722442Y+2118215D01*
X+1758002Y+2118215D02*
X+1773242Y+2118215D01*
X+1798642Y+2118215D02*
X+1813882Y+2118215D01*
X+1834202Y+2118215D02*
X+1849442Y+2118215D01*
X+1874842Y+2118215D02*
X+1890082Y+2118215D01*
X+1910402Y+2118215D02*
X+1925642Y+2118215D01*
X+1951042Y+2118215D02*
X+1966282Y+2118215D01*
X+1996762Y+2118215D02*
X+2098362Y+2118215D01*
X+2149162Y+2118215D02*
X+2154242Y+2118215D01*
X+1707202Y+2123295D02*
X+1722442Y+2123295D01*
X+1758002Y+2123295D02*
X+1778322Y+2123295D01*
X+1793562Y+2123295D02*
X+1813882Y+2123295D01*
X+1834202Y+2123295D02*
X+1854522Y+2123295D01*
X+1874842Y+2123295D02*
X+1890082Y+2123295D01*
X+1910402Y+2123295D02*
X+1930722Y+2123295D01*
X+1951042Y+2123295D02*
X+1966282Y+2123295D01*
X+1991682Y+2123295D02*
X+2027242Y+2123295D01*
X+2062802Y+2123295D02*
X+2098362Y+2123295D01*
X+2149162Y+2123295D02*
X+2174562Y+2123295D01*
X+2184722Y+2123295D02*
X+2189802Y+2123295D01*
X+2205042Y+2123295D02*
X+2210122Y+2123295D01*
X+2220282Y+2123295D02*
X+2225362Y+2123295D01*
X+2240602Y+2123295D02*
X+2245682Y+2123295D01*
X+2255842Y+2123295D02*
X+2276162Y+2123295D01*
X+2286322Y+2123295D02*
X+2306642Y+2123295D01*
X+2316802Y+2123295D02*
X+2321882Y+2123295D01*
X+2342202Y+2123295D02*
X+2347282Y+2123295D01*
X+2367602Y+2123295D02*
X+2377762Y+2123295D01*
X+2382842Y+2123295D02*
X+2393002Y+2123295D01*
X+2398082Y+2123295D02*
X+2403162Y+2123295D01*
X+2423482Y+2123295D02*
X+2428562Y+2123295D01*
X+2438722Y+2123295D02*
X+2459042Y+2123295D01*
X+1707202Y+2128375D02*
X+1722442Y+2128375D01*
X+1763082Y+2128375D02*
X+1783402Y+2128375D01*
X+1788482Y+2128375D02*
X+1808802Y+2128375D01*
X+1839282Y+2128375D02*
X+1859602Y+2128375D01*
X+1864682Y+2128375D02*
X+1890082Y+2128375D01*
X+1915482Y+2128375D02*
X+1935802Y+2128375D01*
X+1940882Y+2128375D02*
X+1966282Y+2128375D01*
X+1991682Y+2128375D02*
X+2022162Y+2128375D01*
X+2072962Y+2128375D02*
X+2103442Y+2128375D01*
X+2149162Y+2128375D02*
X+2154242Y+2128375D01*
X+2174562Y+2128375D02*
X+2179642Y+2128375D01*
X+2184722Y+2128375D02*
X+2189802Y+2128375D01*
X+2205042Y+2128375D02*
X+2210122Y+2128375D01*
X+2220282Y+2128375D02*
X+2225362Y+2128375D01*
X+2240602Y+2128375D02*
X+2245682Y+2128375D01*
X+2250762Y+2128375D02*
X+2255842Y+2128375D01*
X+2271082Y+2128375D02*
X+2276162Y+2128375D01*
X+2286322Y+2128375D02*
X+2291402Y+2128375D01*
X+2306642Y+2128375D02*
X+2311722Y+2128375D01*
X+2316802Y+2128375D02*
X+2321882Y+2128375D01*
X+2342202Y+2128375D02*
X+2347282Y+2128375D01*
X+2367602Y+2128375D02*
X+2372682Y+2128375D01*
X+2387922Y+2128375D02*
X+2393002Y+2128375D01*
X+2398082Y+2128375D02*
X+2403162Y+2128375D01*
X+2423482Y+2128375D02*
X+2428562Y+2128375D01*
X+2459042Y+2128375D02*
X+2464122Y+2128375D01*
X+1707202Y+2133455D02*
X+1722442Y+2133455D01*
X+1763082Y+2133455D02*
X+1808802Y+2133455D01*
X+1839282Y+2133455D02*
X+1885002Y+2133455D01*
X+1915482Y+2133455D02*
X+1961202Y+2133455D01*
X+1986602Y+2133455D02*
X+2017082Y+2133455D01*
X+2078042Y+2133455D02*
X+2103442Y+2133455D01*
X+2149162Y+2133455D02*
X+2154242Y+2133455D01*
X+2174562Y+2133455D02*
X+2179642Y+2133455D01*
X+2184722Y+2133455D02*
X+2189802Y+2133455D01*
X+2205042Y+2133455D02*
X+2210122Y+2133455D01*
X+2220282Y+2133455D02*
X+2225362Y+2133455D01*
X+2240602Y+2133455D02*
X+2245682Y+2133455D01*
X+2271082Y+2133455D02*
X+2281242Y+2133455D01*
X+2306642Y+2133455D02*
X+2311722Y+2133455D01*
X+2316802Y+2133455D02*
X+2321882Y+2133455D01*
X+2342202Y+2133455D02*
X+2347282Y+2133455D01*
X+2393002Y+2133455D02*
X+2403162Y+2133455D01*
X+2423482Y+2133455D02*
X+2428562Y+2133455D01*
X+2453962Y+2133455D02*
X+2464122Y+2133455D01*
X+1707202Y+2138535D02*
X+1722442Y+2138535D01*
X+1768162Y+2138535D02*
X+1803722Y+2138535D01*
X+1844362Y+2138535D02*
X+1879922Y+2138535D01*
X+1920562Y+2138535D02*
X+1961202Y+2138535D01*
X+1986602Y+2138535D02*
X+2012002Y+2138535D01*
X+2083122Y+2138535D02*
X+2108522Y+2138535D01*
X+2149162Y+2138535D02*
X+2154242Y+2138535D01*
X+2174562Y+2138535D02*
X+2179642Y+2138535D01*
X+2184722Y+2138535D02*
X+2189802Y+2138535D01*
X+2205042Y+2138535D02*
X+2210122Y+2138535D01*
X+2220282Y+2138535D02*
X+2225362Y+2138535D01*
X+2240602Y+2138535D02*
X+2245682Y+2138535D01*
X+2255842Y+2138535D02*
X+2266002Y+2138535D01*
X+2271082Y+2138535D02*
X+2281242Y+2138535D01*
X+2286322Y+2138535D02*
X+2301562Y+2138535D01*
X+2306642Y+2138535D02*
X+2311722Y+2138535D01*
X+2316802Y+2138535D02*
X+2321882Y+2138535D01*
X+2342202Y+2138535D02*
X+2347282Y+2138535D01*
X+2393002Y+2138535D02*
X+2403162Y+2138535D01*
X+2423482Y+2138535D02*
X+2428562Y+2138535D01*
X+2438722Y+2138535D02*
X+2448882Y+2138535D01*
X+2459042Y+2138535D02*
X+2464122Y+2138535D01*
X+1707202Y+2143615D02*
X+1722442Y+2143615D01*
X+1773242Y+2143615D02*
X+1798642Y+2143615D01*
X+1849442Y+2143615D02*
X+1874842Y+2143615D01*
X+1925642Y+2143615D02*
X+1951042Y+2143615D01*
X+1986602Y+2143615D02*
X+2012002Y+2143615D01*
X+2083122Y+2143615D02*
X+2108522Y+2143615D01*
X+2149162Y+2143615D02*
X+2154242Y+2143615D01*
X+2174562Y+2143615D02*
X+2179642Y+2143615D01*
X+2184722Y+2143615D02*
X+2189802Y+2143615D01*
X+2205042Y+2143615D02*
X+2210122Y+2143615D01*
X+2220282Y+2143615D02*
X+2225362Y+2143615D01*
X+2240602Y+2143615D02*
X+2245682Y+2143615D01*
X+2250762Y+2143615D02*
X+2255842Y+2143615D01*
X+2271082Y+2143615D02*
X+2276162Y+2143615D01*
X+2286322Y+2143615D02*
X+2291402Y+2143615D01*
X+2306642Y+2143615D02*
X+2311722Y+2143615D01*
X+2316802Y+2143615D02*
X+2321882Y+2143615D01*
X+2342202Y+2143615D02*
X+2347282Y+2143615D01*
X+2367602Y+2143615D02*
X+2372682Y+2143615D01*
X+2387922Y+2143615D02*
X+2393002Y+2143615D01*
X+2423482Y+2143615D02*
X+2428562Y+2143615D01*
X+2433642Y+2143615D02*
X+2443802Y+2143615D01*
X+2459042Y+2143615D02*
X+2464122Y+2143615D01*
X+1676722Y+2148695D02*
X+1752922Y+2148695D01*
X+1986602Y+2148695D02*
X+2006922Y+2148695D01*
X+2083122Y+2148695D02*
X+2108522Y+2148695D01*
X+2149162Y+2148695D02*
X+2174562Y+2148695D01*
X+2184722Y+2148695D02*
X+2210122Y+2148695D01*
X+2220282Y+2148695D02*
X+2225362Y+2148695D01*
X+2230442Y+2148695D02*
X+2245682Y+2148695D01*
X+2255842Y+2148695D02*
X+2276162Y+2148695D01*
X+2286322Y+2148695D02*
X+2306642Y+2148695D01*
X+2321882Y+2148695D02*
X+2347282Y+2148695D01*
X+2367602Y+2148695D02*
X+2393002Y+2148695D01*
X+2403162Y+2148695D02*
X+2428562Y+2148695D01*
X+2438722Y+2148695D02*
X+2459042Y+2148695D01*
X+1676722Y+2153775D02*
X+1752922Y+2153775D01*
X+1986602Y+2153775D02*
X+2006922Y+2153775D01*
X+2083122Y+2153775D02*
X+2108522Y+2153775D01*
X+1676722Y+2158855D02*
X+1752922Y+2158855D01*
X+1981522Y+2158855D02*
X+2006922Y+2158855D01*
X+1676722Y+2163935D02*
X+1752922Y+2163935D01*
X+1981522Y+2163935D02*
X+2006922Y+2163935D01*
X+1676722Y+2169015D02*
X+1752922Y+2169015D01*
X+1981522Y+2169015D02*
X+2006922Y+2169015D01*
X+1676722Y+2174095D02*
X+1752922Y+2174095D01*
X+1895162Y+2174095D02*
X+1935802Y+2174095D01*
X+1981522Y+2174095D02*
X+2006922Y+2174095D01*
X+2037402Y+2174095D02*
X+2072962Y+2174095D01*
X+2199962Y+2174095D02*
X+2240602Y+2174095D01*
X+1676722Y+2179175D02*
X+1752922Y+2179175D01*
X+1829122Y+2179175D02*
X+1849442Y+2179175D01*
X+1885002Y+2179175D02*
X+1945962Y+2179175D01*
X+1981522Y+2179175D02*
X+2006922Y+2179175D01*
X+2027242Y+2179175D02*
X+2083122Y+2179175D01*
X+2128842Y+2179175D02*
X+2149162Y+2179175D01*
X+2189802Y+2179175D02*
X+2250762Y+2179175D01*
X+2382842Y+2179175D02*
X+2413322Y+2179175D01*
X+1676722Y+2184255D02*
X+1752922Y+2184255D01*
X+1829122Y+2184255D02*
X+1849442Y+2184255D01*
X+1874842Y+2184255D02*
X+1956122Y+2184255D01*
X+1981522Y+2184255D02*
X+2006922Y+2184255D01*
X+2022162Y+2184255D02*
X+2093282Y+2184255D01*
X+2128842Y+2184255D02*
X+2149162Y+2184255D01*
X+2179642Y+2184255D02*
X+2260922Y+2184255D01*
X+2362522Y+2184255D02*
X+2438722Y+2184255D01*
X+1676722Y+2189335D02*
X+1752922Y+2189335D01*
X+1829122Y+2189335D02*
X+1849442Y+2189335D01*
X+1874842Y+2189335D02*
X+1961202Y+2189335D01*
X+1981522Y+2189335D02*
X+2006922Y+2189335D01*
X+2017082Y+2189335D02*
X+2098362Y+2189335D01*
X+2128842Y+2189335D02*
X+2149162Y+2189335D01*
X+2174562Y+2189335D02*
X+2266002Y+2189335D01*
X+2347282Y+2189335D02*
X+2448882Y+2189335D01*
X+1676722Y+2194415D02*
X+1752922Y+2194415D01*
X+1829122Y+2194415D02*
X+1849442Y+2194415D01*
X+1869762Y+2194415D02*
X+1961202Y+2194415D01*
X+1981522Y+2194415D02*
X+2037402Y+2194415D01*
X+2057722Y+2194415D02*
X+2103442Y+2194415D01*
X+2128842Y+2194415D02*
X+2149162Y+2194415D01*
X+2174562Y+2194415D02*
X+2266002Y+2194415D01*
X+2337122Y+2194415D02*
X+2459042Y+2194415D01*
X+1676722Y+2199495D02*
X+1752922Y+2199495D01*
X+1829122Y+2199495D02*
X+1849442Y+2199495D01*
X+1864682Y+2199495D02*
X+1900242Y+2199495D01*
X+1930722Y+2199495D02*
X+1966282Y+2199495D01*
X+1981522Y+2199495D02*
X+2027242Y+2199495D01*
X+2072962Y+2199495D02*
X+2103442Y+2199495D01*
X+2128842Y+2199495D02*
X+2149162Y+2199495D01*
X+2169482Y+2199495D02*
X+2205042Y+2199495D01*
X+2235522Y+2199495D02*
X+2271082Y+2199495D01*
X+2332042Y+2199495D02*
X+2464122Y+2199495D01*
X+1676722Y+2204575D02*
X+1752922Y+2204575D01*
X+1829122Y+2204575D02*
X+1849442Y+2204575D01*
X+1864682Y+2204575D02*
X+1895162Y+2204575D01*
X+1935802Y+2204575D02*
X+1966282Y+2204575D01*
X+1981522Y+2204575D02*
X+2022162Y+2204575D01*
X+2078042Y+2204575D02*
X+2108522Y+2204575D01*
X+2128842Y+2204575D02*
X+2149162Y+2204575D01*
X+2169482Y+2204575D02*
X+2199962Y+2204575D01*
X+2240602Y+2204575D02*
X+2271082Y+2204575D01*
X+2326962Y+2204575D02*
X+2474282Y+2204575D01*
X+1676722Y+2209655D02*
X+1752922Y+2209655D01*
X+1829122Y+2209655D02*
X+1849442Y+2209655D01*
X+1864682Y+2209655D02*
X+1890082Y+2209655D01*
X+1940882Y+2209655D02*
X+1971362Y+2209655D01*
X+1981522Y+2209655D02*
X+2017082Y+2209655D01*
X+2083122Y+2209655D02*
X+2108522Y+2209655D01*
X+2128842Y+2209655D02*
X+2149162Y+2209655D01*
X+2164402Y+2209655D02*
X+2194882Y+2209655D01*
X+2245682Y+2209655D02*
X+2271082Y+2209655D01*
X+2316802Y+2209655D02*
X+2372682Y+2209655D01*
X+2423482Y+2209655D02*
X+2479362Y+2209655D01*
X+1676722Y+2214735D02*
X+1752922Y+2214735D01*
X+1829122Y+2214735D02*
X+1849442Y+2214735D01*
X+1859602Y+2214735D02*
X+1890082Y+2214735D01*
X+1945962Y+2214735D02*
X+1971362Y+2214735D01*
X+1981522Y+2214735D02*
X+2012002Y+2214735D01*
X+2083122Y+2214735D02*
X+2113602Y+2214735D01*
X+2128842Y+2214735D02*
X+2149162Y+2214735D01*
X+2164402Y+2214735D02*
X+2189802Y+2214735D01*
X+2245682Y+2214735D02*
X+2276162Y+2214735D01*
X+2311722Y+2214735D02*
X+2357442Y+2214735D01*
X+2433642Y+2214735D02*
X+2484442Y+2214735D01*
X+1829122Y+2219815D02*
X+1849442Y+2219815D01*
X+1859602Y+2219815D02*
X+1885002Y+2219815D01*
X+1945962Y+2219815D02*
X+1971362Y+2219815D01*
X+1981522Y+2219815D02*
X+2012002Y+2219815D01*
X+2088202Y+2219815D02*
X+2113602Y+2219815D01*
X+2128842Y+2219815D02*
X+2149162Y+2219815D01*
X+2164402Y+2219815D02*
X+2189802Y+2219815D01*
X+2250762Y+2219815D02*
X+2276162Y+2219815D01*
X+2311722Y+2219815D02*
X+2352362Y+2219815D01*
X+2443802Y+2219815D02*
X+2489522Y+2219815D01*
X+1829122Y+2224895D02*
X+1849442Y+2224895D01*
X+1859602Y+2224895D02*
X+1885002Y+2224895D01*
X+1945962Y+2224895D02*
X+1971362Y+2224895D01*
X+1981522Y+2224895D02*
X+2006922Y+2224895D01*
X+2088202Y+2224895D02*
X+2113602Y+2224895D01*
X+2128842Y+2224895D02*
X+2149162Y+2224895D01*
X+2164402Y+2224895D02*
X+2189802Y+2224895D01*
X+2250762Y+2224895D02*
X+2276162Y+2224895D01*
X+2306642Y+2224895D02*
X+2347282Y+2224895D01*
X+2448882Y+2224895D02*
X+2494602Y+2224895D01*
X+1829122Y+2229975D02*
X+1849442Y+2229975D01*
X+1859602Y+2229975D02*
X+1885002Y+2229975D01*
X+1945962Y+2229975D02*
X+1971362Y+2229975D01*
X+1981522Y+2229975D02*
X+2006922Y+2229975D01*
X+2088202Y+2229975D02*
X+2118682Y+2229975D01*
X+2128842Y+2229975D02*
X+2149162Y+2229975D01*
X+2164402Y+2229975D02*
X+2189802Y+2229975D01*
X+2250762Y+2229975D02*
X+2276162Y+2229975D01*
X+2301562Y+2229975D02*
X+2337122Y+2229975D01*
X+2459042Y+2229975D02*
X+2499682Y+2229975D01*
X+1829122Y+2235055D02*
X+1849442Y+2235055D01*
X+1859602Y+2235055D02*
X+1885002Y+2235055D01*
X+1945962Y+2235055D02*
X+1971362Y+2235055D01*
X+1981522Y+2235055D02*
X+2006922Y+2235055D01*
X+2093282Y+2235055D02*
X+2118682Y+2235055D01*
X+2128842Y+2235055D02*
X+2149162Y+2235055D01*
X+2164402Y+2235055D02*
X+2189802Y+2235055D01*
X+2250762Y+2235055D02*
X+2276162Y+2235055D01*
X+2301562Y+2235055D02*
X+2337122Y+2235055D01*
X+2464122Y+2235055D02*
X+2499682Y+2235055D01*
X+1829122Y+2240135D02*
X+1849442Y+2240135D01*
X+1859602Y+2240135D02*
X+1885002Y+2240135D01*
X+1945962Y+2240135D02*
X+1971362Y+2240135D01*
X+1981522Y+2240135D02*
X+2006922Y+2240135D01*
X+2093282Y+2240135D02*
X+2118682Y+2240135D01*
X+2128842Y+2240135D02*
X+2149162Y+2240135D01*
X+2164402Y+2240135D02*
X+2189802Y+2240135D01*
X+2250762Y+2240135D02*
X+2276162Y+2240135D01*
X+2296482Y+2240135D02*
X+2332042Y+2240135D01*
X+2469202Y+2240135D02*
X+2504762Y+2240135D01*
X+1829122Y+2245215D02*
X+1849442Y+2245215D01*
X+1859602Y+2245215D02*
X+1885002Y+2245215D01*
X+1945962Y+2245215D02*
X+1971362Y+2245215D01*
X+1981522Y+2245215D02*
X+2006922Y+2245215D01*
X+2093282Y+2245215D02*
X+2118682Y+2245215D01*
X+2128842Y+2245215D02*
X+2149162Y+2245215D01*
X+2164402Y+2245215D02*
X+2189802Y+2245215D01*
X+2250762Y+2245215D02*
X+2276162Y+2245215D01*
X+2296482Y+2245215D02*
X+2326962Y+2245215D01*
X+2469202Y+2245215D02*
X+2504762Y+2245215D01*
X+1829122Y+2250295D02*
X+1849442Y+2250295D01*
X+1859602Y+2250295D02*
X+1885002Y+2250295D01*
X+1945962Y+2250295D02*
X+1971362Y+2250295D01*
X+1981522Y+2250295D02*
X+2006922Y+2250295D01*
X+2093282Y+2250295D02*
X+2118682Y+2250295D01*
X+2128842Y+2250295D02*
X+2149162Y+2250295D01*
X+2164402Y+2250295D02*
X+2189802Y+2250295D01*
X+2250762Y+2250295D02*
X+2276162Y+2250295D01*
X+2291402Y+2250295D02*
X+2326962Y+2250295D01*
X+2474282Y+2250295D02*
X+2509842Y+2250295D01*
X+1676722Y+2255375D02*
X+1752922Y+2255375D01*
X+1829122Y+2255375D02*
X+1849442Y+2255375D01*
X+1859602Y+2255375D02*
X+1885002Y+2255375D01*
X+1945962Y+2255375D02*
X+1971362Y+2255375D01*
X+1981522Y+2255375D02*
X+2006922Y+2255375D01*
X+2093282Y+2255375D02*
X+2118682Y+2255375D01*
X+2128842Y+2255375D02*
X+2149162Y+2255375D01*
X+2164402Y+2255375D02*
X+2189802Y+2255375D01*
X+2250762Y+2255375D02*
X+2276162Y+2255375D01*
X+2291402Y+2255375D02*
X+2321882Y+2255375D01*
X+2479362Y+2255375D02*
X+2509842Y+2255375D01*
X+1676722Y+2260455D02*
X+1752922Y+2260455D01*
X+1824042Y+2260455D02*
X+1849442Y+2260455D01*
X+1859602Y+2260455D02*
X+1885002Y+2260455D01*
X+1945962Y+2260455D02*
X+1971362Y+2260455D01*
X+1981522Y+2260455D02*
X+2006922Y+2260455D01*
X+2088202Y+2260455D02*
X+2113602Y+2260455D01*
X+2128842Y+2260455D02*
X+2149162Y+2260455D01*
X+2164402Y+2260455D02*
X+2189802Y+2260455D01*
X+2250762Y+2260455D02*
X+2276162Y+2260455D01*
X+2291402Y+2260455D02*
X+2321882Y+2260455D01*
X+2479362Y+2260455D02*
X+2514922Y+2260455D01*
X+1676722Y+2265535D02*
X+1752922Y+2265535D01*
X+1824042Y+2265535D02*
X+1849442Y+2265535D01*
X+1859602Y+2265535D02*
X+1885002Y+2265535D01*
X+1945962Y+2265535D02*
X+1971362Y+2265535D01*
X+1981522Y+2265535D02*
X+2012002Y+2265535D01*
X+2088202Y+2265535D02*
X+2113602Y+2265535D01*
X+2128842Y+2265535D02*
X+2149162Y+2265535D01*
X+2164402Y+2265535D02*
X+2189802Y+2265535D01*
X+2250762Y+2265535D02*
X+2276162Y+2265535D01*
X+2291402Y+2265535D02*
X+2316802Y+2265535D01*
X+2484442Y+2265535D02*
X+2514922Y+2265535D01*
X+1676722Y+2270615D02*
X+1752922Y+2270615D01*
X+1824042Y+2270615D02*
X+1849442Y+2270615D01*
X+1859602Y+2270615D02*
X+1885002Y+2270615D01*
X+1945962Y+2270615D02*
X+1971362Y+2270615D01*
X+1981522Y+2270615D02*
X+2012002Y+2270615D01*
X+2083122Y+2270615D02*
X+2113602Y+2270615D01*
X+2128842Y+2270615D02*
X+2149162Y+2270615D01*
X+2164402Y+2270615D02*
X+2189802Y+2270615D01*
X+2250762Y+2270615D02*
X+2276162Y+2270615D01*
X+2286322Y+2270615D02*
X+2316802Y+2270615D01*
X+2484442Y+2270615D02*
X+2514922Y+2270615D01*
X+1676722Y+2275695D02*
X+1752922Y+2275695D01*
X+1824042Y+2275695D02*
X+1849442Y+2275695D01*
X+1859602Y+2275695D02*
X+1885002Y+2275695D01*
X+1945962Y+2275695D02*
X+1971362Y+2275695D01*
X+1981522Y+2275695D02*
X+2017082Y+2275695D01*
X+2083122Y+2275695D02*
X+2108522Y+2275695D01*
X+2128842Y+2275695D02*
X+2149162Y+2275695D01*
X+2164402Y+2275695D02*
X+2189802Y+2275695D01*
X+2250762Y+2275695D02*
X+2276162Y+2275695D01*
X+2286322Y+2275695D02*
X+2316802Y+2275695D01*
X+2489522Y+2275695D02*
X+2514922Y+2275695D01*
X+1676722Y+2280775D02*
X+1752922Y+2280775D01*
X+1818962Y+2280775D02*
X+1849442Y+2280775D01*
X+1859602Y+2280775D02*
X+1885002Y+2280775D01*
X+1945962Y+2280775D02*
X+1971362Y+2280775D01*
X+1981522Y+2280775D02*
X+2022162Y+2280775D01*
X+2078042Y+2280775D02*
X+2108522Y+2280775D01*
X+2128842Y+2280775D02*
X+2149162Y+2280775D01*
X+2164402Y+2280775D02*
X+2189802Y+2280775D01*
X+2250762Y+2280775D02*
X+2276162Y+2280775D01*
X+2286322Y+2280775D02*
X+2316802Y+2280775D01*
X+2489522Y+2280775D02*
X+2520002Y+2280775D01*
X+1676722Y+2285855D02*
X+1752922Y+2285855D01*
X+1813882Y+2285855D02*
X+1849442Y+2285855D01*
X+1859602Y+2285855D02*
X+1885002Y+2285855D01*
X+1945962Y+2285855D02*
X+1971362Y+2285855D01*
X+1981522Y+2285855D02*
X+2027242Y+2285855D01*
X+2072962Y+2285855D02*
X+2108522Y+2285855D01*
X+2128842Y+2285855D02*
X+2149162Y+2285855D01*
X+2164402Y+2285855D02*
X+2189802Y+2285855D01*
X+2250762Y+2285855D02*
X+2276162Y+2285855D01*
X+2286322Y+2285855D02*
X+2387922Y+2285855D01*
X+2489522Y+2285855D02*
X+2520002Y+2285855D01*
X+1676722Y+2290935D02*
X+1752922Y+2290935D01*
X+1778322Y+2290935D02*
X+1788482Y+2290935D01*
X+1803722Y+2290935D02*
X+1849442Y+2290935D01*
X+1859602Y+2290935D02*
X+1885002Y+2290935D01*
X+1945962Y+2290935D02*
X+1971362Y+2290935D01*
X+1981522Y+2290935D02*
X+2037402Y+2290935D01*
X+2062802Y+2290935D02*
X+2103442Y+2290935D01*
X+2128842Y+2290935D02*
X+2149162Y+2290935D01*
X+2164402Y+2290935D02*
X+2189802Y+2290935D01*
X+2250762Y+2290935D02*
X+2276162Y+2290935D01*
X+2286322Y+2290935D02*
X+2387922Y+2290935D01*
X+2489522Y+2290935D02*
X+2520002Y+2290935D01*
X+1676722Y+2296015D02*
X+1752922Y+2296015D01*
X+1773242Y+2296015D02*
X+1849442Y+2296015D01*
X+1859602Y+2296015D02*
X+1885002Y+2296015D01*
X+1945962Y+2296015D02*
X+1971362Y+2296015D01*
X+1981522Y+2296015D02*
X+2006922Y+2296015D01*
X+2012002Y+2296015D02*
X+2098362Y+2296015D01*
X+2128842Y+2296015D02*
X+2149162Y+2296015D01*
X+2164402Y+2296015D02*
X+2189802Y+2296015D01*
X+2250762Y+2296015D02*
X+2276162Y+2296015D01*
X+2286322Y+2296015D02*
X+2387922Y+2296015D01*
X+2489522Y+2296015D02*
X+2520002Y+2296015D01*
X+1676722Y+2301095D02*
X+1752922Y+2301095D01*
X+1773242Y+2301095D02*
X+1818962Y+2301095D01*
X+1829122Y+2301095D02*
X+1849442Y+2301095D01*
X+1859602Y+2301095D02*
X+1885002Y+2301095D01*
X+1945962Y+2301095D02*
X+1971362Y+2301095D01*
X+1981522Y+2301095D02*
X+2006922Y+2301095D01*
X+2017082Y+2301095D02*
X+2093282Y+2301095D01*
X+2128842Y+2301095D02*
X+2149162Y+2301095D01*
X+2164402Y+2301095D02*
X+2189802Y+2301095D01*
X+2250762Y+2301095D02*
X+2276162Y+2301095D01*
X+2286322Y+2301095D02*
X+2387922Y+2301095D01*
X+2494602Y+2301095D02*
X+2520002Y+2301095D01*
X+1676722Y+2306175D02*
X+1752922Y+2306175D01*
X+1768162Y+2306175D02*
X+1818962Y+2306175D01*
X+1829122Y+2306175D02*
X+1849442Y+2306175D01*
X+1859602Y+2306175D02*
X+1885002Y+2306175D01*
X+1945962Y+2306175D02*
X+1971362Y+2306175D01*
X+1981522Y+2306175D02*
X+2006922Y+2306175D01*
X+2022162Y+2306175D02*
X+2088202Y+2306175D01*
X+2128842Y+2306175D02*
X+2149162Y+2306175D01*
X+2164402Y+2306175D02*
X+2189802Y+2306175D01*
X+2250762Y+2306175D02*
X+2276162Y+2306175D01*
X+2286322Y+2306175D02*
X+2387922Y+2306175D01*
X+2494602Y+2306175D02*
X+2520002Y+2306175D01*
X+1676722Y+2311255D02*
X+1752922Y+2311255D01*
X+1773242Y+2311255D02*
X+1808802Y+2311255D01*
X+1829122Y+2311255D02*
X+1849442Y+2311255D01*
X+2032322Y+2311255D02*
X+2078042Y+2311255D01*
X+2494602Y+2311255D02*
X+2520002Y+2311255D01*
X+1676722Y+2316335D02*
X+1752922Y+2316335D01*
X+1783402Y+2316335D02*
X+1793562Y+2316335D01*
X+2489522Y+2316335D02*
X+2520002Y+2316335D01*
X+1676722Y+2321415D02*
X+1752922Y+2321415D01*
X+2489522Y+2321415D02*
X+2520002Y+2321415D01*
X+1707202Y+2326495D02*
X+1722442Y+2326495D01*
X+2489522Y+2326495D02*
X+2520002Y+2326495D01*
X+1707202Y+2331575D02*
X+1722442Y+2331575D01*
X+2489522Y+2331575D02*
X+2514922Y+2331575D01*
X+1707202Y+2336655D02*
X+1722442Y+2336655D01*
X+2128842Y+2336655D02*
X+2154242Y+2336655D01*
X+2489522Y+2336655D02*
X+2514922Y+2336655D01*
X+1707202Y+2341735D02*
X+1722442Y+2341735D01*
X+2118682Y+2341735D02*
X+2159322Y+2341735D01*
X+2484442Y+2341735D02*
X+2514922Y+2341735D01*
X+1707202Y+2346815D02*
X+1722442Y+2346815D01*
X+2113602Y+2346815D02*
X+2164402Y+2346815D01*
X+2484442Y+2346815D02*
X+2514922Y+2346815D01*
X+1707202Y+2351895D02*
X+1727522Y+2351895D01*
X+2113602Y+2351895D02*
X+2128842Y+2351895D01*
X+2149162Y+2351895D02*
X+2164402Y+2351895D01*
X+2479362Y+2351895D02*
X+2509842Y+2351895D01*
X+1712282Y+2356975D02*
X+2123762Y+2356975D01*
X+2154242Y+2356975D02*
X+2169482Y+2356975D01*
X+2479362Y+2356975D02*
X+2509842Y+2356975D01*
X+1712282Y+2362055D02*
X+2123762Y+2362055D01*
X+2154242Y+2362055D02*
X+2169482Y+2362055D01*
X+2474282Y+2362055D02*
X+2504762Y+2362055D01*
X+1717362Y+2367135D02*
X+2123762Y+2367135D01*
X+2154242Y+2367135D02*
X+2169482Y+2367135D01*
X+2469202Y+2367135D02*
X+2504762Y+2367135D01*
X+2108522Y+2372215D02*
X+2123762Y+2372215D01*
X+2154242Y+2372215D02*
X+2169482Y+2372215D01*
X+2464122Y+2372215D02*
X+2499682Y+2372215D01*
X+2113602Y+2377295D02*
X+2128842Y+2377295D01*
X+2149162Y+2377295D02*
X+2164402Y+2377295D01*
X+2464122Y+2377295D02*
X+2499682Y+2377295D01*
X+2113602Y+2382375D02*
X+2164402Y+2382375D01*
X+2453962Y+2382375D02*
X+2494602Y+2382375D01*
X+2118682Y+2387455D02*
X+2159322Y+2387455D01*
X+2342202Y+2387455D02*
X+2347282Y+2387455D01*
X+2448882Y+2387455D02*
X+2489522Y+2387455D01*
X+2128842Y+2392535D02*
X+2154242Y+2392535D01*
X+2337122Y+2392535D02*
X+2357442Y+2392535D01*
X+2438722Y+2392535D02*
X+2484442Y+2392535D01*
X+2332042Y+2397615D02*
X+2367602Y+2397615D01*
X+2428562Y+2397615D02*
X+2479362Y+2397615D01*
X+2332042Y+2402695D02*
X+2474282Y+2402695D01*
X+2332042Y+2407775D02*
X+2469202Y+2407775D01*
X+2337122Y+2412855D02*
X+2459042Y+2412855D01*
X+2347282Y+2417935D02*
X+2448882Y+2417935D01*
X+2357442Y+2423015D02*
X+2438722Y+2423015D01*
X+2377762Y+2428095D02*
X+2418402Y+2428095D01*
D23*
X-365760Y+912440D02*
X-365760Y+1003880D01*
X-365760Y+1059760D02*
X-365760Y+1166440D01*
X-365760Y+1191840D02*
X-365760Y+1283280D01*
X-365760Y+1323920D02*
X-365760Y+1445840D01*
X-365760Y+1471240D02*
X-365760Y+1593160D01*
X-365760Y+1618560D02*
X-365760Y+1710000D01*
X-365760Y+1806520D02*
X-365760Y+1842080D01*
X-365760Y+1984320D02*
X-365760Y+2019880D01*
X-365760Y+2070680D02*
X-365760Y+2106240D01*
X-365760Y+2136720D02*
X-365760Y+2197680D01*
X-365760Y+2243400D02*
X-365760Y+2350080D01*
X-365760Y+2380560D02*
X-365760Y+2502480D01*
X-365760Y+2563440D02*
X-365760Y+2624400D01*
X-365760Y+2685360D02*
X-365760Y+2720920D01*
X-365760Y+2802200D02*
X-365760Y+2837760D01*
X-360680Y+912440D02*
X-360680Y+1003880D01*
X-360680Y+1059760D02*
X-360680Y+1166440D01*
X-360680Y+1191840D02*
X-360680Y+1283280D01*
X-360680Y+1323920D02*
X-360680Y+1445840D01*
X-360680Y+1471240D02*
X-360680Y+1593160D01*
X-360680Y+1618560D02*
X-360680Y+1710000D01*
X-360680Y+1806520D02*
X-360680Y+1842080D01*
X-360680Y+1984320D02*
X-360680Y+2019880D01*
X-360680Y+2070680D02*
X-360680Y+2106240D01*
X-360680Y+2136720D02*
X-360680Y+2197680D01*
X-360680Y+2243400D02*
X-360680Y+2350080D01*
X-360680Y+2380560D02*
X-360680Y+2502480D01*
X-360680Y+2563440D02*
X-360680Y+2624400D01*
X-360680Y+2685360D02*
X-360680Y+2720920D01*
X-360680Y+2802200D02*
X-360680Y+2837760D01*
X-355600Y+912440D02*
X-355600Y+1003880D01*
X-355600Y+1059760D02*
X-355600Y+1166440D01*
X-355600Y+1191840D02*
X-355600Y+1283280D01*
X-355600Y+1323920D02*
X-355600Y+1445840D01*
X-355600Y+1471240D02*
X-355600Y+1593160D01*
X-355600Y+1618560D02*
X-355600Y+1710000D01*
X-355600Y+1806520D02*
X-355600Y+1842080D01*
X-355600Y+1984320D02*
X-355600Y+2019880D01*
X-355600Y+2070680D02*
X-355600Y+2106240D01*
X-355600Y+2136720D02*
X-355600Y+2197680D01*
X-355600Y+2243400D02*
X-355600Y+2350080D01*
X-355600Y+2380560D02*
X-355600Y+2502480D01*
X-355600Y+2563440D02*
X-355600Y+2624400D01*
X-355600Y+2685360D02*
X-355600Y+2720920D01*
X-355600Y+2802200D02*
X-355600Y+2837760D01*
X-350520Y+897200D02*
X-350520Y+1019120D01*
X-350520Y+1044520D02*
X-350520Y+1166440D01*
X-350520Y+1191840D02*
X-350520Y+1283280D01*
X-350520Y+1323920D02*
X-350520Y+1445840D01*
X-350520Y+1471240D02*
X-350520Y+1593160D01*
X-350520Y+1618560D02*
X-350520Y+1710000D01*
X-350520Y+1806520D02*
X-350520Y+1842080D01*
X-350520Y+1984320D02*
X-350520Y+2035120D01*
X-350520Y+2055440D02*
X-350520Y+2106240D01*
X-350520Y+2136720D02*
X-350520Y+2197680D01*
X-350520Y+2228160D02*
X-350520Y+2350080D01*
X-350520Y+2380560D02*
X-350520Y+2502480D01*
X-350520Y+2548200D02*
X-350520Y+2639640D01*
X-350520Y+2685360D02*
X-350520Y+2736160D01*
X-350520Y+2786960D02*
X-350520Y+2837760D01*
X-345440Y+897200D02*
X-345440Y+1019120D01*
X-345440Y+1044520D02*
X-345440Y+1166440D01*
X-345440Y+1191840D02*
X-345440Y+1283280D01*
X-345440Y+1323920D02*
X-345440Y+1445840D01*
X-345440Y+1471240D02*
X-345440Y+1593160D01*
X-345440Y+1618560D02*
X-345440Y+1710000D01*
X-345440Y+1806520D02*
X-345440Y+1842080D01*
X-345440Y+1984320D02*
X-345440Y+2035120D01*
X-345440Y+2055440D02*
X-345440Y+2106240D01*
X-345440Y+2136720D02*
X-345440Y+2197680D01*
X-345440Y+2228160D02*
X-345440Y+2350080D01*
X-345440Y+2380560D02*
X-345440Y+2502480D01*
X-345440Y+2548200D02*
X-345440Y+2639640D01*
X-345440Y+2685360D02*
X-345440Y+2736160D01*
X-345440Y+2786960D02*
X-345440Y+2837760D01*
X-340360Y+897200D02*
X-340360Y+1019120D01*
X-340360Y+1044520D02*
X-340360Y+1166440D01*
X-340360Y+1191840D02*
X-340360Y+1283280D01*
X-340360Y+1323920D02*
X-340360Y+1445840D01*
X-340360Y+1471240D02*
X-340360Y+1593160D01*
X-340360Y+1618560D02*
X-340360Y+1710000D01*
X-340360Y+1806520D02*
X-340360Y+1842080D01*
X-340360Y+1984320D02*
X-340360Y+2035120D01*
X-340360Y+2055440D02*
X-340360Y+2106240D01*
X-340360Y+2136720D02*
X-340360Y+2197680D01*
X-340360Y+2228160D02*
X-340360Y+2350080D01*
X-340360Y+2380560D02*
X-340360Y+2502480D01*
X-340360Y+2548200D02*
X-340360Y+2639640D01*
X-340360Y+2685360D02*
X-340360Y+2736160D01*
X-340360Y+2786960D02*
X-340360Y+2837760D01*
X-335280Y+897200D02*
X-335280Y+932760D01*
X-335280Y+983560D02*
X-335280Y+1019120D01*
X-335280Y+1044520D02*
X-335280Y+1080080D01*
X-335280Y+1130880D02*
X-335280Y+1166440D01*
X-335280Y+1247720D02*
X-335280Y+1283280D01*
X-335280Y+1369640D02*
X-335280Y+1405200D01*
X-335280Y+1516960D02*
X-335280Y+1552520D01*
X-335280Y+1674440D02*
X-335280Y+1710000D01*
X-335280Y+1806520D02*
X-335280Y+1842080D01*
X-335280Y+1999560D02*
X-335280Y+2035120D01*
X-335280Y+2055440D02*
X-335280Y+2091000D01*
X-335280Y+2146880D02*
X-335280Y+2182440D01*
X-335280Y+2228160D02*
X-335280Y+2263720D01*
X-335280Y+2314520D02*
X-335280Y+2350080D01*
X-335280Y+2426280D02*
X-335280Y+2461840D01*
X-335280Y+2532960D02*
X-335280Y+2583760D01*
X-335280Y+2604080D02*
X-335280Y+2654880D01*
X-335280Y+2685360D02*
X-335280Y+2751400D01*
X-335280Y+2776800D02*
X-335280Y+2837760D01*
X-330200Y+897200D02*
X-330200Y+932760D01*
X-330200Y+983560D02*
X-330200Y+1019120D01*
X-330200Y+1044520D02*
X-330200Y+1080080D01*
X-330200Y+1130880D02*
X-330200Y+1166440D01*
X-330200Y+1247720D02*
X-330200Y+1283280D01*
X-330200Y+1369640D02*
X-330200Y+1405200D01*
X-330200Y+1516960D02*
X-330200Y+1552520D01*
X-330200Y+1674440D02*
X-330200Y+1710000D01*
X-330200Y+1806520D02*
X-330200Y+1842080D01*
X-330200Y+1999560D02*
X-330200Y+2035120D01*
X-330200Y+2055440D02*
X-330200Y+2091000D01*
X-330200Y+2146880D02*
X-330200Y+2182440D01*
X-330200Y+2228160D02*
X-330200Y+2263720D01*
X-330200Y+2314520D02*
X-330200Y+2350080D01*
X-330200Y+2426280D02*
X-330200Y+2461840D01*
X-330200Y+2532960D02*
X-330200Y+2583760D01*
X-330200Y+2604080D02*
X-330200Y+2654880D01*
X-330200Y+2685360D02*
X-330200Y+2751400D01*
X-330200Y+2776800D02*
X-330200Y+2837760D01*
X-325120Y+897200D02*
X-325120Y+932760D01*
X-325120Y+983560D02*
X-325120Y+1019120D01*
X-325120Y+1044520D02*
X-325120Y+1080080D01*
X-325120Y+1130880D02*
X-325120Y+1166440D01*
X-325120Y+1247720D02*
X-325120Y+1283280D01*
X-325120Y+1369640D02*
X-325120Y+1405200D01*
X-325120Y+1516960D02*
X-325120Y+1552520D01*
X-325120Y+1674440D02*
X-325120Y+1710000D01*
X-325120Y+1806520D02*
X-325120Y+1842080D01*
X-325120Y+1999560D02*
X-325120Y+2035120D01*
X-325120Y+2055440D02*
X-325120Y+2091000D01*
X-325120Y+2146880D02*
X-325120Y+2182440D01*
X-325120Y+2228160D02*
X-325120Y+2263720D01*
X-325120Y+2314520D02*
X-325120Y+2350080D01*
X-325120Y+2426280D02*
X-325120Y+2461840D01*
X-325120Y+2532960D02*
X-325120Y+2583760D01*
X-325120Y+2604080D02*
X-325120Y+2654880D01*
X-325120Y+2685360D02*
X-325120Y+2751400D01*
X-325120Y+2776800D02*
X-325120Y+2837760D01*
X-320040Y+983560D02*
X-320040Y+1019120D01*
X-320040Y+1044520D02*
X-320040Y+1080080D01*
X-320040Y+1130880D02*
X-320040Y+1166440D01*
X-320040Y+1247720D02*
X-320040Y+1283280D01*
X-320040Y+1369640D02*
X-320040Y+1405200D01*
X-320040Y+1516960D02*
X-320040Y+1552520D01*
X-320040Y+1674440D02*
X-320040Y+1710000D01*
X-320040Y+1806520D02*
X-320040Y+1842080D01*
X-320040Y+1999560D02*
X-320040Y+2091000D01*
X-320040Y+2146880D02*
X-320040Y+2182440D01*
X-320040Y+2228160D02*
X-320040Y+2263720D01*
X-320040Y+2314520D02*
X-320040Y+2350080D01*
X-320040Y+2426280D02*
X-320040Y+2461840D01*
X-320040Y+2532960D02*
X-320040Y+2568520D01*
X-320040Y+2619320D02*
X-320040Y+2654880D01*
X-320040Y+2685360D02*
X-320040Y+2837760D01*
X-314960Y+983560D02*
X-314960Y+1019120D01*
X-314960Y+1044520D02*
X-314960Y+1080080D01*
X-314960Y+1130880D02*
X-314960Y+1166440D01*
X-314960Y+1247720D02*
X-314960Y+1283280D01*
X-314960Y+1369640D02*
X-314960Y+1405200D01*
X-314960Y+1516960D02*
X-314960Y+1552520D01*
X-314960Y+1674440D02*
X-314960Y+1710000D01*
X-314960Y+1806520D02*
X-314960Y+1842080D01*
X-314960Y+1999560D02*
X-314960Y+2091000D01*
X-314960Y+2146880D02*
X-314960Y+2182440D01*
X-314960Y+2228160D02*
X-314960Y+2263720D01*
X-314960Y+2314520D02*
X-314960Y+2350080D01*
X-314960Y+2426280D02*
X-314960Y+2461840D01*
X-314960Y+2532960D02*
X-314960Y+2568520D01*
X-314960Y+2619320D02*
X-314960Y+2654880D01*
X-314960Y+2685360D02*
X-314960Y+2837760D01*
X-309880Y+983560D02*
X-309880Y+1019120D01*
X-309880Y+1044520D02*
X-309880Y+1080080D01*
X-309880Y+1130880D02*
X-309880Y+1166440D01*
X-309880Y+1247720D02*
X-309880Y+1283280D01*
X-309880Y+1369640D02*
X-309880Y+1405200D01*
X-309880Y+1516960D02*
X-309880Y+1552520D01*
X-309880Y+1674440D02*
X-309880Y+1710000D01*
X-309880Y+1806520D02*
X-309880Y+1842080D01*
X-309880Y+1999560D02*
X-309880Y+2091000D01*
X-309880Y+2146880D02*
X-309880Y+2182440D01*
X-309880Y+2228160D02*
X-309880Y+2263720D01*
X-309880Y+2314520D02*
X-309880Y+2350080D01*
X-309880Y+2426280D02*
X-309880Y+2461840D01*
X-309880Y+2532960D02*
X-309880Y+2568520D01*
X-309880Y+2619320D02*
X-309880Y+2654880D01*
X-309880Y+2685360D02*
X-309880Y+2837760D01*
X-304800Y+912440D02*
X-304800Y+1019120D01*
X-304800Y+1044520D02*
X-304800Y+1166440D01*
X-304800Y+1191840D02*
X-304800Y+1283280D01*
X-304800Y+1369640D02*
X-304800Y+1405200D01*
X-304800Y+1516960D02*
X-304800Y+1552520D01*
X-304800Y+1618560D02*
X-304800Y+1710000D01*
X-304800Y+1806520D02*
X-304800Y+1842080D01*
X-304800Y+2014800D02*
X-304800Y+2075760D01*
X-304800Y+2146880D02*
X-304800Y+2182440D01*
X-304800Y+2228160D02*
X-304800Y+2350080D01*
X-304800Y+2426280D02*
X-304800Y+2461840D01*
X-304800Y+2532960D02*
X-304800Y+2568520D01*
X-304800Y+2619320D02*
X-304800Y+2654880D01*
X-304800Y+2685360D02*
X-304800Y+2720920D01*
X-304800Y+2731080D02*
X-304800Y+2797120D01*
X-304800Y+2802200D02*
X-304800Y+2837760D01*
X-299720Y+912440D02*
X-299720Y+1019120D01*
X-299720Y+1044520D02*
X-299720Y+1166440D01*
X-299720Y+1191840D02*
X-299720Y+1283280D01*
X-299720Y+1369640D02*
X-299720Y+1405200D01*
X-299720Y+1516960D02*
X-299720Y+1552520D01*
X-299720Y+1618560D02*
X-299720Y+1710000D01*
X-299720Y+1806520D02*
X-299720Y+1842080D01*
X-299720Y+2014800D02*
X-299720Y+2075760D01*
X-299720Y+2146880D02*
X-299720Y+2182440D01*
X-299720Y+2228160D02*
X-299720Y+2350080D01*
X-299720Y+2426280D02*
X-299720Y+2461840D01*
X-299720Y+2532960D02*
X-299720Y+2568520D01*
X-299720Y+2619320D02*
X-299720Y+2654880D01*
X-299720Y+2685360D02*
X-299720Y+2720920D01*
X-299720Y+2731080D02*
X-299720Y+2797120D01*
X-299720Y+2802200D02*
X-299720Y+2837760D01*
X-294640Y+912440D02*
X-294640Y+1019120D01*
X-294640Y+1044520D02*
X-294640Y+1166440D01*
X-294640Y+1191840D02*
X-294640Y+1283280D01*
X-294640Y+1369640D02*
X-294640Y+1405200D01*
X-294640Y+1516960D02*
X-294640Y+1552520D01*
X-294640Y+1618560D02*
X-294640Y+1710000D01*
X-294640Y+1806520D02*
X-294640Y+1842080D01*
X-294640Y+2014800D02*
X-294640Y+2075760D01*
X-294640Y+2146880D02*
X-294640Y+2182440D01*
X-294640Y+2228160D02*
X-294640Y+2350080D01*
X-294640Y+2426280D02*
X-294640Y+2461840D01*
X-294640Y+2532960D02*
X-294640Y+2568520D01*
X-294640Y+2619320D02*
X-294640Y+2654880D01*
X-294640Y+2685360D02*
X-294640Y+2720920D01*
X-294640Y+2731080D02*
X-294640Y+2797120D01*
X-294640Y+2802200D02*
X-294640Y+2837760D01*
X-289560Y+897200D02*
X-289560Y+1003880D01*
X-289560Y+1059760D02*
X-289560Y+1166440D01*
X-289560Y+1191840D02*
X-289560Y+1283280D01*
X-289560Y+1369640D02*
X-289560Y+1405200D01*
X-289560Y+1516960D02*
X-289560Y+1552520D01*
X-289560Y+1618560D02*
X-289560Y+1710000D01*
X-289560Y+1806520D02*
X-289560Y+1842080D01*
X-289560Y+1867480D02*
X-289560Y+1958920D01*
X-289560Y+2030040D02*
X-289560Y+2065600D01*
X-289560Y+2146880D02*
X-289560Y+2182440D01*
X-289560Y+2243400D02*
X-289560Y+2350080D01*
X-289560Y+2426280D02*
X-289560Y+2461840D01*
X-289560Y+2532960D02*
X-289560Y+2654880D01*
X-289560Y+2685360D02*
X-289560Y+2720920D01*
X-289560Y+2746320D02*
X-289560Y+2781880D01*
X-289560Y+2802200D02*
X-289560Y+2837760D01*
X-284480Y+897200D02*
X-284480Y+1003880D01*
X-284480Y+1059760D02*
X-284480Y+1166440D01*
X-284480Y+1191840D02*
X-284480Y+1283280D01*
X-284480Y+1369640D02*
X-284480Y+1405200D01*
X-284480Y+1516960D02*
X-284480Y+1552520D01*
X-284480Y+1618560D02*
X-284480Y+1710000D01*
X-284480Y+1806520D02*
X-284480Y+1842080D01*
X-284480Y+1867480D02*
X-284480Y+1958920D01*
X-284480Y+2030040D02*
X-284480Y+2065600D01*
X-284480Y+2146880D02*
X-284480Y+2182440D01*
X-284480Y+2243400D02*
X-284480Y+2350080D01*
X-284480Y+2426280D02*
X-284480Y+2461840D01*
X-284480Y+2532960D02*
X-284480Y+2654880D01*
X-284480Y+2685360D02*
X-284480Y+2720920D01*
X-284480Y+2746320D02*
X-284480Y+2781880D01*
X-284480Y+2802200D02*
X-284480Y+2837760D01*
X-279400Y+897200D02*
X-279400Y+1003880D01*
X-279400Y+1059760D02*
X-279400Y+1166440D01*
X-279400Y+1191840D02*
X-279400Y+1283280D01*
X-279400Y+1369640D02*
X-279400Y+1405200D01*
X-279400Y+1516960D02*
X-279400Y+1552520D01*
X-279400Y+1618560D02*
X-279400Y+1710000D01*
X-279400Y+1806520D02*
X-279400Y+1842080D01*
X-279400Y+1867480D02*
X-279400Y+1958920D01*
X-279400Y+2030040D02*
X-279400Y+2065600D01*
X-279400Y+2146880D02*
X-279400Y+2182440D01*
X-279400Y+2243400D02*
X-279400Y+2350080D01*
X-279400Y+2426280D02*
X-279400Y+2461840D01*
X-279400Y+2532960D02*
X-279400Y+2654880D01*
X-279400Y+2685360D02*
X-279400Y+2720920D01*
X-279400Y+2746320D02*
X-279400Y+2781880D01*
X-279400Y+2802200D02*
X-279400Y+2837760D01*
X-274320Y+897200D02*
X-274320Y+932760D01*
X-274320Y+1044520D02*
X-274320Y+1080080D01*
X-274320Y+1130880D02*
X-274320Y+1166440D01*
X-274320Y+1247720D02*
X-274320Y+1283280D01*
X-274320Y+1369640D02*
X-274320Y+1405200D01*
X-274320Y+1516960D02*
X-274320Y+1552520D01*
X-274320Y+1674440D02*
X-274320Y+1710000D01*
X-274320Y+1806520D02*
X-274320Y+1842080D01*
X-274320Y+1867480D02*
X-274320Y+1958920D01*
X-274320Y+2014800D02*
X-274320Y+2075760D01*
X-274320Y+2146880D02*
X-274320Y+2182440D01*
X-274320Y+2228160D02*
X-274320Y+2263720D01*
X-274320Y+2314520D02*
X-274320Y+2350080D01*
X-274320Y+2426280D02*
X-274320Y+2461840D01*
X-274320Y+2532960D02*
X-274320Y+2654880D01*
X-274320Y+2685360D02*
X-274320Y+2720920D01*
X-274320Y+2802200D02*
X-274320Y+2837760D01*
X-269240Y+897200D02*
X-269240Y+932760D01*
X-269240Y+1044520D02*
X-269240Y+1080080D01*
X-269240Y+1130880D02*
X-269240Y+1166440D01*
X-269240Y+1247720D02*
X-269240Y+1283280D01*
X-269240Y+1369640D02*
X-269240Y+1405200D01*
X-269240Y+1516960D02*
X-269240Y+1552520D01*
X-269240Y+1674440D02*
X-269240Y+1710000D01*
X-269240Y+1806520D02*
X-269240Y+1842080D01*
X-269240Y+1867480D02*
X-269240Y+1958920D01*
X-269240Y+2014800D02*
X-269240Y+2075760D01*
X-269240Y+2146880D02*
X-269240Y+2182440D01*
X-269240Y+2228160D02*
X-269240Y+2263720D01*
X-269240Y+2314520D02*
X-269240Y+2350080D01*
X-269240Y+2426280D02*
X-269240Y+2461840D01*
X-269240Y+2532960D02*
X-269240Y+2654880D01*
X-269240Y+2685360D02*
X-269240Y+2720920D01*
X-269240Y+2802200D02*
X-269240Y+2837760D01*
X-264160Y+897200D02*
X-264160Y+932760D01*
X-264160Y+1044520D02*
X-264160Y+1080080D01*
X-264160Y+1130880D02*
X-264160Y+1166440D01*
X-264160Y+1247720D02*
X-264160Y+1283280D01*
X-264160Y+1369640D02*
X-264160Y+1405200D01*
X-264160Y+1516960D02*
X-264160Y+1552520D01*
X-264160Y+1674440D02*
X-264160Y+1710000D01*
X-264160Y+1806520D02*
X-264160Y+1842080D01*
X-264160Y+1867480D02*
X-264160Y+1958920D01*
X-264160Y+1999560D02*
X-264160Y+2091000D01*
X-264160Y+2146880D02*
X-264160Y+2182440D01*
X-264160Y+2228160D02*
X-264160Y+2263720D01*
X-264160Y+2314520D02*
X-264160Y+2350080D01*
X-264160Y+2426280D02*
X-264160Y+2461840D01*
X-264160Y+2532960D02*
X-264160Y+2654880D01*
X-264160Y+2685360D02*
X-264160Y+2720920D01*
X-264160Y+2802200D02*
X-264160Y+2837760D01*
X-259080Y+897200D02*
X-259080Y+932760D01*
X-259080Y+1044520D02*
X-259080Y+1080080D01*
X-259080Y+1130880D02*
X-259080Y+1166440D01*
X-259080Y+1247720D02*
X-259080Y+1283280D01*
X-259080Y+1369640D02*
X-259080Y+1405200D01*
X-259080Y+1516960D02*
X-259080Y+1552520D01*
X-259080Y+1674440D02*
X-259080Y+1710000D01*
X-259080Y+1806520D02*
X-259080Y+1842080D01*
X-259080Y+1999560D02*
X-259080Y+2091000D01*
X-259080Y+2146880D02*
X-259080Y+2182440D01*
X-259080Y+2228160D02*
X-259080Y+2263720D01*
X-259080Y+2314520D02*
X-259080Y+2350080D01*
X-259080Y+2426280D02*
X-259080Y+2461840D01*
X-259080Y+2532960D02*
X-259080Y+2568520D01*
X-259080Y+2619320D02*
X-259080Y+2654880D01*
X-259080Y+2685360D02*
X-259080Y+2720920D01*
X-259080Y+2802200D02*
X-259080Y+2837760D01*
X-254000Y+897200D02*
X-254000Y+932760D01*
X-254000Y+1044520D02*
X-254000Y+1080080D01*
X-254000Y+1130880D02*
X-254000Y+1166440D01*
X-254000Y+1247720D02*
X-254000Y+1283280D01*
X-254000Y+1369640D02*
X-254000Y+1405200D01*
X-254000Y+1516960D02*
X-254000Y+1552520D01*
X-254000Y+1674440D02*
X-254000Y+1710000D01*
X-254000Y+1806520D02*
X-254000Y+1842080D01*
X-254000Y+1999560D02*
X-254000Y+2091000D01*
X-254000Y+2146880D02*
X-254000Y+2182440D01*
X-254000Y+2228160D02*
X-254000Y+2263720D01*
X-254000Y+2314520D02*
X-254000Y+2350080D01*
X-254000Y+2426280D02*
X-254000Y+2461840D01*
X-254000Y+2532960D02*
X-254000Y+2568520D01*
X-254000Y+2619320D02*
X-254000Y+2654880D01*
X-254000Y+2685360D02*
X-254000Y+2720920D01*
X-254000Y+2802200D02*
X-254000Y+2837760D01*
X-248920Y+897200D02*
X-248920Y+932760D01*
X-248920Y+983560D02*
X-248920Y+1019120D01*
X-248920Y+1044520D02*
X-248920Y+1080080D01*
X-248920Y+1130880D02*
X-248920Y+1166440D01*
X-248920Y+1247720D02*
X-248920Y+1283280D01*
X-248920Y+1369640D02*
X-248920Y+1405200D01*
X-248920Y+1516960D02*
X-248920Y+1552520D01*
X-248920Y+1674440D02*
X-248920Y+1710000D01*
X-248920Y+1806520D02*
X-248920Y+1842080D01*
X-248920Y+1999560D02*
X-248920Y+2035120D01*
X-248920Y+2055440D02*
X-248920Y+2091000D01*
X-248920Y+2146880D02*
X-248920Y+2182440D01*
X-248920Y+2228160D02*
X-248920Y+2263720D01*
X-248920Y+2314520D02*
X-248920Y+2350080D01*
X-248920Y+2426280D02*
X-248920Y+2461840D01*
X-248920Y+2532960D02*
X-248920Y+2568520D01*
X-248920Y+2619320D02*
X-248920Y+2654880D01*
X-248920Y+2685360D02*
X-248920Y+2720920D01*
X-248920Y+2802200D02*
X-248920Y+2837760D01*
X-243840Y+897200D02*
X-243840Y+932760D01*
X-243840Y+983560D02*
X-243840Y+1019120D01*
X-243840Y+1044520D02*
X-243840Y+1080080D01*
X-243840Y+1130880D02*
X-243840Y+1166440D01*
X-243840Y+1247720D02*
X-243840Y+1283280D01*
X-243840Y+1369640D02*
X-243840Y+1405200D01*
X-243840Y+1516960D02*
X-243840Y+1552520D01*
X-243840Y+1674440D02*
X-243840Y+1710000D01*
X-243840Y+1806520D02*
X-243840Y+1842080D01*
X-243840Y+1999560D02*
X-243840Y+2035120D01*
X-243840Y+2055440D02*
X-243840Y+2091000D01*
X-243840Y+2146880D02*
X-243840Y+2182440D01*
X-243840Y+2228160D02*
X-243840Y+2263720D01*
X-243840Y+2314520D02*
X-243840Y+2350080D01*
X-243840Y+2426280D02*
X-243840Y+2461840D01*
X-243840Y+2532960D02*
X-243840Y+2568520D01*
X-243840Y+2619320D02*
X-243840Y+2654880D01*
X-243840Y+2685360D02*
X-243840Y+2720920D01*
X-243840Y+2802200D02*
X-243840Y+2837760D01*
X-238760Y+897200D02*
X-238760Y+932760D01*
X-238760Y+983560D02*
X-238760Y+1019120D01*
X-238760Y+1044520D02*
X-238760Y+1080080D01*
X-238760Y+1130880D02*
X-238760Y+1166440D01*
X-238760Y+1247720D02*
X-238760Y+1283280D01*
X-238760Y+1369640D02*
X-238760Y+1405200D01*
X-238760Y+1516960D02*
X-238760Y+1552520D01*
X-238760Y+1674440D02*
X-238760Y+1710000D01*
X-238760Y+1806520D02*
X-238760Y+1842080D01*
X-238760Y+1999560D02*
X-238760Y+2035120D01*
X-238760Y+2055440D02*
X-238760Y+2091000D01*
X-238760Y+2146880D02*
X-238760Y+2182440D01*
X-238760Y+2228160D02*
X-238760Y+2263720D01*
X-238760Y+2314520D02*
X-238760Y+2350080D01*
X-238760Y+2426280D02*
X-238760Y+2461840D01*
X-238760Y+2532960D02*
X-238760Y+2568520D01*
X-238760Y+2619320D02*
X-238760Y+2654880D01*
X-238760Y+2685360D02*
X-238760Y+2720920D01*
X-238760Y+2802200D02*
X-238760Y+2837760D01*
X-233680Y+897200D02*
X-233680Y+1019120D01*
X-233680Y+1044520D02*
X-233680Y+1080080D01*
X-233680Y+1130880D02*
X-233680Y+1166440D01*
X-233680Y+1191840D02*
X-233680Y+1283280D01*
X-233680Y+1369640D02*
X-233680Y+1405200D01*
X-233680Y+1516960D02*
X-233680Y+1552520D01*
X-233680Y+1618560D02*
X-233680Y+1710000D01*
X-233680Y+1750640D02*
X-233680Y+1842080D01*
X-233680Y+1984320D02*
X-233680Y+2035120D01*
X-233680Y+2055440D02*
X-233680Y+2106240D01*
X-233680Y+2136720D02*
X-233680Y+2197680D01*
X-233680Y+2228160D02*
X-233680Y+2263720D01*
X-233680Y+2314520D02*
X-233680Y+2350080D01*
X-233680Y+2426280D02*
X-233680Y+2461840D01*
X-233680Y+2532960D02*
X-233680Y+2568520D01*
X-233680Y+2619320D02*
X-233680Y+2654880D01*
X-233680Y+2685360D02*
X-233680Y+2720920D01*
X-233680Y+2802200D02*
X-233680Y+2837760D01*
X-228600Y+897200D02*
X-228600Y+1019120D01*
X-228600Y+1044520D02*
X-228600Y+1080080D01*
X-228600Y+1130880D02*
X-228600Y+1166440D01*
X-228600Y+1191840D02*
X-228600Y+1283280D01*
X-228600Y+1369640D02*
X-228600Y+1405200D01*
X-228600Y+1516960D02*
X-228600Y+1552520D01*
X-228600Y+1618560D02*
X-228600Y+1710000D01*
X-228600Y+1750640D02*
X-228600Y+1842080D01*
X-228600Y+1984320D02*
X-228600Y+2035120D01*
X-228600Y+2055440D02*
X-228600Y+2106240D01*
X-228600Y+2136720D02*
X-228600Y+2197680D01*
X-228600Y+2228160D02*
X-228600Y+2263720D01*
X-228600Y+2314520D02*
X-228600Y+2350080D01*
X-228600Y+2426280D02*
X-228600Y+2461840D01*
X-228600Y+2532960D02*
X-228600Y+2568520D01*
X-228600Y+2619320D02*
X-228600Y+2654880D01*
X-228600Y+2685360D02*
X-228600Y+2720920D01*
X-228600Y+2802200D02*
X-228600Y+2837760D01*
X-223520Y+897200D02*
X-223520Y+1019120D01*
X-223520Y+1044520D02*
X-223520Y+1080080D01*
X-223520Y+1130880D02*
X-223520Y+1166440D01*
X-223520Y+1191840D02*
X-223520Y+1283280D01*
X-223520Y+1369640D02*
X-223520Y+1405200D01*
X-223520Y+1516960D02*
X-223520Y+1552520D01*
X-223520Y+1618560D02*
X-223520Y+1710000D01*
X-223520Y+1750640D02*
X-223520Y+1842080D01*
X-223520Y+1984320D02*
X-223520Y+2035120D01*
X-223520Y+2055440D02*
X-223520Y+2106240D01*
X-223520Y+2136720D02*
X-223520Y+2197680D01*
X-223520Y+2228160D02*
X-223520Y+2263720D01*
X-223520Y+2314520D02*
X-223520Y+2350080D01*
X-223520Y+2426280D02*
X-223520Y+2461840D01*
X-223520Y+2532960D02*
X-223520Y+2568520D01*
X-223520Y+2619320D02*
X-223520Y+2654880D01*
X-223520Y+2685360D02*
X-223520Y+2720920D01*
X-223520Y+2802200D02*
X-223520Y+2837760D01*
X-218440Y+912440D02*
X-218440Y+1003880D01*
X-218440Y+1044520D02*
X-218440Y+1080080D01*
X-218440Y+1130880D02*
X-218440Y+1166440D01*
X-218440Y+1191840D02*
X-218440Y+1283280D01*
X-218440Y+1369640D02*
X-218440Y+1405200D01*
X-218440Y+1516960D02*
X-218440Y+1552520D01*
X-218440Y+1618560D02*
X-218440Y+1710000D01*
X-218440Y+1750640D02*
X-218440Y+1842080D01*
X-218440Y+1984320D02*
X-218440Y+2019880D01*
X-218440Y+2070680D02*
X-218440Y+2106240D01*
X-218440Y+2136720D02*
X-218440Y+2197680D01*
X-218440Y+2228160D02*
X-218440Y+2263720D01*
X-218440Y+2314520D02*
X-218440Y+2350080D01*
X-218440Y+2426280D02*
X-218440Y+2461840D01*
X-218440Y+2532960D02*
X-218440Y+2568520D01*
X-218440Y+2619320D02*
X-218440Y+2654880D01*
X-218440Y+2685360D02*
X-218440Y+2720920D01*
X-218440Y+2802200D02*
X-218440Y+2837760D01*
X-213360Y+912440D02*
X-213360Y+1003880D01*
X-213360Y+1044520D02*
X-213360Y+1080080D01*
X-213360Y+1130880D02*
X-213360Y+1166440D01*
X-213360Y+1191840D02*
X-213360Y+1283280D01*
X-213360Y+1369640D02*
X-213360Y+1405200D01*
X-213360Y+1516960D02*
X-213360Y+1552520D01*
X-213360Y+1618560D02*
X-213360Y+1710000D01*
X-213360Y+1750640D02*
X-213360Y+1842080D01*
X-213360Y+1984320D02*
X-213360Y+2019880D01*
X-213360Y+2070680D02*
X-213360Y+2106240D01*
X-213360Y+2136720D02*
X-213360Y+2197680D01*
X-213360Y+2228160D02*
X-213360Y+2263720D01*
X-213360Y+2314520D02*
X-213360Y+2350080D01*
X-213360Y+2426280D02*
X-213360Y+2461840D01*
X-213360Y+2532960D02*
X-213360Y+2568520D01*
X-213360Y+2619320D02*
X-213360Y+2654880D01*
X-213360Y+2685360D02*
X-213360Y+2720920D01*
X-213360Y+2802200D02*
X-213360Y+2837760D01*
X-208280Y+912440D02*
X-208280Y+1003880D01*
X-208280Y+1044520D02*
X-208280Y+1080080D01*
X-208280Y+1130880D02*
X-208280Y+1166440D01*
X-208280Y+1191840D02*
X-208280Y+1283280D01*
X-208280Y+1369640D02*
X-208280Y+1405200D01*
X-208280Y+1516960D02*
X-208280Y+1552520D01*
X-208280Y+1618560D02*
X-208280Y+1710000D01*
X-208280Y+1750640D02*
X-208280Y+1842080D01*
X-208280Y+1984320D02*
X-208280Y+2019880D01*
X-208280Y+2070680D02*
X-208280Y+2106240D01*
X-208280Y+2136720D02*
X-208280Y+2197680D01*
X-208280Y+2228160D02*
X-208280Y+2263720D01*
X-208280Y+2314520D02*
X-208280Y+2350080D01*
X-208280Y+2426280D02*
X-208280Y+2461840D01*
X-208280Y+2532960D02*
X-208280Y+2568520D01*
X-208280Y+2619320D02*
X-208280Y+2654880D01*
X-208280Y+2685360D02*
X-208280Y+2720920D01*
X-208280Y+2802200D02*
X-208280Y+2837760D01*
X+631857Y-4648D02*
X+692817Y-4648D01*
X+733457Y-4648D02*
X+824897Y-4648D01*
X+880777Y-4648D02*
X+956977Y-4648D01*
X+1002697Y-4648D02*
X+1094137Y-4648D01*
X+1165257Y-4648D02*
X+1200817Y-4648D01*
X+1282097Y-4648D02*
X+1317657Y-4648D01*
X+1363377Y-4648D02*
X+1454817Y-4648D01*
X+1531017Y-4648D02*
X+1607217Y-4648D01*
X+1668177Y-4648D02*
X+1703737Y-4648D01*
X+1734217Y-4648D02*
X+1769777Y-4648D01*
X+1820577Y-4648D02*
X+1856137Y-4648D01*
X+1901857Y-4648D02*
X+1993297Y-4648D01*
X+2069497Y-4648D02*
X+2145697Y-4648D01*
X+2206657Y-4648D02*
X+2267617Y-4648D01*
X+2313337Y-4648D02*
X+2404777Y-4648D01*
X+2480977Y-4648D02*
X+2557177Y-4648D01*
X+631857Y+432D02*
X+692817Y+432D01*
X+733457Y+432D02*
X+824897Y+432D01*
X+880777Y+432D02*
X+956977Y+432D01*
X+1002697Y+432D02*
X+1094137Y+432D01*
X+1165257Y+432D02*
X+1200817Y+432D01*
X+1282097Y+432D02*
X+1317657Y+432D01*
X+1363377Y+432D02*
X+1454817Y+432D01*
X+1531017Y+432D02*
X+1607217Y+432D01*
X+1668177Y+432D02*
X+1703737Y+432D01*
X+1734217Y+432D02*
X+1769777Y+432D01*
X+1820577Y+432D02*
X+1856137Y+432D01*
X+1901857Y+432D02*
X+1993297Y+432D01*
X+2069497Y+432D02*
X+2145697Y+432D01*
X+2206657Y+432D02*
X+2267617Y+432D01*
X+2313337Y+432D02*
X+2404777Y+432D01*
X+2480977Y+432D02*
X+2557177Y+432D01*
X+631857Y+5512D02*
X+692817Y+5512D01*
X+733457Y+5512D02*
X+824897Y+5512D01*
X+880777Y+5512D02*
X+956977Y+5512D01*
X+1002697Y+5512D02*
X+1094137Y+5512D01*
X+1165257Y+5512D02*
X+1200817Y+5512D01*
X+1282097Y+5512D02*
X+1317657Y+5512D01*
X+1363377Y+5512D02*
X+1454817Y+5512D01*
X+1531017Y+5512D02*
X+1607217Y+5512D01*
X+1668177Y+5512D02*
X+1703737Y+5512D01*
X+1734217Y+5512D02*
X+1769777Y+5512D01*
X+1820577Y+5512D02*
X+1856137Y+5512D01*
X+1901857Y+5512D02*
X+1993297Y+5512D01*
X+2069497Y+5512D02*
X+2145697Y+5512D01*
X+2206657Y+5512D02*
X+2267617Y+5512D01*
X+2313337Y+5512D02*
X+2404777Y+5512D01*
X+2480977Y+5512D02*
X+2557177Y+5512D01*
X+616617Y+10592D02*
X+708057Y+10592D01*
X+733457Y+10592D02*
X+824897Y+10592D01*
X+865537Y+10592D02*
X+972217Y+10592D01*
X+1002697Y+10592D02*
X+1094137Y+10592D01*
X+1165257Y+10592D02*
X+1200817Y+10592D01*
X+1282097Y+10592D02*
X+1317657Y+10592D01*
X+1348137Y+10592D02*
X+1470057Y+10592D01*
X+1515777Y+10592D02*
X+1622457Y+10592D01*
X+1668177Y+10592D02*
X+1703737Y+10592D01*
X+1734217Y+10592D02*
X+1769777Y+10592D01*
X+1820577Y+10592D02*
X+1856137Y+10592D01*
X+1886617Y+10592D02*
X+2008537Y+10592D01*
X+2054257Y+10592D02*
X+2160937Y+10592D01*
X+2206657Y+10592D02*
X+2267617Y+10592D01*
X+2298097Y+10592D02*
X+2420017Y+10592D01*
X+2465737Y+10592D02*
X+2572417Y+10592D01*
X+616617Y+15672D02*
X+708057Y+15672D01*
X+733457Y+15672D02*
X+824897Y+15672D01*
X+865537Y+15672D02*
X+972217Y+15672D01*
X+1002697Y+15672D02*
X+1094137Y+15672D01*
X+1165257Y+15672D02*
X+1200817Y+15672D01*
X+1282097Y+15672D02*
X+1317657Y+15672D01*
X+1348137Y+15672D02*
X+1470057Y+15672D01*
X+1515777Y+15672D02*
X+1622457Y+15672D01*
X+1668177Y+15672D02*
X+1703737Y+15672D01*
X+1734217Y+15672D02*
X+1769777Y+15672D01*
X+1820577Y+15672D02*
X+1856137Y+15672D01*
X+1886617Y+15672D02*
X+2008537Y+15672D01*
X+2054257Y+15672D02*
X+2160937Y+15672D01*
X+2206657Y+15672D02*
X+2267617Y+15672D01*
X+2298097Y+15672D02*
X+2420017Y+15672D01*
X+2465737Y+15672D02*
X+2572417Y+15672D01*
X+616617Y+20752D02*
X+708057Y+20752D01*
X+733457Y+20752D02*
X+824897Y+20752D01*
X+865537Y+20752D02*
X+972217Y+20752D01*
X+1002697Y+20752D02*
X+1094137Y+20752D01*
X+1165257Y+20752D02*
X+1200817Y+20752D01*
X+1282097Y+20752D02*
X+1317657Y+20752D01*
X+1348137Y+20752D02*
X+1470057Y+20752D01*
X+1515777Y+20752D02*
X+1622457Y+20752D01*
X+1668177Y+20752D02*
X+1703737Y+20752D01*
X+1734217Y+20752D02*
X+1769777Y+20752D01*
X+1820577Y+20752D02*
X+1856137Y+20752D01*
X+1886617Y+20752D02*
X+2008537Y+20752D01*
X+2054257Y+20752D02*
X+2160937Y+20752D01*
X+2206657Y+20752D02*
X+2267617Y+20752D01*
X+2298097Y+20752D02*
X+2420017Y+20752D01*
X+2465737Y+20752D02*
X+2572417Y+20752D01*
X+616617Y+25832D02*
X+652177Y+25832D01*
X+672497Y+25832D02*
X+708057Y+25832D01*
X+763937Y+25832D02*
X+799497Y+25832D01*
X+865537Y+25832D02*
X+901097Y+25832D01*
X+911257Y+25832D02*
X+972217Y+25832D01*
X+1033177Y+25832D02*
X+1094137Y+25832D01*
X+1165257Y+25832D02*
X+1200817Y+25832D01*
X+1282097Y+25832D02*
X+1317657Y+25832D01*
X+1348137Y+25832D02*
X+1383697Y+25832D01*
X+1434497Y+25832D02*
X+1470057Y+25832D01*
X+1515777Y+25832D02*
X+1551337Y+25832D01*
X+1586897Y+25832D02*
X+1622457Y+25832D01*
X+1734217Y+25832D02*
X+1769777Y+25832D01*
X+1820577Y+25832D02*
X+1856137Y+25832D01*
X+1886617Y+25832D02*
X+1922177Y+25832D01*
X+1972977Y+25832D02*
X+2008537Y+25832D01*
X+2054257Y+25832D02*
X+2089817Y+25832D01*
X+2125377Y+25832D02*
X+2160937Y+25832D01*
X+2216817Y+25832D02*
X+2252377Y+25832D01*
X+2298097Y+25832D02*
X+2333657Y+25832D01*
X+2384457Y+25832D02*
X+2420017Y+25832D01*
X+2465737Y+25832D02*
X+2501297Y+25832D01*
X+2536857Y+25832D02*
X+2572417Y+25832D01*
X+616617Y+30912D02*
X+652177Y+30912D01*
X+672497Y+30912D02*
X+708057Y+30912D01*
X+763937Y+30912D02*
X+799497Y+30912D01*
X+865537Y+30912D02*
X+901097Y+30912D01*
X+911257Y+30912D02*
X+972217Y+30912D01*
X+1033177Y+30912D02*
X+1094137Y+30912D01*
X+1165257Y+30912D02*
X+1200817Y+30912D01*
X+1282097Y+30912D02*
X+1317657Y+30912D01*
X+1348137Y+30912D02*
X+1383697Y+30912D01*
X+1434497Y+30912D02*
X+1470057Y+30912D01*
X+1515777Y+30912D02*
X+1551337Y+30912D01*
X+1586897Y+30912D02*
X+1622457Y+30912D01*
X+1734217Y+30912D02*
X+1769777Y+30912D01*
X+1820577Y+30912D02*
X+1856137Y+30912D01*
X+1886617Y+30912D02*
X+1922177Y+30912D01*
X+1972977Y+30912D02*
X+2008537Y+30912D01*
X+2054257Y+30912D02*
X+2089817Y+30912D01*
X+2125377Y+30912D02*
X+2160937Y+30912D01*
X+2216817Y+30912D02*
X+2252377Y+30912D01*
X+2298097Y+30912D02*
X+2333657Y+30912D01*
X+2384457Y+30912D02*
X+2420017Y+30912D01*
X+2465737Y+30912D02*
X+2501297Y+30912D01*
X+2536857Y+30912D02*
X+2572417Y+30912D01*
X+616617Y+35992D02*
X+652177Y+35992D01*
X+672497Y+35992D02*
X+708057Y+35992D01*
X+763937Y+35992D02*
X+799497Y+35992D01*
X+865537Y+35992D02*
X+901097Y+35992D01*
X+911257Y+35992D02*
X+972217Y+35992D01*
X+1033177Y+35992D02*
X+1094137Y+35992D01*
X+1165257Y+35992D02*
X+1200817Y+35992D01*
X+1282097Y+35992D02*
X+1317657Y+35992D01*
X+1348137Y+35992D02*
X+1383697Y+35992D01*
X+1434497Y+35992D02*
X+1470057Y+35992D01*
X+1515777Y+35992D02*
X+1551337Y+35992D01*
X+1586897Y+35992D02*
X+1622457Y+35992D01*
X+1734217Y+35992D02*
X+1769777Y+35992D01*
X+1820577Y+35992D02*
X+1856137Y+35992D01*
X+1886617Y+35992D02*
X+1922177Y+35992D01*
X+1972977Y+35992D02*
X+2008537Y+35992D01*
X+2054257Y+35992D02*
X+2089817Y+35992D01*
X+2125377Y+35992D02*
X+2160937Y+35992D01*
X+2216817Y+35992D02*
X+2252377Y+35992D01*
X+2298097Y+35992D02*
X+2333657Y+35992D01*
X+2384457Y+35992D02*
X+2420017Y+35992D01*
X+2465737Y+35992D02*
X+2501297Y+35992D01*
X+2536857Y+35992D02*
X+2572417Y+35992D01*
X+616617Y+41072D02*
X+652177Y+41072D01*
X+763937Y+41072D02*
X+799497Y+41072D01*
X+865537Y+41072D02*
X+901097Y+41072D01*
X+911257Y+41072D02*
X+972217Y+41072D01*
X+1033177Y+41072D02*
X+1078897Y+41072D01*
X+1165257Y+41072D02*
X+1200817Y+41072D01*
X+1282097Y+41072D02*
X+1317657Y+41072D01*
X+1348137Y+41072D02*
X+1383697Y+41072D01*
X+1434497Y+41072D02*
X+1470057Y+41072D01*
X+1586897Y+41072D02*
X+1622457Y+41072D01*
X+1734217Y+41072D02*
X+1769777Y+41072D01*
X+1820577Y+41072D02*
X+1856137Y+41072D01*
X+1886617Y+41072D02*
X+1922177Y+41072D01*
X+1972977Y+41072D02*
X+2008537Y+41072D01*
X+2054257Y+41072D02*
X+2089817Y+41072D01*
X+2125377Y+41072D02*
X+2160937Y+41072D01*
X+2216817Y+41072D02*
X+2252377Y+41072D01*
X+2298097Y+41072D02*
X+2333657Y+41072D01*
X+2384457Y+41072D02*
X+2420017Y+41072D01*
X+2465737Y+41072D02*
X+2501297Y+41072D01*
X+2536857Y+41072D02*
X+2572417Y+41072D01*
X+616617Y+46152D02*
X+652177Y+46152D01*
X+763937Y+46152D02*
X+799497Y+46152D01*
X+865537Y+46152D02*
X+901097Y+46152D01*
X+911257Y+46152D02*
X+972217Y+46152D01*
X+1033177Y+46152D02*
X+1078897Y+46152D01*
X+1165257Y+46152D02*
X+1200817Y+46152D01*
X+1282097Y+46152D02*
X+1317657Y+46152D01*
X+1348137Y+46152D02*
X+1383697Y+46152D01*
X+1434497Y+46152D02*
X+1470057Y+46152D01*
X+1586897Y+46152D02*
X+1622457Y+46152D01*
X+1734217Y+46152D02*
X+1769777Y+46152D01*
X+1820577Y+46152D02*
X+1856137Y+46152D01*
X+1886617Y+46152D02*
X+1922177Y+46152D01*
X+1972977Y+46152D02*
X+2008537Y+46152D01*
X+2054257Y+46152D02*
X+2089817Y+46152D01*
X+2125377Y+46152D02*
X+2160937Y+46152D01*
X+2216817Y+46152D02*
X+2252377Y+46152D01*
X+2298097Y+46152D02*
X+2333657Y+46152D01*
X+2384457Y+46152D02*
X+2420017Y+46152D01*
X+2465737Y+46152D02*
X+2501297Y+46152D01*
X+2536857Y+46152D02*
X+2572417Y+46152D01*
X+616617Y+51232D02*
X+652177Y+51232D01*
X+763937Y+51232D02*
X+799497Y+51232D01*
X+865537Y+51232D02*
X+901097Y+51232D01*
X+911257Y+51232D02*
X+972217Y+51232D01*
X+1017937Y+51232D02*
X+1078897Y+51232D01*
X+1165257Y+51232D02*
X+1200817Y+51232D01*
X+1282097Y+51232D02*
X+1317657Y+51232D01*
X+1348137Y+51232D02*
X+1383697Y+51232D01*
X+1434497Y+51232D02*
X+1470057Y+51232D01*
X+1586897Y+51232D02*
X+1622457Y+51232D01*
X+1734217Y+51232D02*
X+1769777Y+51232D01*
X+1820577Y+51232D02*
X+1856137Y+51232D01*
X+1886617Y+51232D02*
X+1922177Y+51232D01*
X+1972977Y+51232D02*
X+2008537Y+51232D01*
X+2054257Y+51232D02*
X+2105057Y+51232D01*
X+2125377Y+51232D02*
X+2160937Y+51232D01*
X+2216817Y+51232D02*
X+2252377Y+51232D01*
X+2298097Y+51232D02*
X+2333657Y+51232D01*
X+2384457Y+51232D02*
X+2420017Y+51232D01*
X+2465737Y+51232D02*
X+2516537Y+51232D01*
X+2536857Y+51232D02*
X+2572417Y+51232D01*
X+616617Y+56312D02*
X+652177Y+56312D01*
X+763937Y+56312D02*
X+799497Y+56312D01*
X+865537Y+56312D02*
X+901097Y+56312D01*
X+911257Y+56312D02*
X+972217Y+56312D01*
X+1017937Y+56312D02*
X+1063657Y+56312D01*
X+1165257Y+56312D02*
X+1200817Y+56312D01*
X+1282097Y+56312D02*
X+1317657Y+56312D01*
X+1348137Y+56312D02*
X+1383697Y+56312D01*
X+1434497Y+56312D02*
X+1470057Y+56312D01*
X+1586897Y+56312D02*
X+1622457Y+56312D01*
X+1734217Y+56312D02*
X+1769777Y+56312D01*
X+1820577Y+56312D02*
X+1856137Y+56312D01*
X+1886617Y+56312D02*
X+1922177Y+56312D01*
X+1972977Y+56312D02*
X+2008537Y+56312D01*
X+2054257Y+56312D02*
X+2105057Y+56312D01*
X+2125377Y+56312D02*
X+2160937Y+56312D01*
X+2216817Y+56312D02*
X+2252377Y+56312D01*
X+2298097Y+56312D02*
X+2333657Y+56312D01*
X+2384457Y+56312D02*
X+2420017Y+56312D01*
X+2465737Y+56312D02*
X+2516537Y+56312D01*
X+2536857Y+56312D02*
X+2572417Y+56312D01*
X+616617Y+61392D02*
X+652177Y+61392D01*
X+763937Y+61392D02*
X+799497Y+61392D01*
X+865537Y+61392D02*
X+901097Y+61392D01*
X+911257Y+61392D02*
X+972217Y+61392D01*
X+1017937Y+61392D02*
X+1063657Y+61392D01*
X+1165257Y+61392D02*
X+1200817Y+61392D01*
X+1282097Y+61392D02*
X+1317657Y+61392D01*
X+1348137Y+61392D02*
X+1383697Y+61392D01*
X+1434497Y+61392D02*
X+1470057Y+61392D01*
X+1586897Y+61392D02*
X+1622457Y+61392D01*
X+1734217Y+61392D02*
X+1769777Y+61392D01*
X+1820577Y+61392D02*
X+1856137Y+61392D01*
X+1886617Y+61392D02*
X+1922177Y+61392D01*
X+1972977Y+61392D02*
X+2008537Y+61392D01*
X+2054257Y+61392D02*
X+2105057Y+61392D01*
X+2125377Y+61392D02*
X+2160937Y+61392D01*
X+2216817Y+61392D02*
X+2252377Y+61392D01*
X+2298097Y+61392D02*
X+2333657Y+61392D01*
X+2384457Y+61392D02*
X+2420017Y+61392D01*
X+2465737Y+61392D02*
X+2516537Y+61392D01*
X+2536857Y+61392D02*
X+2572417Y+61392D01*
X+616617Y+66472D02*
X+692817Y+66472D01*
X+763937Y+66472D02*
X+799497Y+66472D01*
X+865537Y+66472D02*
X+901097Y+66472D01*
X+911257Y+66472D02*
X+931577Y+66472D01*
X+936657Y+66472D02*
X+972217Y+66472D01*
X+1002697Y+66472D02*
X+1053497Y+66472D01*
X+1165257Y+66472D02*
X+1200817Y+66472D01*
X+1226217Y+66472D02*
X+1261777Y+66472D01*
X+1282097Y+66472D02*
X+1317657Y+66472D01*
X+1348137Y+66472D02*
X+1383697Y+66472D01*
X+1434497Y+66472D02*
X+1470057Y+66472D01*
X+1586897Y+66472D02*
X+1622457Y+66472D01*
X+1749457Y+66472D02*
X+1856137Y+66472D01*
X+1886617Y+66472D02*
X+1922177Y+66472D01*
X+1972977Y+66472D02*
X+2008537Y+66472D01*
X+2054257Y+66472D02*
X+2105057Y+66472D01*
X+2125377Y+66472D02*
X+2160937Y+66472D01*
X+2216817Y+66472D02*
X+2252377Y+66472D01*
X+2298097Y+66472D02*
X+2333657Y+66472D01*
X+2384457Y+66472D02*
X+2420017Y+66472D01*
X+2465737Y+66472D02*
X+2516537Y+66472D01*
X+2536857Y+66472D02*
X+2572417Y+66472D01*
X+616617Y+71552D02*
X+692817Y+71552D01*
X+763937Y+71552D02*
X+799497Y+71552D01*
X+865537Y+71552D02*
X+901097Y+71552D01*
X+911257Y+71552D02*
X+931577Y+71552D01*
X+936657Y+71552D02*
X+972217Y+71552D01*
X+1002697Y+71552D02*
X+1053497Y+71552D01*
X+1165257Y+71552D02*
X+1200817Y+71552D01*
X+1226217Y+71552D02*
X+1261777Y+71552D01*
X+1282097Y+71552D02*
X+1317657Y+71552D01*
X+1348137Y+71552D02*
X+1383697Y+71552D01*
X+1434497Y+71552D02*
X+1470057Y+71552D01*
X+1586897Y+71552D02*
X+1622457Y+71552D01*
X+1749457Y+71552D02*
X+1856137Y+71552D01*
X+1886617Y+71552D02*
X+1922177Y+71552D01*
X+1972977Y+71552D02*
X+2008537Y+71552D01*
X+2054257Y+71552D02*
X+2105057Y+71552D01*
X+2125377Y+71552D02*
X+2160937Y+71552D01*
X+2216817Y+71552D02*
X+2252377Y+71552D01*
X+2298097Y+71552D02*
X+2333657Y+71552D01*
X+2384457Y+71552D02*
X+2420017Y+71552D01*
X+2465737Y+71552D02*
X+2516537Y+71552D01*
X+2536857Y+71552D02*
X+2572417Y+71552D01*
X+616617Y+76632D02*
X+692817Y+76632D01*
X+763937Y+76632D02*
X+799497Y+76632D01*
X+865537Y+76632D02*
X+901097Y+76632D01*
X+911257Y+76632D02*
X+931577Y+76632D01*
X+936657Y+76632D02*
X+972217Y+76632D01*
X+1002697Y+76632D02*
X+1053497Y+76632D01*
X+1165257Y+76632D02*
X+1200817Y+76632D01*
X+1226217Y+76632D02*
X+1261777Y+76632D01*
X+1282097Y+76632D02*
X+1317657Y+76632D01*
X+1348137Y+76632D02*
X+1383697Y+76632D01*
X+1434497Y+76632D02*
X+1470057Y+76632D01*
X+1586897Y+76632D02*
X+1622457Y+76632D01*
X+1749457Y+76632D02*
X+1856137Y+76632D01*
X+1886617Y+76632D02*
X+1922177Y+76632D01*
X+1972977Y+76632D02*
X+2008537Y+76632D01*
X+2054257Y+76632D02*
X+2105057Y+76632D01*
X+2125377Y+76632D02*
X+2160937Y+76632D01*
X+2216817Y+76632D02*
X+2252377Y+76632D01*
X+2298097Y+76632D02*
X+2333657Y+76632D01*
X+2384457Y+76632D02*
X+2420017Y+76632D01*
X+2465737Y+76632D02*
X+2516537Y+76632D01*
X+2536857Y+76632D02*
X+2572417Y+76632D01*
X+616617Y+81712D02*
X+708057Y+81712D01*
X+763937Y+81712D02*
X+799497Y+81712D01*
X+865537Y+81712D02*
X+931577Y+81712D01*
X+936657Y+81712D02*
X+972217Y+81712D01*
X+1002697Y+81712D02*
X+1038257Y+81712D01*
X+1165257Y+81712D02*
X+1200817Y+81712D01*
X+1210977Y+81712D02*
X+1277017Y+81712D01*
X+1282097Y+81712D02*
X+1317657Y+81712D01*
X+1348137Y+81712D02*
X+1383697Y+81712D01*
X+1434497Y+81712D02*
X+1470057Y+81712D01*
X+1586897Y+81712D02*
X+1622457Y+81712D01*
X+1734217Y+81712D02*
X+1856137Y+81712D01*
X+1886617Y+81712D02*
X+1922177Y+81712D01*
X+1972977Y+81712D02*
X+2008537Y+81712D01*
X+2125377Y+81712D02*
X+2160937Y+81712D01*
X+2216817Y+81712D02*
X+2252377Y+81712D01*
X+2298097Y+81712D02*
X+2333657Y+81712D01*
X+2384457Y+81712D02*
X+2420017Y+81712D01*
X+2536857Y+81712D02*
X+2572417Y+81712D01*
X+616617Y+86792D02*
X+708057Y+86792D01*
X+763937Y+86792D02*
X+799497Y+86792D01*
X+865537Y+86792D02*
X+931577Y+86792D01*
X+936657Y+86792D02*
X+972217Y+86792D01*
X+1002697Y+86792D02*
X+1038257Y+86792D01*
X+1165257Y+86792D02*
X+1200817Y+86792D01*
X+1210977Y+86792D02*
X+1277017Y+86792D01*
X+1282097Y+86792D02*
X+1317657Y+86792D01*
X+1348137Y+86792D02*
X+1383697Y+86792D01*
X+1434497Y+86792D02*
X+1470057Y+86792D01*
X+1586897Y+86792D02*
X+1622457Y+86792D01*
X+1734217Y+86792D02*
X+1856137Y+86792D01*
X+1886617Y+86792D02*
X+1922177Y+86792D01*
X+1972977Y+86792D02*
X+2008537Y+86792D01*
X+2125377Y+86792D02*
X+2160937Y+86792D01*
X+2216817Y+86792D02*
X+2252377Y+86792D01*
X+2298097Y+86792D02*
X+2333657Y+86792D01*
X+2384457Y+86792D02*
X+2420017Y+86792D01*
X+2536857Y+86792D02*
X+2572417Y+86792D01*
X+616617Y+91872D02*
X+708057Y+91872D01*
X+763937Y+91872D02*
X+799497Y+91872D01*
X+865537Y+91872D02*
X+931577Y+91872D01*
X+936657Y+91872D02*
X+972217Y+91872D01*
X+1002697Y+91872D02*
X+1038257Y+91872D01*
X+1165257Y+91872D02*
X+1200817Y+91872D01*
X+1210977Y+91872D02*
X+1277017Y+91872D01*
X+1282097Y+91872D02*
X+1317657Y+91872D01*
X+1348137Y+91872D02*
X+1383697Y+91872D01*
X+1434497Y+91872D02*
X+1470057Y+91872D01*
X+1586897Y+91872D02*
X+1622457Y+91872D01*
X+1734217Y+91872D02*
X+1856137Y+91872D01*
X+1886617Y+91872D02*
X+1922177Y+91872D01*
X+1972977Y+91872D02*
X+2008537Y+91872D01*
X+2125377Y+91872D02*
X+2160937Y+91872D01*
X+2216817Y+91872D02*
X+2252377Y+91872D01*
X+2298097Y+91872D02*
X+2333657Y+91872D01*
X+2384457Y+91872D02*
X+2420017Y+91872D01*
X+2536857Y+91872D02*
X+2572417Y+91872D01*
X+616617Y+96952D02*
X+652177Y+96952D01*
X+672497Y+96952D02*
X+708057Y+96952D01*
X+763937Y+96952D02*
X+824897Y+96952D01*
X+865537Y+96952D02*
X+931577Y+96952D01*
X+936657Y+96952D02*
X+972217Y+96952D01*
X+1002697Y+96952D02*
X+1038257Y+96952D01*
X+1165257Y+96952D02*
X+1317657Y+96952D01*
X+1348137Y+96952D02*
X+1383697Y+96952D01*
X+1434497Y+96952D02*
X+1470057Y+96952D01*
X+1586897Y+96952D02*
X+1622457Y+96952D01*
X+1734217Y+96952D02*
X+1769777Y+96952D01*
X+1820577Y+96952D02*
X+1856137Y+96952D01*
X+1886617Y+96952D02*
X+1922177Y+96952D01*
X+1972977Y+96952D02*
X+2008537Y+96952D01*
X+2125377Y+96952D02*
X+2160937Y+96952D01*
X+2216817Y+96952D02*
X+2252377Y+96952D01*
X+2298097Y+96952D02*
X+2333657Y+96952D01*
X+2384457Y+96952D02*
X+2420017Y+96952D01*
X+2536857Y+96952D02*
X+2572417Y+96952D01*
X+616617Y+102032D02*
X+652177Y+102032D01*
X+672497Y+102032D02*
X+708057Y+102032D01*
X+763937Y+102032D02*
X+824897Y+102032D01*
X+865537Y+102032D02*
X+931577Y+102032D01*
X+936657Y+102032D02*
X+972217Y+102032D01*
X+1002697Y+102032D02*
X+1038257Y+102032D01*
X+1165257Y+102032D02*
X+1317657Y+102032D01*
X+1348137Y+102032D02*
X+1383697Y+102032D01*
X+1434497Y+102032D02*
X+1470057Y+102032D01*
X+1586897Y+102032D02*
X+1622457Y+102032D01*
X+1734217Y+102032D02*
X+1769777Y+102032D01*
X+1820577Y+102032D02*
X+1856137Y+102032D01*
X+1886617Y+102032D02*
X+1922177Y+102032D01*
X+1972977Y+102032D02*
X+2008537Y+102032D01*
X+2125377Y+102032D02*
X+2160937Y+102032D01*
X+2216817Y+102032D02*
X+2252377Y+102032D01*
X+2298097Y+102032D02*
X+2333657Y+102032D01*
X+2384457Y+102032D02*
X+2420017Y+102032D01*
X+2536857Y+102032D02*
X+2572417Y+102032D01*
X+616617Y+107112D02*
X+652177Y+107112D01*
X+672497Y+107112D02*
X+708057Y+107112D01*
X+763937Y+107112D02*
X+824897Y+107112D01*
X+865537Y+107112D02*
X+931577Y+107112D01*
X+936657Y+107112D02*
X+972217Y+107112D01*
X+1002697Y+107112D02*
X+1038257Y+107112D01*
X+1165257Y+107112D02*
X+1317657Y+107112D01*
X+1348137Y+107112D02*
X+1383697Y+107112D01*
X+1434497Y+107112D02*
X+1470057Y+107112D01*
X+1586897Y+107112D02*
X+1622457Y+107112D01*
X+1734217Y+107112D02*
X+1769777Y+107112D01*
X+1820577Y+107112D02*
X+1856137Y+107112D01*
X+1886617Y+107112D02*
X+1922177Y+107112D01*
X+1972977Y+107112D02*
X+2008537Y+107112D01*
X+2125377Y+107112D02*
X+2160937Y+107112D01*
X+2216817Y+107112D02*
X+2252377Y+107112D01*
X+2298097Y+107112D02*
X+2333657Y+107112D01*
X+2384457Y+107112D02*
X+2420017Y+107112D01*
X+2536857Y+107112D02*
X+2572417Y+107112D01*
X+616617Y+112192D02*
X+652177Y+112192D01*
X+672497Y+112192D02*
X+708057Y+112192D01*
X+763937Y+112192D02*
X+824897Y+112192D01*
X+865537Y+112192D02*
X+931577Y+112192D01*
X+936657Y+112192D02*
X+972217Y+112192D01*
X+1002697Y+112192D02*
X+1038257Y+112192D01*
X+1058577Y+112192D02*
X+1094137Y+112192D01*
X+1165257Y+112192D02*
X+1231297Y+112192D01*
X+1256697Y+112192D02*
X+1317657Y+112192D01*
X+1348137Y+112192D02*
X+1383697Y+112192D01*
X+1434497Y+112192D02*
X+1470057Y+112192D01*
X+1515777Y+112192D02*
X+1551337Y+112192D01*
X+1586897Y+112192D02*
X+1622457Y+112192D01*
X+1734217Y+112192D02*
X+1769777Y+112192D01*
X+1820577Y+112192D02*
X+1856137Y+112192D01*
X+1886617Y+112192D02*
X+1922177Y+112192D01*
X+1972977Y+112192D02*
X+2008537Y+112192D01*
X+2054257Y+112192D02*
X+2089817Y+112192D01*
X+2125377Y+112192D02*
X+2160937Y+112192D01*
X+2216817Y+112192D02*
X+2252377Y+112192D01*
X+2298097Y+112192D02*
X+2333657Y+112192D01*
X+2384457Y+112192D02*
X+2420017Y+112192D01*
X+2465737Y+112192D02*
X+2501297Y+112192D01*
X+2536857Y+112192D02*
X+2572417Y+112192D01*
X+616617Y+117272D02*
X+652177Y+117272D01*
X+672497Y+117272D02*
X+708057Y+117272D01*
X+763937Y+117272D02*
X+824897Y+117272D01*
X+865537Y+117272D02*
X+931577Y+117272D01*
X+936657Y+117272D02*
X+972217Y+117272D01*
X+1002697Y+117272D02*
X+1038257Y+117272D01*
X+1058577Y+117272D02*
X+1094137Y+117272D01*
X+1165257Y+117272D02*
X+1231297Y+117272D01*
X+1256697Y+117272D02*
X+1317657Y+117272D01*
X+1348137Y+117272D02*
X+1383697Y+117272D01*
X+1434497Y+117272D02*
X+1470057Y+117272D01*
X+1515777Y+117272D02*
X+1551337Y+117272D01*
X+1586897Y+117272D02*
X+1622457Y+117272D01*
X+1734217Y+117272D02*
X+1769777Y+117272D01*
X+1820577Y+117272D02*
X+1856137Y+117272D01*
X+1886617Y+117272D02*
X+1922177Y+117272D01*
X+1972977Y+117272D02*
X+2008537Y+117272D01*
X+2054257Y+117272D02*
X+2089817Y+117272D01*
X+2125377Y+117272D02*
X+2160937Y+117272D01*
X+2216817Y+117272D02*
X+2252377Y+117272D01*
X+2298097Y+117272D02*
X+2333657Y+117272D01*
X+2384457Y+117272D02*
X+2420017Y+117272D01*
X+2465737Y+117272D02*
X+2501297Y+117272D01*
X+2536857Y+117272D02*
X+2572417Y+117272D01*
X+616617Y+122352D02*
X+652177Y+122352D01*
X+672497Y+122352D02*
X+708057Y+122352D01*
X+763937Y+122352D02*
X+824897Y+122352D01*
X+865537Y+122352D02*
X+931577Y+122352D01*
X+936657Y+122352D02*
X+972217Y+122352D01*
X+1002697Y+122352D02*
X+1038257Y+122352D01*
X+1058577Y+122352D02*
X+1094137Y+122352D01*
X+1165257Y+122352D02*
X+1231297Y+122352D01*
X+1256697Y+122352D02*
X+1317657Y+122352D01*
X+1348137Y+122352D02*
X+1383697Y+122352D01*
X+1434497Y+122352D02*
X+1470057Y+122352D01*
X+1515777Y+122352D02*
X+1551337Y+122352D01*
X+1586897Y+122352D02*
X+1622457Y+122352D01*
X+1734217Y+122352D02*
X+1769777Y+122352D01*
X+1820577Y+122352D02*
X+1856137Y+122352D01*
X+1886617Y+122352D02*
X+1922177Y+122352D01*
X+1972977Y+122352D02*
X+2008537Y+122352D01*
X+2054257Y+122352D02*
X+2089817Y+122352D01*
X+2125377Y+122352D02*
X+2160937Y+122352D01*
X+2216817Y+122352D02*
X+2252377Y+122352D01*
X+2298097Y+122352D02*
X+2333657Y+122352D01*
X+2384457Y+122352D02*
X+2420017Y+122352D01*
X+2465737Y+122352D02*
X+2501297Y+122352D01*
X+2536857Y+122352D02*
X+2572417Y+122352D01*
X+616617Y+127432D02*
X+708057Y+127432D01*
X+763937Y+127432D02*
X+809657Y+127432D01*
X+865537Y+127432D02*
X+972217Y+127432D01*
X+1002697Y+127432D02*
X+1094137Y+127432D01*
X+1165257Y+127432D02*
X+1216057Y+127432D01*
X+1266857Y+127432D02*
X+1317657Y+127432D01*
X+1348137Y+127432D02*
X+1470057Y+127432D01*
X+1515777Y+127432D02*
X+1622457Y+127432D01*
X+1734217Y+127432D02*
X+1856137Y+127432D01*
X+1886617Y+127432D02*
X+1922177Y+127432D01*
X+1972977Y+127432D02*
X+2008537Y+127432D01*
X+2054257Y+127432D02*
X+2160937Y+127432D01*
X+2206657Y+127432D02*
X+2267617Y+127432D01*
X+2298097Y+127432D02*
X+2333657Y+127432D01*
X+2384457Y+127432D02*
X+2420017Y+127432D01*
X+2465737Y+127432D02*
X+2572417Y+127432D01*
X+616617Y+132512D02*
X+708057Y+132512D01*
X+763937Y+132512D02*
X+809657Y+132512D01*
X+865537Y+132512D02*
X+972217Y+132512D01*
X+1002697Y+132512D02*
X+1094137Y+132512D01*
X+1165257Y+132512D02*
X+1216057Y+132512D01*
X+1266857Y+132512D02*
X+1317657Y+132512D01*
X+1348137Y+132512D02*
X+1470057Y+132512D01*
X+1515777Y+132512D02*
X+1622457Y+132512D01*
X+1734217Y+132512D02*
X+1856137Y+132512D01*
X+1886617Y+132512D02*
X+1922177Y+132512D01*
X+1972977Y+132512D02*
X+2008537Y+132512D01*
X+2054257Y+132512D02*
X+2160937Y+132512D01*
X+2206657Y+132512D02*
X+2267617Y+132512D01*
X+2298097Y+132512D02*
X+2333657Y+132512D01*
X+2384457Y+132512D02*
X+2420017Y+132512D01*
X+2465737Y+132512D02*
X+2572417Y+132512D01*
X+616617Y+137592D02*
X+708057Y+137592D01*
X+763937Y+137592D02*
X+809657Y+137592D01*
X+865537Y+137592D02*
X+972217Y+137592D01*
X+1002697Y+137592D02*
X+1094137Y+137592D01*
X+1165257Y+137592D02*
X+1216057Y+137592D01*
X+1266857Y+137592D02*
X+1317657Y+137592D01*
X+1348137Y+137592D02*
X+1470057Y+137592D01*
X+1515777Y+137592D02*
X+1622457Y+137592D01*
X+1734217Y+137592D02*
X+1856137Y+137592D01*
X+1886617Y+137592D02*
X+1922177Y+137592D01*
X+1972977Y+137592D02*
X+2008537Y+137592D01*
X+2054257Y+137592D02*
X+2160937Y+137592D01*
X+2206657Y+137592D02*
X+2267617Y+137592D01*
X+2298097Y+137592D02*
X+2333657Y+137592D01*
X+2384457Y+137592D02*
X+2420017Y+137592D01*
X+2465737Y+137592D02*
X+2572417Y+137592D01*
X+631857Y+142672D02*
X+692817Y+142672D01*
X+763937Y+142672D02*
X+799497Y+142672D01*
X+880777Y+142672D02*
X+956977Y+142672D01*
X+1017937Y+142672D02*
X+1078897Y+142672D01*
X+1165257Y+142672D02*
X+1200817Y+142672D01*
X+1282097Y+142672D02*
X+1317657Y+142672D01*
X+1363377Y+142672D02*
X+1454817Y+142672D01*
X+1531017Y+142672D02*
X+1607217Y+142672D01*
X+1749457Y+142672D02*
X+1856137Y+142672D01*
X+1886617Y+142672D02*
X+1922177Y+142672D01*
X+1972977Y+142672D02*
X+2008537Y+142672D01*
X+2069497Y+142672D02*
X+2145697Y+142672D01*
X+2206657Y+142672D02*
X+2267617Y+142672D01*
X+2298097Y+142672D02*
X+2333657Y+142672D01*
X+2384457Y+142672D02*
X+2420017Y+142672D01*
X+2480977Y+142672D02*
X+2557177Y+142672D01*
X+631857Y+147752D02*
X+692817Y+147752D01*
X+763937Y+147752D02*
X+799497Y+147752D01*
X+880777Y+147752D02*
X+956977Y+147752D01*
X+1017937Y+147752D02*
X+1078897Y+147752D01*
X+1165257Y+147752D02*
X+1200817Y+147752D01*
X+1282097Y+147752D02*
X+1317657Y+147752D01*
X+1363377Y+147752D02*
X+1454817Y+147752D01*
X+1531017Y+147752D02*
X+1607217Y+147752D01*
X+1749457Y+147752D02*
X+1856137Y+147752D01*
X+1886617Y+147752D02*
X+1922177Y+147752D01*
X+1972977Y+147752D02*
X+2008537Y+147752D01*
X+2069497Y+147752D02*
X+2145697Y+147752D01*
X+2206657Y+147752D02*
X+2267617Y+147752D01*
X+2298097Y+147752D02*
X+2333657Y+147752D01*
X+2384457Y+147752D02*
X+2420017Y+147752D01*
X+2480977Y+147752D02*
X+2557177Y+147752D01*
X+631857Y+152832D02*
X+692817Y+152832D01*
X+763937Y+152832D02*
X+799497Y+152832D01*
X+880777Y+152832D02*
X+956977Y+152832D01*
X+1017937Y+152832D02*
X+1078897Y+152832D01*
X+1165257Y+152832D02*
X+1200817Y+152832D01*
X+1282097Y+152832D02*
X+1317657Y+152832D01*
X+1363377Y+152832D02*
X+1454817Y+152832D01*
X+1531017Y+152832D02*
X+1607217Y+152832D01*
X+1749457Y+152832D02*
X+1856137Y+152832D01*
X+1886617Y+152832D02*
X+1922177Y+152832D01*
X+1972977Y+152832D02*
X+2008537Y+152832D01*
X+2069497Y+152832D02*
X+2145697Y+152832D01*
X+2206657Y+152832D02*
X+2267617Y+152832D01*
X+2298097Y+152832D02*
X+2333657Y+152832D01*
X+2384457Y+152832D02*
X+2420017Y+152832D01*
X+2480977Y+152832D02*
X+2557177Y+152832D01*
D21*
X+1905000Y+1968500D02*
X+1778000Y+1968500D01*
X+1270000Y+1905000D02*
X+1778000Y+1905000D01*
X+1778000Y+2032000D01*
X+1270000Y+2032000D01*
X+1270000Y+1905000D01*
X+1270000Y+1968500D02*
X+1143000Y+1968500D01*
X+1587500Y+2072640D02*
X+1587500Y+2164080D01*
X+1508125Y+2164080D01*
X+1492250Y+2148840D01*
X+1492250Y+2133600D01*
X+1508125Y+2118360D01*
X+1587500Y+2118360D01*
X+1508125Y+2118360D02*
X+1492250Y+2103120D01*
X+1492250Y+2072640D01*
X+1428750Y+2133600D02*
X+1397000Y+2164080D01*
X+1397000Y+2072640D01*
X+3683000Y+2159000D02*
X+3682173Y+2179483D01*
X+3675455Y+2220450D01*
X+3661437Y+2261417D01*
X+3638659Y+2302384D01*
X+3603859Y+2343229D01*
X+3562892Y+2374845D01*
X+3521925Y+2395392D01*
X+3480958Y+2407629D01*
X+3439991Y+2412762D01*
X+3429000Y+2413000D01*
X+3175000Y+2159000D02*
X+3175827Y+2179483D01*
X+3182545Y+2220450D01*
X+3196563Y+2261417D01*
X+3219341Y+2302384D01*
X+3254141Y+2343229D01*
X+3295108Y+2374845D01*
X+3336075Y+2395392D01*
X+3377042Y+2407629D01*
X+3418009Y+2412762D01*
X+3429000Y+2413000D01*
X+3175000Y+2159000D02*
X+3175827Y+2138517D01*
X+3182545Y+2097550D01*
X+3196563Y+2056583D01*
X+3219341Y+2015616D01*
X+3254141Y+1974771D01*
X+3295108Y+1943155D01*
X+3336075Y+1922608D01*
X+3377042Y+1910371D01*
X+3418009Y+1905238D01*
X+3429000Y+1905000D01*
X+3683000Y+2159000D02*
X+3682173Y+2138517D01*
X+3675455Y+2097550D01*
X+3661437Y+2056583D01*
X+3638659Y+2015616D01*
X+3603859Y+1974771D01*
X+3562892Y+1943155D01*
X+3521925Y+1922608D01*
X+3480958Y+1910371D01*
X+3439991Y+1905238D01*
X+3429000Y+1905000D01*
X+3302000Y+2349500D02*
X+3302000Y+2222500D01*
X+3238500Y+2286000D02*
X+3365500Y+2286000D01*
X+3594695Y+2825750D02*
X+3564215Y+2794000D01*
X+3655655Y+2794000D01*
X+3640415Y+2730500D02*
X+3579455Y+2730500D01*
X+3564215Y+2714625D01*
X+3564215Y+2651125D01*
X+3579455Y+2635250D01*
X+3640415Y+2635250D01*
X+3655655Y+2651125D01*
X+3655655Y+2714625D01*
X+3640415Y+2730500D01*
X+3655655Y+2730500D02*
X+3564215Y+2635250D01*
X+3564215Y+2603500D02*
X+3640415Y+2603500D01*
X+3655655Y+2587625D01*
X+3655655Y+2524125D01*
X+3640415Y+2508250D01*
X+3564215Y+2508250D01*
X+3655655Y+2476500D02*
X+3564215Y+2476500D01*
X+3564215Y+2381250D01*
X+3609935Y+2476500D02*
X+3609935Y+2413000D01*
X+3492500Y+444500D02*
X+3518376Y+449580D01*
X+3542348Y+464185D01*
X+3563938Y+487362D01*
X+3582670Y+518160D01*
X+3598069Y+555625D01*
X+3609658Y+598805D01*
X+3616960Y+646748D01*
X+3619500Y+698500D01*
X+3492500Y+952500D02*
X+3518376Y+947420D01*
X+3542348Y+932815D01*
X+3563938Y+909638D01*
X+3582670Y+878840D01*
X+3598069Y+841375D01*
X+3609658Y+798195D01*
X+3616960Y+750252D01*
X+3619500Y+698500D01*
X+3492500Y+444500D02*
X+3466624Y+449580D01*
X+3442652Y+464185D01*
X+3421062Y+487362D01*
X+3402330Y+518160D01*
X+3386931Y+555625D01*
X+3375342Y+598805D01*
X+3368040Y+646748D01*
X+3365500Y+698500D01*
X+3492500Y+952500D02*
X+3466624Y+947420D01*
X+3442652Y+932815D01*
X+3421062Y+909638D01*
X+3402330Y+878840D01*
X+3386931Y+841375D01*
X+3375342Y+798195D01*
X+3368040Y+750252D01*
X+3365500Y+698500D01*
X+3445432Y+1514244D02*
X+3414952Y+1482494D01*
X+3506392Y+1482494D01*
X+3491152Y+1418994D02*
X+3430192Y+1418994D01*
X+3414952Y+1403119D01*
X+3414952Y+1339619D01*
X+3430192Y+1323744D01*
X+3491152Y+1323744D01*
X+3506392Y+1339619D01*
X+3506392Y+1403119D01*
X+3491152Y+1418994D01*
X+3506392Y+1418994D02*
X+3414952Y+1323744D01*
X+3491152Y+1291994D02*
X+3430192Y+1291994D01*
X+3414952Y+1276119D01*
X+3414952Y+1212619D01*
X+3430192Y+1196744D01*
X+3491152Y+1196744D01*
X+3506392Y+1212619D01*
X+3506392Y+1276119D01*
X+3491152Y+1291994D01*
X+3506392Y+1291994D02*
X+3414952Y+1196744D01*
X+3506392Y+1164994D02*
X+3414952Y+1164994D01*
X+3506392Y+1069744D01*
X+3414952Y+1069744D01*
X+3506392Y+1037994D02*
X+3414952Y+1037994D01*
X+3414952Y+942744D01*
X+3460672Y+1037994D02*
X+3460672Y+974494D01*
D71*
X+3746500Y-1587500D02*
X+3741601Y-1612490D01*
X+3728144Y-1632644D01*
X+3707990Y-1646101D01*
X+3683000Y-1651000D01*
X-444500Y-1587500D02*
X-439601Y-1612490D01*
X-426144Y-1632644D01*
X-405990Y-1646101D01*
X-381000Y-1651000D01*
X-444500Y+2857500D02*
X-439601Y+2882490D01*
X-426144Y+2902644D01*
X-405990Y+2916101D01*
X-381000Y+2921000D01*
X+3683000Y+2921000D02*
X+3707990Y+2916101D01*
X+3728144Y+2902644D01*
X+3741601Y+2882490D01*
X+3746500Y+2857500D01*
M02*
